<?xml version="1.0" encoding="UTF-8" standalone="no"?>
<!-- Created with Inkscape (http://www.inkscape.org/) -->

<svg
   xmlns:dc="http://purl.org/dc/elements/1.1/"
   xmlns:cc="http://creativecommons.org/ns#"
   xmlns:rdf="http://www.w3.org/1999/02/22-rdf-syntax-ns#"
   xmlns:svg="http://www.w3.org/2000/svg"
   xmlns="http://www.w3.org/2000/svg"
   xmlns:sodipodi="http://sodipodi.sourceforge.net/DTD/sodipodi-0.dtd"
   xmlns:inkscape="http://www.inkscape.org/namespaces/inkscape"
   width="210mm"
   height="297mm"
   viewBox="0 0 210 297"
   version="1.1"
   id="svg8"
   inkscape:version="0.92.4 (5da689c313, 2019-01-14)"
   sodipodi:docname="numbers.svg">
  <defs
     id="defs2" />
  <sodipodi:namedview
     id="base"
     pagecolor="#ffffff"
     bordercolor="#666666"
     borderopacity="1.0"
     inkscape:pageopacity="0.0"
     inkscape:pageshadow="2"
     inkscape:zoom="0.35355339"
     inkscape:cx="620.42914"
     inkscape:cy="1114.0924"
     inkscape:document-units="mm"
     inkscape:current-layer="layer1"
     showgrid="false"
     inkscape:window-width="926"
     inkscape:window-height="1048"
     inkscape:window-x="56"
     inkscape:window-y="0"
     inkscape:window-maximized="0" />
  <metadata
     id="metadata5">
    <rdf:RDF>
      <cc:Work
         rdf:about="">
        <dc:format>image/svg+xml</dc:format>
        <dc:type
           rdf:resource="http://purl.org/dc/dcmitype/StillImage" />
        <dc:title></dc:title>
      </cc:Work>
    </rdf:RDF>
  </metadata>
  <g
     inkscape:label="Layer 1"
     inkscape:groupmode="layer"
     id="layer1">
    <path
       inkscape:connector-curvature="0"
       id="path3717"
       style="font-style:normal;font-variant:normal;font-weight:bold;font-stretch:normal;font-size:42.33333206px;line-height:1.25;font-family:Consolas;-inkscape-font-specification:'Consolas Bold';letter-spacing:0px;word-spacing:0px;fill:#000000;fill-opacity:1;stroke:none;stroke-width:0.26458332"
       d="M 0.96184658,27.502975 V 23.017461 H 7.8451471 V 5.6541805 L 1.8506812,8.9614721 0.1970354,4.8480282 8.7753229,0.32117289 H 13.01279 V 23.017461 h 5.932454 v 4.485514 z" />
    <path
       inkscape:connector-curvature="0"
       id="path3719"
       style="font-style:normal;font-variant:normal;font-weight:bold;font-stretch:normal;font-size:42.33333206px;line-height:1.25;font-family:Consolas;-inkscape-font-specification:'Consolas Bold';letter-spacing:0px;word-spacing:0px;fill:#000000;fill-opacity:1;stroke:none;stroke-width:0.26458332"
       d="m 23.80283,27.502975 v -3.720703 l 6.387207,-6.387206 q 1.798339,-1.79834 2.873209,-3.100586 1.09554,-1.302246 1.674316,-2.315104 0.599447,-1.033529 0.785482,-1.901693 0.186035,-0.868164 0.186035,-1.7983398 0,-0.7648111 -0.248047,-1.44694 Q 35.212986,6.1296037 34.737562,5.63351 34.262139,5.1167457 33.538669,4.8273577 32.815199,4.5172991 31.885023,4.5172991 q -1.591634,0 -2.955891,0.7027994 -1.364258,0.6821289 -2.583822,1.839681 l -2.666504,-3.431315 q 1.756999,-1.6329752 3.94808,-2.6044921 2.211751,-0.99218752 4.774902,-0.99218752 1.984375,0 3.596679,0.51676431 1.612305,0.49609371 2.749186,1.48828121 1.157552,0.9921875 1.77767,2.4804687 0.640787,1.4882812 0.640787,3.431315 0,1.6123046 -0.434082,3.0179039 -0.434082,1.384928 -1.260905,2.707845 -0.826822,1.322916 -2.046386,2.645833 -1.198893,1.322916 -2.749186,2.790527 l -3.927409,3.741374 h 11.389485 v 4.650878 z" />
    <path
       inkscape:connector-curvature="0"
       id="path3721"
       style="font-style:normal;font-variant:normal;font-weight:bold;font-stretch:normal;font-size:42.33333206px;line-height:1.25;font-family:Consolas;-inkscape-font-specification:'Consolas Bold';letter-spacing:0px;word-spacing:0px;fill:#000000;fill-opacity:1;stroke:none;stroke-width:0.26458332"
       d="m 65.536716,19.255417 q 0,2.005046 -0.744141,3.61735 -0.74414,1.591634 -2.294433,2.728516 -1.529623,1.116211 -3.865397,1.715657 -2.335775,0.599447 -5.498373,0.599447 -0.702799,0 -1.488281,-0.04134 -0.764811,-0.02067 -1.529622,-0.08268 -0.764811,-0.04134 -1.488281,-0.124023 -0.72347,-0.06201 -1.302246,-0.165365 v -4.382161 q 1.302246,0.248047 2.91455,0.413412 1.632976,0.144694 3.389974,0.144694 1.715658,0 2.955892,-0.289388 1.240234,-0.289388 2.046387,-0.826823 0.806152,-0.558106 1.178222,-1.364258 0.392741,-0.806152 0.392741,-1.81901 0,-0.888835 -0.392741,-1.612305 -0.392741,-0.72347 -1.198893,-1.219564 -0.806152,-0.516764 -2.067057,-0.785482 -1.240234,-0.289388 -2.955892,-0.289388 H 50.591892 V 11.62798 h 2.749186 q 1.612305,0 2.666504,-0.310059 1.07487,-0.330729 1.694987,-0.868164 0.640788,-0.5374346 0.909505,-1.2609046 0.268718,-0.7441406 0.268718,-1.5502929 0,-1.6536458 -1.07487,-2.5011393 -1.07487,-0.868164 -3.327962,-0.868164 -1.612305,0 -3.183268,0.3100586 -1.570964,0.3100586 -3.24528,0.8268229 V 1.1686664 q 0.930175,-0.31005863 1.777669,-0.51676435 0.847493,-0.20670572 1.694987,-0.35139973 0.847493,-0.144694 1.715657,-0.20670572 0.868164,-0.06201172 1.79834,-0.06201172 2.232422,0 3.906738,0.47542317 1.694987,0.47542316 2.831869,1.36425775 1.157552,0.8681641 1.736328,2.129069 0.578776,1.2609049 0.578776,2.8111978 0,2.4597981 -1.136882,3.9894204 -1.116211,1.508952 -3.141927,2.315104 1.302246,0.206706 2.356446,0.72347 1.054199,0.496094 1.798339,1.302246 0.764812,0.785482 1.157552,1.819011 0.413412,1.033528 0.413412,2.294433 z" />
    <path
       inkscape:connector-curvature="0"
       id="path3723"
       style="font-style:normal;font-variant:normal;font-weight:bold;font-stretch:normal;font-size:42.33333206px;line-height:1.25;font-family:Consolas;-inkscape-font-specification:'Consolas Bold';letter-spacing:0px;word-spacing:0px;fill:#000000;fill-opacity:1;stroke:none;stroke-width:0.26458332"
       d="m 86.062595,22.004603 v 5.498372 H 81.142999 V 22.004603 H 68.575291 V 17.684454 L 79.117283,0.48653747 h 6.945312 V 17.56043 h 4.092773 v 4.444173 z M 81.20501,5.3647925 73.515557,17.56043 h 7.689453 z" />
    <path
       inkscape:connector-curvature="0"
       id="path3725"
       style="font-style:normal;font-variant:normal;font-weight:bold;font-stretch:normal;font-size:42.33333206px;line-height:1.25;font-family:Consolas;-inkscape-font-specification:'Consolas Bold';letter-spacing:0px;word-spacing:0px;fill:#000000;fill-opacity:1;stroke:none;stroke-width:0.26458332"
       d="m 111.88014,18.862676 q 0,2.17041 -0.9095,3.865397 -0.90951,1.674317 -2.52181,2.831869 -1.61231,1.157552 -3.80339,1.756998 -2.19108,0.599447 -4.754232,0.599447 -0.640787,0 -1.364257,-0.04134 -0.72347,-0.04134 -1.467611,-0.103353 -0.744141,-0.06201 -1.44694,-0.165365 -0.7028,-0.08268 -1.302246,-0.186035 v -4.402832 q 1.178222,0.289388 2.707845,0.475423 1.529622,0.165365 3.121261,0.165365 3.10058,0 4.71289,-1.178223 1.63297,-1.198893 1.63297,-3.307291 0,-2.191081 -1.50895,-3.24528 -1.50895,-1.07487 -4.87826,-1.07487 H 94.806248 V 0.48653747 H 110.39186 V 5.2407691 H 99.519138 v 5.4983719 h 1.943032 q 2.06706,0 3.94808,0.372071 1.88102,0.37207 3.30729,1.302246 1.44694,0.909505 2.29444,2.480468 0.86816,1.570964 0.86816,3.96875 z" />
    <path
       inkscape:connector-curvature="0"
       id="path3727"
       style="font-style:normal;font-variant:normal;font-weight:bold;font-stretch:normal;font-size:42.33333206px;line-height:1.25;font-family:Consolas;-inkscape-font-specification:'Consolas Bold';letter-spacing:0px;word-spacing:0px;fill:#000000;fill-opacity:1;stroke:none;stroke-width:0.26458332"
       d="m 136.08538,18.945359 q 0,2.046386 -0.74414,3.720703 -0.74414,1.653645 -2.06706,2.852539 -1.30224,1.178222 -3.12125,1.81901 -1.81901,0.640788 -3.98942,0.640788 -4.73356,0 -7.2347,-2.976563 -2.50114,-2.976562 -2.50114,-9.095052 0,-2.232421 0.26871,-4.237467 0.26872,-2.025716 0.88884,-3.7207029 0.64079,-1.7156575 1.69499,-3.1005859 1.07487,-1.3849283 2.6665,-2.3357746 1.59163,-0.9715169 3.76204,-1.4882812 2.17041,-0.53743493 5.04362,-0.53743493 h 3.07992 V 4.7653459 h -3.59668 q -2.23242,0 -3.74137,0.4547526 -1.50896,0.4547526 -2.4598,1.3022461 -0.95085,0.8474934 -1.42627,2.0670572 -0.47543,1.2195638 -0.62012,2.7491862 l -0.0413,0.496094 q 1.07487,-0.516765 2.43913,-0.847494 1.38493,-0.330729 2.89388,-0.330729 2.19108,0 3.84472,0.578776 1.65365,0.558106 2.74919,1.632975 1.11621,1.07487 1.65365,2.604492 0.5581,1.529623 0.5581,3.472657 z m -5.25032,0.227376 q 0,-0.950846 -0.24805,-1.736328 -0.24805,-0.806153 -0.78548,-1.364258 -0.51677,-0.578776 -1.34359,-0.888835 -0.80615,-0.330729 -1.94303,-0.330729 -0.66146,0 -1.32292,0.124024 -0.64079,0.103353 -1.26091,0.289388 -0.59944,0.186035 -1.15755,0.413411 -0.53743,0.227376 -0.97151,0.475423 0,2.087728 0.28938,3.534668 0.28939,1.42627 0.86817,2.335775 0.59944,0.909505 1.46761,1.322916 0.88883,0.392741 2.04639,0.392741 0.99218,0 1.79833,-0.330729 0.80616,-0.330729 1.36426,-0.930176 0.57878,-0.620117 0.88884,-1.44694 0.31006,-0.847493 0.31006,-1.860351 z" />
    <path
       inkscape:connector-curvature="0"
       id="path3729"
       style="font-style:normal;font-variant:normal;font-weight:bold;font-stretch:normal;font-size:42.33333206px;line-height:1.25;font-family:Consolas;-inkscape-font-specification:'Consolas Bold';letter-spacing:0px;word-spacing:0px;fill:#000000;fill-opacity:1;stroke:none;stroke-width:0.26458332"
       d="m 147.82627,27.502975 h -5.70508 L 152.86989,5.3647925 H 139.90944 V 0.48653747 h 18.76888 V 4.8893694 Z" />
    <path
       inkscape:connector-curvature="0"
       id="path3731"
       style="font-style:normal;font-variant:normal;font-weight:bold;font-stretch:normal;font-size:42.33333206px;line-height:1.25;font-family:Consolas;-inkscape-font-specification:'Consolas Bold';letter-spacing:0px;word-spacing:0px;fill:#000000;fill-opacity:1;stroke:none;stroke-width:0.26458332"
       d="m 177.15781,13.198939 q 1.01286,0.558106 1.92236,1.240235 0.93018,0.661458 1.61231,1.550293 0.7028,0.868164 1.09554,1.984375 0.41341,1.09554 0.41341,2.501139 0,1.839681 -0.74414,3.24528 -0.74414,1.405599 -2.06706,2.356445 -1.30224,0.950846 -3.07991,1.426269 -1.757,0.475424 -3.80339,0.475424 -2.27376,0 -4.03076,-0.475424 -1.73633,-0.496093 -2.93522,-1.384928 -1.17822,-0.888834 -1.79834,-2.149739 -0.59945,-1.260905 -0.59945,-2.811198 0,-1.384929 0.39274,-2.459798 0.41341,-1.095541 1.11621,-1.984375 0.7028,-0.888835 1.61231,-1.591634 0.93017,-0.7028 1.9637,-1.302246 -0.93017,-0.537435 -1.757,-1.178223 -0.80615,-0.640788 -1.42627,-1.44694 -0.62011,-0.806152 -0.99218,-1.7983399 -0.3514,-0.9921874 -0.3514,-2.2530923 0,-1.4676107 0.5581,-2.7491862 0.57878,-1.302246 1.69499,-2.2737629 1.13688,-0.9715169 2.83187,-1.52962237 1.71566,-0.55810545 4.01009,-0.55810545 2.1084,0 3.76204,0.45475259 1.65365,0.43408202 2.76986,1.26090493 1.13688,0.8268229 1.71566,1.9843749 0.59944,1.1368815 0.59944,2.5218098 0,1.2815755 -0.3514,2.3151041 -0.3514,1.0335287 -0.95084,1.8810218 -0.59945,0.826823 -1.42627,1.508952 -0.82682,0.661458 -1.757,1.240234 z m -3.96875,-1.943033 q 0.74414,-0.413412 1.38493,-0.868164 0.66146,-0.4754236 1.13688,-1.033529 0.47542,-0.5581055 0.76481,-1.2195638 0.28939,-0.6614583 0.28939,-1.4676106 0,-1.3435872 -1.0542,-2.0463867 -1.0542,-0.7027994 -3.03857,-0.7027994 -1.94304,0 -2.99724,0.72347 -1.0542,0.72347 -1.0542,2.1704101 0,0.7854817 0.3514,1.4055989 0.3514,0.6201172 0.97152,1.1575521 0.62012,0.5167643 1.44694,0.9715164 0.84749,0.454753 1.79834,0.909506 z m -1.0542,4.568196 q -0.80615,0.434082 -1.52962,0.930176 -0.7028,0.496094 -1.24024,1.09554 -0.51676,0.599447 -0.82682,1.322917 -0.31006,0.702799 -0.31006,1.591634 0,1.570963 1.21957,2.397786 1.21956,0.826823 3.22461,0.826823 0.9095,0 1.71565,-0.186035 0.80616,-0.186035 1.4056,-0.578776 0.62012,-0.392741 0.97152,-0.992187 0.3514,-0.620118 0.3514,-1.467611 0,-0.868164 -0.39274,-1.550293 -0.39274,-0.702799 -1.07487,-1.281576 -0.68213,-0.578776 -1.59164,-1.09554 -0.9095,-0.516764 -1.92236,-1.012858 z" />
    <path
       inkscape:connector-curvature="0"
       id="path3733"
       style="font-style:normal;font-variant:normal;font-weight:bold;font-stretch:normal;font-size:42.33333206px;line-height:1.25;font-family:Consolas;-inkscape-font-specification:'Consolas Bold';letter-spacing:0px;word-spacing:0px;fill:#000000;fill-opacity:1;stroke:none;stroke-width:0.26458332"
       d="m 205.47649,12.392787 q 0,3.183268 -0.53743,5.560384 -0.53744,2.356445 -1.52962,4.030762 -0.97152,1.674316 -2.33578,2.749186 -1.36426,1.07487 -3.03857,1.694987 -1.65365,0.620117 -3.55534,0.847493 -1.88102,0.227376 -3.90674,0.227376 h -3.12125 v -4.320149 h 3.67936 q 2.41845,0 4.03076,-0.413412 1.63297,-0.434082 2.62516,-1.240234 1.01286,-0.826823 1.48828,-2.046387 0.4961,-1.219563 0.66146,-2.811197 l 0.0413,-0.516765 q -1.09554,0.516765 -2.50114,0.847494 -1.4056,0.330729 -2.83187,0.330729 -1.9637,0 -3.576,-0.454753 -1.61231,-0.454752 -2.79053,-1.44694 -1.15755,-0.992187 -1.79834,-2.563151 -0.64079,-1.591634 -0.64079,-3.8240556 0,-2.0257161 0.72347,-3.6793619 0.74414,-1.6743163 2.04639,-2.8525389 1.32291,-1.1782227 3.12125,-1.8190104 1.81901,-0.66145832 3.96875,-0.66145832 2.1084,0 3.88607,0.5994466 1.79834,0.59944662 3.10059,2.04638662 1.32291,1.4262695 2.04638,3.8033853 0.74414,2.3771159 0.74414,5.9117836 z M 195.45127,4.2692522 q -0.99219,0 -1.79834,0.3307292 -0.80616,0.3307291 -1.38493,0.9301757 -0.55811,0.5994466 -0.86817,1.4469401 -0.31005,0.8268229 -0.31005,1.8603515 0,2.1910803 1.15755,3.2659503 1.15755,1.054199 3.20394,1.054199 0.5581,0 1.17822,-0.103353 0.64079,-0.103352 1.2609,-0.289388 0.64079,-0.186035 1.1989,-0.413411 0.57877,-0.248047 1.01286,-0.516764 0,-1.8396813 -0.24805,-3.2452802 -0.22738,-1.4055989 -0.78548,-2.3564452 -0.53744,-0.9715169 -1.42627,-1.4676107 -0.88884,-0.4960937 -2.19108,-0.4960937 z" />
    <path
       inkscape:connector-curvature="0"
       id="path3735"
       style="font-style:normal;font-variant:normal;font-weight:bold;font-stretch:normal;font-size:42.33333206px;line-height:1.25;font-family:Consolas;-inkscape-font-specification:'Consolas Bold';letter-spacing:0px;word-spacing:0px;fill:#000000;fill-opacity:1;stroke:none;stroke-width:0.26458332"
       d="m 229.8471,13.881068 c 0,2.218641 -0.24116,4.203016 -0.72347,5.953125 -0.48231,1.750109 -1.192,3.2315 -2.12907,4.444173 -0.92329,1.198893 -2.05328,2.115289 -3.38997,2.749186 -1.3367,0.633898 -2.86632,0.950847 -4.58887,0.950847 -1.48828,0 -2.85943,-0.261827 -4.11344,-0.785482 -1.25402,-0.523655 -2.33578,-1.343587 -3.24528,-2.459798 -0.90951,-1.129991 -1.6192,-2.570041 -2.12907,-4.32015 -0.50987,-1.750109 -0.76481,-3.844727 -0.76481,-6.283854 0,-2.218641 0.24116,-4.2030162 0.72347,-5.9531246 0.49609,-1.7501085 1.20578,-3.2246093 2.12907,-4.4235025 0.92328,-1.2126736 2.06016,-2.1359592 3.41064,-2.76985669 1.35048,-0.63389755 2.8801,-0.95084633 4.58887,-0.95084633 1.48828,0 2.85943,0.26182725 4.11344,0.78548175 1.25401,0.52365447 2.32888,1.34358717 3.22461,2.45979807 0.90951,1.1162109 1.6192,2.5493706 2.12907,4.2994791 0.50987,1.7501081 0.76481,3.8516162 0.76481,6.3045242 z M 224.018,8.1553198 c -0.4216,-1.1157197 -1.1231,-2.3702257 -1.92236,-3.0179036 -0.78549,-0.6614583 -1.71566,-0.9921874 -2.79053,-0.9921874 -0.7717,0 -1.48828,0.1998155 -2.14974,0.5994466 -0.66146,0.3858507 -1.24024,0.9852973 -1.73633,1.7983398 -0.48231,0.8130425 -0.86816,1.8327907 -1.15755,3.0592447 -0.27561,1.2264541 -0.41341,2.6802841 -0.41341,4.3614911 v -3e-6 0.785481 c 0,0.234267 0.0139,0.483481 0.0413,0.72347 0.17057,1.493456 0.22893,3.039765 0.76479,4.444171 0.41711,1.093162 1.06109,2.328885 1.86035,2.976563 0.79926,0.647678 1.72944,0.971517 2.79053,0.971517 0.7717,0 1.48828,-0.199816 2.14974,-0.599447 0.67524,-0.399631 1.25402,-0.999077 1.73633,-1.79834 0.49609,-0.813042 0.88194,-1.83279 1.15755,-3.059244 0.27561,-1.240235 0.41341,-2.694065 0.41341,-4.361491 h 6e-5 c 0,-0.234267 -0.007,-0.468533 -0.0207,-0.7028 -0.0138,-0.248047 9.3e-4,-0.469431 -0.0207,-0.702799 -0.13968,-1.506949 -0.16778,-3.0698036 -0.70274,-4.4855092 z"
       sodipodi:nodetypes="ssccsccssccssscssacscccccsaassccccccaa" />
    <path
       inkscape:connector-curvature="0"
       id="path3717-7"
       style="font-style:normal;font-variant:normal;font-weight:bold;font-stretch:normal;font-size:42.33333206px;line-height:1.25;font-family:Consolas;-inkscape-font-specification:'Consolas Bold';letter-spacing:0px;word-spacing:0px;fill:#000000;fill-opacity:1;stroke:none;stroke-width:0.26458332"
       d="M 8.4302493,56.208379 8.2966145,34.568786 2.3021486,37.876078 0.6485028,33.762634 9.2267906,29.235779 h 4.2374674 l 0.01181,26.968895 z"
       sodipodi:nodetypes="cccccccc" />
    <path
       inkscape:connector-curvature="0"
       id="path3717-1"
       style="font-style:normal;font-variant:normal;font-weight:bold;font-stretch:normal;font-size:42.33333206px;line-height:1.25;font-family:Consolas;-inkscape-font-specification:'Consolas Bold';letter-spacing:0px;word-spacing:0px;fill:#000000;fill-opacity:1;stroke:none;stroke-width:0.26458332"
       d="m 8.3062259,57.66152 5.1698421,-0.0016 v 22.696288 h 5.932454 v 4.485514 l -17.983398,-5e-6 V 80.35617 h 6.8833005 z"
       sodipodi:nodetypes="ccccccccc" />
    <path
       inkscape:connector-curvature="0"
       id="path3723-1"
       style="font-style:normal;font-variant:normal;font-weight:bold;font-stretch:normal;font-size:42.33333206px;line-height:1.25;font-family:Consolas;-inkscape-font-specification:'Consolas Bold';letter-spacing:0px;word-spacing:0px;fill:#000000;fill-opacity:1;stroke:none;stroke-width:0.26458332"
       d="m 81.479,29.094908 h 4.857848 v 17.073893 h 4.092773 v 4.444173 h -4.092773 v 5.498371 H 81.417252 V 50.612974 H 68.849544 V 46.169 l 4.940266,-1.99e-4 h 7.689453 C 81.479346,40.477503 81.479,29.094908 81.479,29.094908 Z"
       sodipodi:nodetypes="cccccccccccccc" />
    <path
       inkscape:connector-curvature="0"
       id="path3723-1-7"
       style="font-style:normal;font-variant:normal;font-weight:bold;font-stretch:normal;font-size:42.33333206px;line-height:1.25;font-family:Consolas;-inkscape-font-specification:'Consolas Bold';letter-spacing:0px;word-spacing:0px;fill:#000000;fill-opacity:1;stroke:none;stroke-width:0.26458332"
       d="M 81.677701,74.7438 V 62.548162 L 73.988248,74.7438 69.047982,74.867824 79.589974,57.669907 h 6.945312 V 74.7438 79.187973 84.686344 H 81.61569 Z"
       sodipodi:nodetypes="ccccccccccc" />
    <path
       inkscape:connector-curvature="0"
       id="path3731-8"
       style="font-style:normal;font-variant:normal;font-weight:bold;font-stretch:normal;font-size:42.33333206px;line-height:1.25;font-family:Consolas;-inkscape-font-specification:'Consolas Bold';letter-spacing:0px;word-spacing:0px;fill:#000000;fill-opacity:1;stroke:none;stroke-width:0.26458332"
       d="m 167.53499,44.136882 c -0.62011,-0.35829 -1.20578,-0.751031 -1.757,-1.178223 -0.53743,-0.427192 -1.01286,-0.909505 -1.42627,-1.44694 -0.41341,-0.537435 -0.74413,-1.136881 -0.99218,-1.79834 -0.23427,-0.661458 -0.3514,-1.412489 -0.3514,-2.253092 0,-0.978407 0.18603,-1.894803 0.5581,-2.749186 0.38585,-0.868164 0.95085,-1.626085 1.69499,-2.273763 0.75792,-0.647678 1.70188,-1.157552 2.83187,-1.529623 1.14377,-0.37207 2.48047,-0.558105 4.01009,-0.558105 1.4056,0 2.65961,0.151584 3.76204,0.454753 1.10243,0.289388 2.02572,0.709689 2.76986,1.260904 0.75792,0.551215 1.32981,1.212674 1.71566,1.984376 l -5.33301,0.888834 c -0.7028,-0.468533 -1.71566,-0.702799 -3.03857,-0.702799 -1.29536,0 -2.29444,0.241157 -2.99724,0.72347 -0.7028,0.482313 -1.0542,1.205783 -1.0542,2.17041 0,0.523654 0.11713,0.992187 0.3514,1.405599 0.23427,0.413411 0.55811,0.799262 0.97152,1.157552 0.41341,0.344509 0.89573,0.668348 1.44694,0.971516 0.56499,0.303169 1.16444,0.606337 1.79834,0.909506 l 3.96875,1.943033 c 0.67524,0.372071 1.31603,0.785482 1.92236,1.240235 0.62012,0.440972 1.15756,0.957736 1.61231,1.550293 0.46853,0.578776 0.83371,1.240234 1.09554,1.984375 0.27561,0.73036 0.41341,1.564073 0.41341,2.501139 0,1.226454 -0.24805,2.308214 -0.74414,3.24528 -0.49609,0.937067 -1.18511,1.722548 -2.06706,2.356445 -0.86816,0.633898 -1.8948,1.109321 -3.07991,1.426269 -1.17133,0.31695 -2.43913,0.475425 -3.80339,0.475425 -1.51584,0 -2.85943,-0.158475 -4.03076,-0.475425 -1.15755,-0.330729 -2.13596,-0.792372 -2.93522,-1.384928 -0.78548,-0.592556 -1.38493,-1.309136 -1.79834,-2.149739 l 5.70508,-0.806153 c 0.81304,0.551215 1.88791,0.826823 3.22461,0.826823 0.60633,0 1.17822,-0.06201 1.71565,-0.186035 0.53744,-0.124023 1.00597,-0.316949 1.4056,-0.578776 0.41341,-0.261827 0.73725,-0.592556 0.97152,-0.992187 0.23427,-0.413412 0.3514,-0.902616 0.3514,-1.467611 0,-0.578776 -0.13091,-1.09554 -0.39274,-1.550293 -0.26183,-0.468533 -0.62012,-0.895725 -1.07487,-1.281576 -0.45475,-0.385851 -0.9853,-0.751031 -1.59164,-1.09554 -0.60633,-0.344509 -1.24712,-0.682129 -1.92236,-1.012858 z"
       sodipodi:nodetypes="ccccscccsccccsssscccccccssccsccccscccscsccc" />
    <path
       inkscape:connector-curvature="0"
       id="path3731-1"
       style="font-style:normal;font-variant:normal;font-weight:bold;font-stretch:normal;font-size:42.33333206px;line-height:1.25;font-family:Consolas;-inkscape-font-specification:'Consolas Bold';letter-spacing:0px;word-spacing:0px;fill:#000000;fill-opacity:1;stroke:none;stroke-width:0.26458332"
       d="m 170.91256,76.833594 c -0.53743,0.289388 -1.04731,0.599447 -1.52962,0.930176 -0.46853,0.330729 -0.88195,0.695909 -1.24024,1.09554 -0.34451,0.399631 -0.62011,0.840604 -0.82682,1.322917 -0.20671,0.468533 -0.31006,0.999077 -0.31006,1.591634 0,1.047309 0.40652,1.846571 1.21957,2.397786 0.81304,0.551215 1.88791,0.826823 3.22461,0.826823 0.60633,0 1.17822,-0.06201 1.71565,-0.186035 0.53744,-0.124023 1.00597,-0.316949 1.4056,-0.578776 0.41341,-0.261827 0.73725,-0.592556 0.97152,-0.992187 l 4.69222,1.488281 c -0.49609,0.937067 -1.18511,1.722548 -2.06706,2.356445 -0.86816,0.633898 -1.8948,1.109321 -3.07991,1.426269 -1.17133,0.31695 -2.43913,0.475425 -3.80339,0.475425 -1.51584,0 -2.85943,-0.158475 -4.03076,-0.475425 -1.15755,-0.330729 -2.13596,-0.792372 -2.93522,-1.384928 -0.78548,-0.592556 -1.38493,-1.309136 -1.79834,-2.149739 -0.39963,-0.840603 -0.59945,-1.777669 -0.59945,-2.811198 0,-0.923286 0.13091,-1.743219 0.39274,-2.459798 0.27561,-0.730361 0.64768,-1.391819 1.11621,-1.984375 0.46853,-0.592557 1.00597,-1.123101 1.61231,-1.591634 0.62011,-0.468533 1.27468,-0.902615 1.9637,-1.302246 l 4.96094,-2.563151 c 0.49609,-0.275608 0.95774,-0.564996 1.38493,-0.868164 0.44097,-0.316949 0.81993,-0.661458 1.13688,-1.033529 0.31695,-0.37207 0.57188,-0.778591 0.76481,-1.219564 0.19293,-0.440972 0.28939,-0.930175 0.28939,-1.46761 0,-0.895725 -0.3514,-1.577854 -1.0542,-2.046387 -0.7028,-0.468533 -1.71566,-0.702799 -3.03857,-0.702799 -1.29536,0 -2.29444,0.241157 -2.99724,0.72347 l -3.7207,-2.52181 c 0.75792,-0.647678 1.70188,-1.157552 2.83187,-1.529623 1.14377,-0.37207 2.48047,-0.558105 4.01009,-0.558105 1.4056,0 2.65961,0.151584 3.76204,0.454753 1.10243,0.289388 2.02572,0.709689 2.76986,1.260904 0.75792,0.551215 1.32981,1.212674 1.71566,1.984376 0.39963,0.757921 0.59944,1.598524 0.59944,2.521809 0,0.854384 -0.11713,1.626085 -0.3514,2.315104 -0.23427,0.689019 -0.55121,1.316027 -0.95084,1.881022 -0.39963,0.551215 -0.87506,1.054199 -1.42627,1.508952 -0.55121,0.440972 -1.13688,0.854383 -1.757,1.240234 z"
       sodipodi:nodetypes="ccccscsccccccscccscsccccssssscccscccsscccc" />
    <path
       inkscape:connector-curvature="0"
       id="path3735-9"
       style="font-style:normal;font-variant:normal;font-weight:bold;font-stretch:normal;font-size:42.33333206px;line-height:1.25;font-family:Consolas;-inkscape-font-specification:'Consolas Bold';letter-spacing:0px;word-spacing:0px;fill:#000000;fill-opacity:1;stroke:none;stroke-width:0.26458332"
       d="m 215.36534,49.687264 c 0.41711,1.093162 1.06109,2.328885 1.86035,2.976563 0.79926,0.647678 1.72944,0.971517 2.79053,0.971517 0.7717,0 1.48828,-0.199816 2.14974,-0.599447 0.67524,-0.399631 1.25402,-0.999077 1.73633,-1.79834 0.49609,-0.813042 0.88194,-1.83279 1.15755,-3.059244 0.27561,-1.240235 0.41341,-2.694065 0.41341,-4.361491 h 6e-5 c 0,-0.234267 -0.007,-0.468533 -0.0207,-0.7028 -0.0138,-0.248047 9.2e-4,-0.469431 -0.0207,-0.702799 -0.13968,-1.506949 -0.16778,-3.069803 -0.70274,-4.485509 -0.4216,-1.115719 -1.1231,-2.370225 -1.92236,-3.017904 -0.78549,-0.661458 -1.40594,-0.992187 -2.48081,-0.992187 l 3.4e-4,-4.113444 c 1.48828,0 2.85943,0.261827 4.11344,0.785482 1.25401,0.523654 2.32888,1.343587 3.22461,2.459798 0.90951,1.116211 1.6192,2.549371 2.12907,4.299479 0.50987,1.750108 0.76481,3.851616 0.76481,6.304524 0,2.218641 -0.24116,4.203016 -0.72347,5.953125 -0.48231,1.750109 -1.192,3.2315 -2.12907,4.444174 -0.92329,1.198892 -2.05328,2.115288 -3.38997,2.749186 -1.3367,0.633897 -2.86632,0.950847 -4.58887,0.950847 -1.48828,0 -2.85943,-0.261827 -4.11344,-0.785482 -1.25402,-0.523656 -2.33578,-1.343588 -3.24528,-2.459799 -0.90951,-1.129991 -1.6192,-3.066404 -2.12907,-4.816513 z"
       sodipodi:nodetypes="cssccccccaacccscsssccscccc" />
    <path
       inkscape:connector-curvature="0"
       id="path3735-9-3"
       style="font-style:normal;font-variant:normal;font-weight:bold;font-stretch:normal;font-size:42.33333206px;line-height:1.25;font-family:Consolas;-inkscape-font-specification:'Consolas Bold';letter-spacing:0px;word-spacing:0px;fill:#000000;fill-opacity:1;stroke:none;stroke-width:0.26458332"
       d="m 225.13494,78.977508 c -0.41711,1.093162 -1.06109,2.328885 -1.86035,2.976563 -0.79926,0.647678 -1.72944,0.971517 -2.79053,0.971517 -0.7717,0 -1.48828,-0.199816 -2.14974,-0.599447 -0.67524,-0.399631 -1.25402,-0.999077 -1.73633,-1.79834 -0.49609,-0.813042 -0.88194,-1.83279 -1.15755,-3.059244 -0.27561,-1.240235 -0.41341,-2.694065 -0.41341,-4.361491 h -6e-5 c 0,-0.234267 0.007,-0.468533 0.0207,-0.7028 0.0138,-0.248047 -9.3e-4,-0.469431 0.0207,-0.702799 0.13968,-1.506949 0.16778,-3.069802 0.70274,-4.485508 0.4216,-1.115719 1.1231,-2.370225 1.92236,-3.017905 0.78549,-0.661457 1.40594,-0.992187 2.48081,-0.992187 l -3.4e-4,-4.113444 c -1.48828,0 -2.85943,0.261827 -4.11344,0.785482 -1.25401,0.523654 -2.32888,1.343587 -3.22461,2.459798 -0.90951,1.116212 -1.6192,2.549371 -2.12907,4.29948 -0.50987,1.750107 -0.76481,3.851615 -0.76481,6.304523 0,2.218641 0.24116,4.203016 0.72347,5.953125 0.48231,1.750109 1.192,3.2315 2.12907,4.444174 0.92329,1.198892 2.05328,2.115288 3.38997,2.749186 1.3367,0.633897 2.86632,0.950847 4.58887,0.950847 1.48828,0 2.85943,-0.261827 4.11344,-0.785482 1.25402,-0.523656 2.33578,-1.343588 3.24528,-2.459799 0.90951,-1.129991 1.6192,-3.066404 2.12907,-4.816513 z"
       sodipodi:nodetypes="cssccccccaacccscsssccscccc" />
  </g>
</svg>
