<?xml version="1.0" encoding="UTF-8" standalone="no"?>
<!-- Created with Inkscape (http://www.inkscape.org/) -->

<svg
   xmlns:dc="http://purl.org/dc/elements/1.1/"
   xmlns:cc="http://creativecommons.org/ns#"
   xmlns:rdf="http://www.w3.org/1999/02/22-rdf-syntax-ns#"
   xmlns:svg="http://www.w3.org/2000/svg"
   xmlns="http://www.w3.org/2000/svg"
   xmlns:sodipodi="http://sodipodi.sourceforge.net/DTD/sodipodi-0.dtd"
   xmlns:inkscape="http://www.inkscape.org/namespaces/inkscape"
   width="7.6275887mm"
   height="10.807734mm"
   viewBox="0 0 7.6275887 10.807734"
   version="1.1"
   id="svg8"
   inkscape:version="0.92.4 (5da689c313, 2019-01-14)"
   sodipodi:docname="C1-1.svg">
  <defs
     id="defs2" />
  <sodipodi:namedview
     id="base"
     pagecolor="#ffffff"
     bordercolor="#666666"
     borderopacity="1.0"
     inkscape:pageopacity="0.0"
     inkscape:pageshadow="2"
     inkscape:zoom="8"
     inkscape:cx="-27.065893"
     inkscape:cy="-1.6956786"
     inkscape:document-units="in"
     inkscape:current-layer="layer1"
     showgrid="false"
     fit-margin-top="0"
     fit-margin-left="0"
     fit-margin-right="0"
     fit-margin-bottom="0"
     inkscape:window-width="1858"
     inkscape:window-height="1057"
     inkscape:window-x="54"
     inkscape:window-y="1072"
     inkscape:window-maximized="1" />
  <metadata
     id="metadata5">
    <rdf:RDF>
      <cc:Work
         rdf:about="">
        <dc:format>image/svg+xml</dc:format>
        <dc:type
           rdf:resource="http://purl.org/dc/dcmitype/StillImage" />
        <dc:title />
      </cc:Work>
    </rdf:RDF>
  </metadata>
  <g
     inkscape:label="Layer 1"
     inkscape:groupmode="layer"
     id="layer1"
     transform="translate(-4.9678743,-81.928032)">
    <path
       style="font-style:normal;font-variant:normal;font-weight:bold;font-stretch:normal;font-size:16.93333244px;line-height:125%;font-family:Consolas;-inkscape-font-specification:'Consolas Bold';letter-spacing:0px;word-spacing:0px;fill:#000000;fill-opacity:1;stroke:none;stroke-width:0.26458332px;stroke-linecap:butt;stroke-linejoin:miter;stroke-opacity:1"
       d="m 9.9453482,92.735762 c -0.7661891,0 -1.4579645,-0.129535 -2.0753255,-0.388607 C 7.2581738,92.093596 6.7372753,91.721526 6.3073274,91.230944 5.8773795,90.745875 5.5466504,90.147807 5.3151399,89.436739 5.0836295,88.731183 4.9678743,87.923653 4.9678743,87.014148 c 0,-0.887456 0.1047311,-1.667427 0.3141927,-2.339909 0.214974,-0.666971 0.5264108,-1.226454 0.9343099,-1.678451 0.4134115,-0.451996 0.9177734,-0.79375 1.5130859,-1.02526 0.033558,-0.01262 0.070279,-0.02116 0.1043866,-0.03307 h 4.0044066 c 0.247172,0.07452 0.497963,0.162012 0.752927,0.264583 v 1.901693 c -0.181901,-0.08268 -0.380339,-0.165365 -0.595314,-0.248047 -0.209462,-0.07717 -0.424436,-0.146072 -0.644922,-0.206706 -0.214974,-0.05512 -0.429948,-0.101973 -0.644922,-0.14056 -0.209462,-0.03307 -0.405143,-0.04961 -0.587044,-0.04961 -0.5071181,0 -0.9453342,0.08268 -1.3146484,0.248047 -0.3693141,0.170877 -0.6724824,0.416168 -0.9095052,0.735872 -0.2370225,0.319706 -0.4134114,0.708313 -0.5291666,1.165821 -0.1102429,0.463021 -0.1653646,0.986675 -0.1653646,1.570963 0,0.551216 0.055122,1.055577 0.1653646,1.513086 0.1102431,0.463021 0.2811197,0.859896 0.5126302,1.190625 0.2370224,0.336241 0.5374348,0.595313 0.9012369,0.777214 0.3638021,0.187413 0.8020185,0.281119 1.3146481,0.281119 0.347266,0 0.733117,-0.04685 1.157552,-0.14056 0.424437,-0.09371 0.87092,-0.250803 1.339455,-0.471289 v 2.017448 c -0.231511,0.07717 -0.454753,0.140563 -0.669728,0.19017 -0.214974,0.04961 -0.427192,0.08819 -0.636654,0.115755 -0.209462,0.03307 -0.424436,0.05512 -0.644922,0.06615 -0.214973,0.01103 -0.446484,0.01654 -0.6945308,0.01654 z"
       id="path4534"
       inkscape:connector-curvature="0" />
  </g>
</svg>
