<?xml version="1.0" encoding="UTF-8" standalone="no"?>
<!-- Created with Inkscape (http://www.inkscape.org/) -->

<svg
   xmlns:dc="http://purl.org/dc/elements/1.1/"
   xmlns:cc="http://creativecommons.org/ns#"
   xmlns:rdf="http://www.w3.org/1999/02/22-rdf-syntax-ns#"
   xmlns:svg="http://www.w3.org/2000/svg"
   xmlns="http://www.w3.org/2000/svg"
   xmlns:sodipodi="http://sodipodi.sourceforge.net/DTD/sodipodi-0.dtd"
   xmlns:inkscape="http://www.inkscape.org/namespaces/inkscape"
   width="7.5069118mm"
   height="10.80658mm"
   viewBox="0 0 7.5069117 10.80658"
   version="1.1"
   id="svg8"
   inkscape:version="0.92.4 (5da689c313, 2019-01-14)"
   sodipodi:docname="P1-1.svg">
  <defs
     id="defs2" />
  <sodipodi:namedview
     id="base"
     pagecolor="#ffffff"
     bordercolor="#666666"
     borderopacity="1.0"
     inkscape:pageopacity="0.0"
     inkscape:pageshadow="2"
     inkscape:zoom="4"
     inkscape:cx="-73.517014"
     inkscape:cy="-35.790437"
     inkscape:document-units="in"
     inkscape:current-layer="layer1"
     showgrid="false"
     fit-margin-top="0"
     fit-margin-left="0"
     fit-margin-right="0"
     fit-margin-bottom="0"
     inkscape:window-width="1858"
     inkscape:window-height="1057"
     inkscape:window-x="54"
     inkscape:window-y="1072"
     inkscape:window-maximized="1" />
  <metadata
     id="metadata5">
    <rdf:RDF>
      <cc:Work
         rdf:about="">
        <dc:format>image/svg+xml</dc:format>
        <dc:type
           rdf:resource="http://purl.org/dc/dcmitype/StillImage" />
        <dc:title />
      </cc:Work>
    </rdf:RDF>
  </metadata>
  <g
     inkscape:label="Layer 1"
     inkscape:groupmode="layer"
     id="layer1">
    <path
       inkscape:connector-curvature="0"
       id="path4560"
       style="font-style:normal;font-variant:normal;font-weight:bold;font-stretch:normal;font-size:16.93333244px;line-height:125%;font-family:Consolas;-inkscape-font-specification:'Consolas Bold';letter-spacing:0px;word-spacing:0px;fill:#000000;fill-opacity:1;stroke:none;stroke-width:0.26458332px;stroke-linecap:butt;stroke-linejoin:miter;stroke-opacity:1"
       d="M 7.4993 7.367 Q 7.4993 8.1938 7.2099 8.8305 Q 6.9288 9.4754 6.3748 9.9136 Q 5.8291 10.3518 5.0188 10.5751 Q 4.2168 10.8066 3.1667 10.8066 H 0 V 0 H 2.0505 V 3.4727 H 3.0841 Q 4.1755 3.4727 5.0023 3.7621 Q 5.8291 4.0514 6.3831 4.5723 Q 6.9371 5.0932 7.2182 5.8043 Q 7.4993 6.5236 7.4993 7.367 Z M 5.3661 7.2264 Q 5.3661 6.7552 5.2173 6.3748 Q 5.0767 5.9945 4.7956 5.7216 Q 4.5227 5.4488 4.1176 5.2999 Q 3.7124 5.1594 3.1833 5.1594 H 2.0505 V 9.1199 H 3.1171 Q 3.6959 9.1199 4.1176 8.9876 Q 4.5393 8.8553 4.8121 8.6072 Q 5.0932 8.3592 5.2255 8.0037 Q 5.3661 7.6564 5.3661 7.2264 Z" />
  </g>
</svg>
