<?xml version="1.0" encoding="UTF-8" standalone="no"?>
<!-- Created with Inkscape (http://www.inkscape.org/) -->

<svg
   xmlns:dc="http://purl.org/dc/elements/1.1/"
   xmlns:cc="http://creativecommons.org/ns#"
   xmlns:rdf="http://www.w3.org/1999/02/22-rdf-syntax-ns#"
   xmlns:svg="http://www.w3.org/2000/svg"
   xmlns="http://www.w3.org/2000/svg"
   xmlns:sodipodi="http://sodipodi.sourceforge.net/DTD/sodipodi-0.dtd"
   xmlns:inkscape="http://www.inkscape.org/namespaces/inkscape"
   width="7.8713164mm"
   height="10.806576mm"
   viewBox="0 0 7.8713164 10.806576"
   version="1.1"
   id="svg8"
   inkscape:version="0.92.4 (5da689c313, 2019-01-14)"
   sodipodi:docname="U2-1.svg">
  <defs
     id="defs2" />
  <sodipodi:namedview
     id="base"
     pagecolor="#ffffff"
     bordercolor="#666666"
     borderopacity="1.0"
     inkscape:pageopacity="0.0"
     inkscape:pageshadow="2"
     inkscape:zoom="2"
     inkscape:cx="-287.01245"
     inkscape:cy="-121.1092"
     inkscape:document-units="in"
     inkscape:current-layer="layer1"
     showgrid="false"
     fit-margin-top="0"
     fit-margin-left="0"
     fit-margin-right="0"
     fit-margin-bottom="0"
     inkscape:window-width="1858"
     inkscape:window-height="1057"
     inkscape:window-x="54"
     inkscape:window-y="1072"
     inkscape:window-maximized="1" />
  <metadata
     id="metadata5">
    <rdf:RDF>
      <cc:Work
         rdf:about="">
        <dc:format>image/svg+xml</dc:format>
        <dc:type
           rdf:resource="http://purl.org/dc/dcmitype/StillImage" />
        <dc:title />
      </cc:Work>
    </rdf:RDF>
  </metadata>
  <g
     inkscape:label="Layer 1"
     inkscape:groupmode="layer"
     id="layer1"
     transform="translate(-172.90491,-134.10171)">
    <path
       style="font-style:normal;font-variant:normal;font-weight:bold;font-stretch:normal;font-size:16.93333244px;line-height:125%;font-family:Consolas;-inkscape-font-specification:'Consolas Bold';letter-spacing:0px;word-spacing:0px;fill:#000000;fill-opacity:1;stroke:none;stroke-width:0.26458332px;stroke-linecap:butt;stroke-linejoin:miter;stroke-opacity:1"
       d="m 172.90491,144.90829 v -7.16856 c 0,-0.5898 0.0689,-1.12172 0.2067,-1.59577 0.13781,-0.47404 0.36105,-0.87643 0.66973,-1.20716 0.30868,-0.33073 0.71107,-0.58429 1.20716,-0.76067 0.0797,-0.0283 0.16629,-0.0506 0.25115,-0.0744 h 2.95847 c 0.0829,0.0238 0.16677,0.0461 0.2465,0.0744 0.49609,0.17638 0.91502,0.43821 1.25677,0.78548 0.34727,0.34726 0.61185,0.77997 0.79375,1.29811 0.098,0.27377 0.16874,0.57143 0.21549,0.89038 h -2.02623 c -0.0162,-0.10067 -0.0347,-0.19753 -0.0579,-0.2868 -0.0772,-0.29765 -0.19292,-0.54295 -0.34726,-0.73587 -0.15434,-0.18741 -0.34727,-0.32522 -0.57878,-0.41341 -0.23151,-0.0827 -0.51539,-0.12403 -0.85163,-0.12403 -0.35829,0 -0.65594,0.0496 -0.89297,0.14883 -0.23701,0.0992 -0.43545,0.24529 -0.59531,0.43822 -0.15435,0.19844 -0.26459,0.43821 -0.33073,0.71933 -0.0606,0.28112 -0.091,0.60359 -0.091,0.96739 v 7.04453 z"
       id="path4570-38"
       inkscape:connector-curvature="0" />
  </g>
</svg>
