<?xml version="1.0" encoding="UTF-8" standalone="no"?>
<!-- Created with Inkscape (http://www.inkscape.org/) -->

<svg
   xmlns:dc="http://purl.org/dc/elements/1.1/"
   xmlns:cc="http://creativecommons.org/ns#"
   xmlns:rdf="http://www.w3.org/1999/02/22-rdf-syntax-ns#"
   xmlns:svg="http://www.w3.org/2000/svg"
   xmlns="http://www.w3.org/2000/svg"
   xmlns:sodipodi="http://sodipodi.sourceforge.net/DTD/sodipodi-0.dtd"
   xmlns:inkscape="http://www.inkscape.org/namespaces/inkscape"
   width="210mm"
   height="297mm"
   viewBox="0 0 210 297"
   version="1.1"
   id="svg8"
   inkscape:version="0.92.4 (5da689c313, 2019-01-14)"
   sodipodi:docname="02-2.svg">
  <defs
     id="defs2" />
  <sodipodi:namedview
     id="base"
     pagecolor="#ffffff"
     bordercolor="#666666"
     borderopacity="1.0"
     inkscape:pageopacity="0.0"
     inkscape:pageshadow="2"
     inkscape:zoom="2.8284271"
     inkscape:cx="-12.845852"
     inkscape:cy="991.96769"
     inkscape:document-units="mm"
     inkscape:current-layer="layer1"
     showgrid="false"
     inkscape:window-width="926"
     inkscape:window-height="1048"
     inkscape:window-x="56"
     inkscape:window-y="0"
     inkscape:window-maximized="0" />
  <metadata
     id="metadata5">
    <rdf:RDF>
      <cc:Work
         rdf:about="">
        <dc:format>image/svg+xml</dc:format>
        <dc:type
           rdf:resource="http://purl.org/dc/dcmitype/StillImage" />
        <dc:title></dc:title>
      </cc:Work>
    </rdf:RDF>
  </metadata>
  <g
     inkscape:label="Layer 1"
     inkscape:groupmode="layer"
     id="layer1">
    <path
       inkscape:connector-curvature="0"
       id="path3735"
       style="font-style:normal;font-variant:normal;font-weight:bold;font-stretch:normal;font-size:42.33333206px;line-height:1.25;font-family:Consolas;-inkscape-font-specification:'Consolas Bold';letter-spacing:0px;word-spacing:0px;fill:#000000;fill-opacity:1;stroke:none;stroke-width:0.26458332"
       d="M 10.8521 26.9958 C 12.3403 26.9958 13.7115 26.734 14.9655 26.2103 C 16.2195 25.6866 17.2944 24.8667 18.1901 23.7505 C 19.0996 22.6343 19.8093 21.2011 20.3192 19.451 C 20.8291 17.7009 21.084 15.5994 21.084 13.1465 C 21.084 10.9279 20.8428 8.9435 20.3605 7.1934 C 19.8782 5.4433 19.1685 3.9619 18.2315 2.7492 C 17.3082 1.5503 16.1782 0.6339 14.8415 0 H 6.1392 C 4.8852 0.3583 3.8034 1.1782 2.8939 2.2944 C 1.9844 3.4244 1.2747 4.8645 0.7648 6.6146 L 5.8911 7.1107 C 6.3082 6.0175 6.9522 4.7818 7.7514 4.1341 C 8.5507 3.4865 9.4809 3.1626 10.5419 3.1626 C 11.3136 3.1626 12.0302 3.3624 12.6917 3.7621 C 13.3669 4.1617 13.9457 4.7611 14.428 5.5604 C 14.9241 6.3734 15.31 7.3932 15.5856 8.6196 C 15.8612 9.8599 15.999 11.3137 15.999 12.9811 V 12.9811 C 15.999 13.2154 15.992 13.4497 15.9783 13.6839 C 15.9645 13.932 15.9793 14.1534 15.9576 14.3867 C 15.818 15.8937 15.7899 17.4565 15.2549 18.8722 C 14.8333 19.988 14.1318 21.2425 13.3325 21.8902 C 12.547 22.5516 11.6169 22.8823 10.542 22.8823 Z"
       sodipodi:nodetypes="csscssccscccassccccccaacc" />
  </g>
</svg>
