<?xml version="1.0" encoding="UTF-8" standalone="no"?>
<!-- Created with Inkscape (http://www.inkscape.org/) -->

<svg
   xmlns:dc="http://purl.org/dc/elements/1.1/"
   xmlns:cc="http://creativecommons.org/ns#"
   xmlns:rdf="http://www.w3.org/1999/02/22-rdf-syntax-ns#"
   xmlns:svg="http://www.w3.org/2000/svg"
   xmlns="http://www.w3.org/2000/svg"
   xmlns:sodipodi="http://sodipodi.sourceforge.net/DTD/sodipodi-0.dtd"
   xmlns:inkscape="http://www.inkscape.org/namespaces/inkscape"
   width="210mm"
   height="297mm"
   viewBox="0 0 210 297"
   version="1.1"
   id="svg8"
   inkscape:version="0.92.4 (5da689c313, 2019-01-14)"
   sodipodi:docname="81-1.svg">
  <defs
     id="defs2" />
  <sodipodi:namedview
     id="base"
     pagecolor="#ffffff"
     bordercolor="#666666"
     borderopacity="1.0"
     inkscape:pageopacity="0.0"
     inkscape:pageshadow="2"
     inkscape:zoom="0.70710678"
     inkscape:cx="348.56782"
     inkscape:cy="833.20435"
     inkscape:document-units="mm"
     inkscape:current-layer="layer1"
     showgrid="false"
     inkscape:window-width="926"
     inkscape:window-height="1048"
     inkscape:window-x="56"
     inkscape:window-y="0"
     inkscape:window-maximized="0" />
  <metadata
     id="metadata5">
    <rdf:RDF>
      <cc:Work
         rdf:about="">
        <dc:format>image/svg+xml</dc:format>
        <dc:type
           rdf:resource="http://purl.org/dc/dcmitype/StillImage" />
        <dc:title></dc:title>
      </cc:Work>
    </rdf:RDF>
  </metadata>
  <g
     inkscape:label="Layer 1"
     inkscape:groupmode="layer"
     id="layer1">
    <path
       inkscape:connector-curvature="0"
       id="path3731"
       style="font-style:normal;font-variant:normal;font-weight:bold;font-stretch:normal;font-size:42.33333206px;line-height:1.25;font-family:Consolas;-inkscape-font-specification:'Consolas Bold';letter-spacing:0px;word-spacing:0px;fill:#000000;fill-opacity:1;stroke:none;stroke-width:0.26458332"
       d="M 8.9917 11.6789 Q 10.0046 11.1828 10.9141 10.666 Q 11.8236 10.1493 12.5057 9.5705 Q 13.1879 8.9917 13.5806 8.2889 Q 13.9733 7.6068 13.9733 6.7386 Q 13.9733 5.8911 13.6219 5.271 Q 13.2705 4.6715 12.6504 4.2788 Q 12.051 3.886 11.2448 3.7 Q 10.4387 3.514 9.5292 3.514 Q 7.5242 3.514 6.3046 4.3408 Q 5.085 5.1676 5.085 6.7386 Q 5.085 7.6274 5.3951 8.3302 Q 5.7051 9.0537 6.2219 9.6531 Q 6.7593 10.2525 7.4621 10.7486 Q 8.1855 11.2447 8.9917 11.6788 Z M 10.0458 16.247 Q 9.095 16.7017 8.2475 17.1565 Q 7.4207 17.6112 6.8006 18.128 Q 6.1805 18.6655 5.8291 19.2856 Q 5.4777 19.9057 5.4777 20.6912 Q 5.4777 22.1381 6.5319 22.8616 Q 7.5861 23.5851 9.5291 23.5851 Q 11.5135 23.5851 12.5677 22.8823 Q 13.6219 22.1795 13.6219 20.8359 Q 13.6219 20.0298 13.3325 19.3683 Q 13.0431 18.7068 12.5677 18.1487 Q 12.0923 17.5906 11.4308 17.1152 Q 10.79 16.6604 10.0459 16.247 Z M 14.0146 14.3038 Q 14.9448 14.8825 15.7716 15.544 Q 16.5984 16.2262 17.1979 17.053 Q 17.7973 17.9005 18.1487 18.934 Q 18.5001 19.9675 18.5001 21.2491 Q 18.5001 22.634 17.9007 23.7709 Q 17.3219 24.9285 16.185 25.7553 Q 15.0688 26.5821 13.4151 27.0162 Q 11.7615 27.471 9.6531 27.471 Q 7.3587 27.471 5.643 26.9129 Q 3.948 26.3548 2.8111 25.3833 Q 1.6949 24.4117 1.1161 23.1095 Q 0.558 21.8279 0.558 20.3603 Q 0.558 19.0994 0.9094 18.1072 Q 1.2815 17.1151 1.9016 16.3089 Q 2.5217 15.5028 3.3279 14.862 Q 4.1547 14.2212 5.0849 13.6838 Q 4.0514 13.0844 3.1212 12.3816 Q 2.2117 11.6788 1.5089 10.79 Q 0.8061 9.9011 0.3927 8.8056 Q 0.0 7.7307 0.0 6.3458 Q 0.0 4.7955 0.5995 3.5346 Q 1.2196 2.2737 2.3978 1.3849 Q 3.5967 0.4961 5.333 -0.0 H 13.1672 Q 14.9449 0.4755 16.2471 1.4263 Q 17.5701 2.3771 18.3142 3.7827 Q 19.0583 5.1883 19.0583 7.028 Q 19.0583 8.4336 18.6449 9.5291 Q 18.2522 10.6453 17.5494 11.5135 Q 16.8673 12.4023 15.9371 13.0638 Q 15.0276 13.7459 14.0147 14.304 Z" />
  </g>
</svg>
