<?xml version="1.0" encoding="UTF-8" standalone="no"?>
<!-- Created with Inkscape (http://www.inkscape.org/) -->

<svg
   xmlns:dc="http://purl.org/dc/elements/1.1/"
   xmlns:cc="http://creativecommons.org/ns#"
   xmlns:rdf="http://www.w3.org/1999/02/22-rdf-syntax-ns#"
   xmlns:svg="http://www.w3.org/2000/svg"
   xmlns="http://www.w3.org/2000/svg"
   xmlns:sodipodi="http://sodipodi.sourceforge.net/DTD/sodipodi-0.dtd"
   xmlns:inkscape="http://www.inkscape.org/namespaces/inkscape"
   width="210mm"
   height="297mm"
   viewBox="0 0 210 297"
   version="1.1"
   id="svg8"
   inkscape:version="0.92.4 (5da689c313, 2019-01-14)"
   sodipodi:docname="82-1.svg">
  <defs
     id="defs2" />
  <sodipodi:namedview
     id="base"
     pagecolor="#ffffff"
     bordercolor="#666666"
     borderopacity="1.0"
     inkscape:pageopacity="0.0"
     inkscape:pageshadow="2"
     inkscape:zoom="4"
     inkscape:cx="-2.7546555"
     inkscape:cy="1022.4208"
     inkscape:document-units="mm"
     inkscape:current-layer="layer1"
     showgrid="false"
     inkscape:window-width="926"
     inkscape:window-height="1048"
     inkscape:window-x="56"
     inkscape:window-y="0"
     inkscape:window-maximized="0" />
  <metadata
     id="metadata5">
    <rdf:RDF>
      <cc:Work
         rdf:about="">
        <dc:format>image/svg+xml</dc:format>
        <dc:type
           rdf:resource="http://purl.org/dc/dcmitype/StillImage" />
        <dc:title></dc:title>
      </cc:Work>
    </rdf:RDF>
  </metadata>
  <g
     inkscape:label="Layer 1"
     inkscape:groupmode="layer"
     id="layer1">
    <path
       inkscape:connector-curvature="0"
       id="path3731-8"
       style="font-style:normal;font-variant:normal;font-weight:bold;font-stretch:normal;font-size:42.33333206px;line-height:1.25;font-family:Consolas;-inkscape-font-specification:'Consolas Bold';letter-spacing:0px;word-spacing:0px;fill:#000000;fill-opacity:1;stroke:none;stroke-width:0.26458332"
       d="m 5.0850001,13.6839 c -0.6201,0.3583 -1.2058,0.751 -1.757,1.1782 -0.5374,0.4272 -1.0129,0.9095 -1.4263,1.447 -0.4134,0.5374 -0.7441,1.1368 -0.9921,1.7983 -0.2343,0.6615 -0.3514,1.4125 -0.3514,2.2531 0,0.9784 0.186,1.8948 0.5581,2.7492 0.3858,0.8681 0.9508,1.6261 1.6949,2.2737 0.758,0.6477 1.7019,1.1576 2.8319,1.5297 1.1438,0.372 2.4805,0.5581 4.0101,0.5581 1.4055999,0 2.6595999,-0.1516 3.7619999,-0.4548 1.1025,-0.2894 2.0258,-0.7097 2.7699,-1.2609 0.7579,-0.5512 1.3298,-1.2127 1.7157,-1.9844 l -5.3331,-0.8888 c -0.7028,0.4685 -1.7156,0.7028 -3.0384999,0.7028 -1.2954,0 -2.2945,-0.2412 -2.9973,-0.7235 -0.7028,-0.4823 -1.0542,-1.2057 -1.0542,-2.1704 0,-0.5236 0.1172,-0.9922 0.3514,-1.4056 0.2343,-0.4134 0.5581,-0.7992 0.9716,-1.1575 0.4134,-0.3445 0.8957,-0.6684 1.4469,-0.9715 0.565,-0.3032 1.1644,-0.6064 1.7982999,-0.9095 l 3.9688,-1.9431 c 0.6752,-0.3721 1.316,-0.7855 1.9223,-1.2402 0.6202,-0.441 1.1576,-0.9578 1.6124,-1.5503 0.4685,-0.5788 0.8337,-1.2402 1.0955,-1.9844 0.2756,-0.7303 0.4134,-1.5641 0.4134,-2.5011 0,-1.2265 -0.248,-2.3082 -0.7441,-3.2453 C 17.8181,2.8456 17.1291,2.0601 16.2471,1.4263 15.3789,0.7924 14.3523,0.3169 13.1672,0 H 5.3330001 c -1.1575,0.3307 -2.1359,0.7924 -2.9352,1.3849 -0.7855,0.5926 -1.3849,1.3091 -1.7983,2.1497 l 5.7051,0.8062 c 0.813,-0.5512 1.8879,-0.8268 3.2246,-0.8268 0.6062999,0 1.1781999,0.062 1.7155999,0.186 0.5375,0.124 1.006,0.317 1.4056,0.5788 0.4134,0.2618 0.7373,0.5925 0.9715,0.9922 0.2343,0.4134 0.3514,0.9026 0.3514,1.4676 0,0.5788 -0.1309,1.0955 -0.3927,1.5503 -0.2618,0.4685 -0.6201,0.8957 -1.0749,1.2816 -0.4547,0.3858 -0.9853,0.751 -1.5916,1.0955 -0.6063,0.3445 -1.2470999,0.6821 -1.9223999,1.0129 z"
       sodipodi:nodetypes="ccccscccsccccsssscccccccssccsccccscccscsccc" />
  </g>
</svg>
