<?xml version="1.0" encoding="UTF-8" standalone="no"?>
<!-- Created with Inkscape (http://www.inkscape.org/) -->

<svg
   xmlns:dc="http://purl.org/dc/elements/1.1/"
   xmlns:cc="http://creativecommons.org/ns#"
   xmlns:rdf="http://www.w3.org/1999/02/22-rdf-syntax-ns#"
   xmlns:svg="http://www.w3.org/2000/svg"
   xmlns="http://www.w3.org/2000/svg"
   xmlns:sodipodi="http://sodipodi.sourceforge.net/DTD/sodipodi-0.dtd"
   xmlns:inkscape="http://www.inkscape.org/namespaces/inkscape"
   width="210mm"
   height="297mm"
   viewBox="0 0 210 297"
   version="1.1"
   id="svg8"
   inkscape:version="0.92.4 (5da689c313, 2019-01-14)"
   sodipodi:docname="82-2.svg">
  <defs
     id="defs2" />
  <sodipodi:namedview
     id="base"
     pagecolor="#ffffff"
     bordercolor="#666666"
     borderopacity="1.0"
     inkscape:pageopacity="0.0"
     inkscape:pageshadow="2"
     inkscape:zoom="0.70710678"
     inkscape:cx="574.84199"
     inkscape:cy="833.20435"
     inkscape:document-units="mm"
     inkscape:current-layer="layer1"
     showgrid="false"
     inkscape:window-width="926"
     inkscape:window-height="1048"
     inkscape:window-x="56"
     inkscape:window-y="0"
     inkscape:window-maximized="0" />
  <metadata
     id="metadata5">
    <rdf:RDF>
      <cc:Work
         rdf:about="">
        <dc:format>image/svg+xml</dc:format>
        <dc:type
           rdf:resource="http://purl.org/dc/dcmitype/StillImage" />
        <dc:title></dc:title>
      </cc:Work>
    </rdf:RDF>
  </metadata>
  <g
     inkscape:label="Layer 1"
     inkscape:groupmode="layer"
     id="layer1">
    <path
       inkscape:connector-curvature="0"
       id="path3731-1"
       style="font-style:normal;font-variant:normal;font-weight:bold;font-stretch:normal;font-size:42.33333206px;line-height:1.25;font-family:Consolas;-inkscape-font-specification:'Consolas Bold';letter-spacing:0px;word-spacing:0px;fill:#000000;fill-opacity:1;stroke:none;stroke-width:0.26458332"
       d="M 8.9918 11.6788 C 8.4544 11.3894 7.9445 11.0794 7.4622 10.7486 C 6.9937 10.4179 6.5802 10.0527 6.222 9.6531 C 5.8775 9.2535 5.6019 8.8125 5.3952 8.3302 C 5.1885 7.8617 5.0851 7.3311 5.0851 6.7386 C 5.0851 5.6913 5.4916 4.892 6.3047 4.3408 C 7.1177 3.7896 8.1926 3.514 9.5293 3.514 C 10.1356 3.514 10.7075 3.576 11.2449 3.7 C 11.7823 3.824 12.2509 4.0169 12.6505 4.2788 C 13.0639 4.5406 13.3877 4.8714 13.622 5.271 L 18.3142 3.7827 C 17.8181 2.8456 17.1291 2.0602 16.2471 1.4263 C 15.3789 0.7924 14.3523 0.317 13.1672 0 L 5.333 0 C 4.1754 0.3307 3.197 0.7924 2.3978 1.3849 C 1.6123 1.9775 1.0129 2.694 0.5995 3.5346 C 0.1999 4.3752 -0 5.3123 -0 6.3458 C -0 7.2691 0.1309 8.089 0.3927 8.8056 C 0.6683 9.536 1.0404 10.1974 1.5089 10.79 C 1.9774 11.3826 2.5149 11.9131 3.1212 12.3816 C 3.7413 12.8501 4.3959 13.2842 5.0849 13.6838 L 10.0458 16.247 C 10.5419 16.5226 11.0035 16.812 11.4307 17.1152 C 11.8717 17.4321 12.2506 17.7767 12.5676 18.1487 C 12.8846 18.5208 13.1395 18.9273 13.3324 19.3683 C 13.5253 19.8093 13.6218 20.2985 13.6218 20.8359 C 13.6218 21.7316 13.2704 22.4138 12.5676 22.8823 C 11.8648 23.3508 10.8519 23.5851 9.529 23.5851 C 8.2336 23.5851 7.2346 23.3439 6.5318 22.8616 L 2.8111 25.3834 C 3.569 26.0311 4.513 26.541 5.643 26.913 C 6.7868 27.2851 8.1235 27.4711 9.6531 27.4711 C 11.0587 27.4711 12.3127 27.3195 13.4151 27.0163 C 14.5175 26.7269 15.4408 26.3066 16.185 25.7554 C 16.9429 25.2042 17.5148 24.5427 17.9007 23.771 C 18.3003 23.0131 18.5001 22.1725 18.5001 21.2492 C 18.5001 20.3948 18.383 19.6231 18.1487 18.9341 C 17.9144 18.2451 17.5975 17.6181 17.1979 17.0531 C 16.7983 16.5019 16.3228 15.9989 15.7716 15.5441 C 15.2204 15.1031 14.6347 14.6897 14.0146 14.3039 Z"
       sodipodi:nodetypes="ccccscsccccccscccscsccccssssscccscccsscccc" />
  </g>
</svg>
