<?xml version="1.0" encoding="UTF-8" standalone="no"?>
<!-- Created with Inkscape (http://www.inkscape.org/) -->

<svg
   xmlns:dc="http://purl.org/dc/elements/1.1/"
   xmlns:cc="http://creativecommons.org/ns#"
   xmlns:rdf="http://www.w3.org/1999/02/22-rdf-syntax-ns#"
   xmlns:svg="http://www.w3.org/2000/svg"
   xmlns="http://www.w3.org/2000/svg"
   xmlns:sodipodi="http://sodipodi.sourceforge.net/DTD/sodipodi-0.dtd"
   xmlns:inkscape="http://www.inkscape.org/namespaces/inkscape"
   width="7.6067801mm"
   height="10.807769mm"
   viewBox="0 0 7.60678 10.807769"
   version="1.1"
   id="svg8"
   inkscape:version="0.92.4 (5da689c313, 2019-01-14)"
   sodipodi:docname="B2-1.svg">
  <defs
     id="defs2" />
  <sodipodi:namedview
     id="base"
     pagecolor="#ffffff"
     bordercolor="#666666"
     borderopacity="1.0"
     inkscape:pageopacity="0.0"
     inkscape:pageshadow="2"
     inkscape:zoom="22.627417"
     inkscape:cx="14.29555"
     inkscape:cy="-0.73183695"
     inkscape:document-units="in"
     inkscape:current-layer="layer1"
     showgrid="false"
     fit-margin-top="0"
     fit-margin-left="0"
     fit-margin-right="0"
     fit-margin-bottom="0"
     inkscape:window-width="1858"
     inkscape:window-height="1057"
     inkscape:window-x="54"
     inkscape:window-y="1072"
     inkscape:window-maximized="1" />
  <metadata
     id="metadata5">
    <rdf:RDF>
      <cc:Work
         rdf:about="">
        <dc:format>image/svg+xml</dc:format>
        <dc:type
           rdf:resource="http://purl.org/dc/dcmitype/StillImage" />
        <dc:title />
      </cc:Work>
    </rdf:RDF>
  </metadata>
  <g
     inkscape:label="Layer 1"
     inkscape:groupmode="layer"
     id="layer1">
    <path
       inkscape:connector-curvature="0"
       id="path4532-8-5"
       style="font-style:normal;font-variant:normal;font-weight:bold;font-stretch:normal;font-size:16.93333244px;line-height:125%;font-family:Consolas;-inkscape-font-specification:'Consolas Bold';letter-spacing:0px;word-spacing:0px;fill:#000000;fill-opacity:1;stroke:none;stroke-width:0.26458332px;stroke-linecap:butt;stroke-linejoin:miter;stroke-opacity:1"
       d="M 2.0175 10.805 H 0 V 0 C 4.6936 -0.0001 5.7602 0.2755 6.4989 0.8267 C 7.2375 1.3835 7.6068 2.2131 7.6068 3.3155 C 7.6068 3.6627 7.5517 3.9769 7.4414 4.2581 C 7.3367 4.5392 7.1906 4.7817 7.0032 4.9857 C 6.8213 5.1951 6.6064 5.3633 6.3583 5.49 C 6.1158 5.6224 5.8595 5.7105 5.5894 5.7546 C 5.5894 5.7546 3.8521 6.26 3.2495 6.3334 C 2.6469 6.4068 2.0175 6.3334 2.0175 6.3334 V 10.805 Z M 2.0175 4.779 H 3.2825 C 4.0046 4.779 4.5393 4.6467 4.8866 4.3821 C 5.2393 4.1175 5.4157 3.751 5.4157 3.2825 C 5.4157 3.0565 5.3716 2.8442 5.2834 2.6458 C 5.2007 2.4474 5.0767 2.2737 4.9114 2.1249 C 4.746 1.9816 4.5393 1.8686 4.2912 1.7859 C 4.0487 1.7032 3.7648 1.6619 3.4396 1.6619 H 2.0175 Z"
       sodipodi:nodetypes="cczccccscsccccscccscsccs" />
  </g>
</svg>
