<?xml version="1.0" encoding="UTF-8" standalone="no"?>
<!-- Created with Inkscape (http://www.inkscape.org/) -->

<svg
   xmlns:dc="http://purl.org/dc/elements/1.1/"
   xmlns:cc="http://creativecommons.org/ns#"
   xmlns:rdf="http://www.w3.org/1999/02/22-rdf-syntax-ns#"
   xmlns:svg="http://www.w3.org/2000/svg"
   xmlns="http://www.w3.org/2000/svg"
   xmlns:sodipodi="http://sodipodi.sourceforge.net/DTD/sodipodi-0.dtd"
   xmlns:inkscape="http://www.inkscape.org/namespaces/inkscape"
   width="7.6067801mm"
   height="10.807769mm"
   viewBox="0 0 7.60678 10.807769"
   version="1.1"
   id="svg8"
   inkscape:version="0.92.4 (5da689c313, 2019-01-14)"
   sodipodi:docname="B2-1.svg">
  <defs
     id="defs2" />
  <sodipodi:namedview
     id="base"
     pagecolor="#ffffff"
     bordercolor="#666666"
     borderopacity="1.0"
     inkscape:pageopacity="0.0"
     inkscape:pageshadow="2"
     inkscape:zoom="4"
     inkscape:cx="-32.257292"
     inkscape:cy="-43.481498"
     inkscape:document-units="in"
     inkscape:current-layer="layer1"
     showgrid="false"
     fit-margin-top="0"
     fit-margin-left="0"
     fit-margin-right="0"
     fit-margin-bottom="0"
     inkscape:window-width="1858"
     inkscape:window-height="1057"
     inkscape:window-x="54"
     inkscape:window-y="1072"
     inkscape:window-maximized="1" />
  <metadata
     id="metadata5">
    <rdf:RDF>
      <cc:Work
         rdf:about="">
        <dc:format>image/svg+xml</dc:format>
        <dc:type
           rdf:resource="http://purl.org/dc/dcmitype/StillImage" />
        <dc:title />
      </cc:Work>
    </rdf:RDF>
  </metadata>
  <g
     inkscape:label="Layer 1"
     inkscape:groupmode="layer"
     id="layer1"
     transform="translate(3.9285915,-82.085129)">
    <path
       inkscape:connector-curvature="0"
       id="path4532-8-5"
       style="font-style:normal;font-variant:normal;font-weight:bold;font-stretch:normal;font-size:16.93333244px;line-height:125%;font-family:Consolas;-inkscape-font-specification:'Consolas Bold';letter-spacing:0px;word-spacing:0px;fill:#000000;fill-opacity:1;stroke:none;stroke-width:0.26458332px;stroke-linecap:butt;stroke-linejoin:miter;stroke-opacity:1"
       d="m -1.9111215,83.69862 v 2.8608 c 0,0 0.629363,-0.07342 1.23196998,0 0.60260694,0.07342 2.33989002,0.578788 2.33989002,0.578788 0.2701,0.04407 0.5264167,0.13226 0.76895,0.26458 0.2480467,0.12678 0.46302,0.294903 0.64492,0.50437 0.1874133,0.203947 0.3334867,0.44648 0.43822,0.7276 0.11024,0.28112 0.16536,0.595313 0.16536,0.94258 0,1.102427 -0.3693133,1.932007 -1.10794,2.48874 -0.7386267,0.551213 -1.80523001,0.82682 -3.19981002,0.82682 L -3.9285915,92.89286 V 82.08629 l 2.0173284,0.0015 m 1.42226158,9.14315 c 0.32521333,0 0.60908667,-0.04134 0.85162001,-0.12402 0.24804666,-0.08268 0.45475332,-0.19568 0.62011999,-0.339 0.16536672,-0.148827 0.28939002,-0.32246 0.37207002,-0.5209 0.088193,-0.198433 0.13229,-0.41065 0.13229,-0.63665 0,-0.468533 -0.1763867,-0.83509 -0.52916002,-1.09967 -0.34726666,-0.264587 -0.88194666,-0.39688 -1.60404,-0.39688 H -1.9111415 v 3.11712 z"
       sodipodi:nodetypes="cczccccscscccscccscsccs" />
  </g>
</svg>
