<?xml version="1.0" encoding="UTF-8" standalone="no"?>
<!-- Created with Inkscape (http://www.inkscape.org/) -->

<svg
   xmlns:dc="http://purl.org/dc/elements/1.1/"
   xmlns:cc="http://creativecommons.org/ns#"
   xmlns:rdf="http://www.w3.org/1999/02/22-rdf-syntax-ns#"
   xmlns:svg="http://www.w3.org/2000/svg"
   xmlns="http://www.w3.org/2000/svg"
   xmlns:sodipodi="http://sodipodi.sourceforge.net/DTD/sodipodi-0.dtd"
   xmlns:inkscape="http://www.inkscape.org/namespaces/inkscape"
   width="7.6067801mm"
   height="10.807772mm"
   viewBox="0 0 7.60678 10.807772"
   version="1.1"
   id="svg8"
   inkscape:version="0.92.4 (5da689c313, 2019-01-14)"
   sodipodi:docname="B2-2.svg">
  <defs
     id="defs2" />
  <sodipodi:namedview
     id="base"
     pagecolor="#ffffff"
     bordercolor="#666666"
     borderopacity="1.0"
     inkscape:pageopacity="0.0"
     inkscape:pageshadow="2"
     inkscape:zoom="8"
     inkscape:cx="10.939244"
     inkscape:cy="37.925586"
     inkscape:document-units="in"
     inkscape:current-layer="layer1"
     showgrid="false"
     fit-margin-top="0"
     fit-margin-left="0"
     fit-margin-right="0"
     fit-margin-bottom="0"
     inkscape:window-width="1858"
     inkscape:window-height="1057"
     inkscape:window-x="54"
     inkscape:window-y="1072"
     inkscape:window-maximized="1" />
  <metadata
     id="metadata5">
    <rdf:RDF>
      <cc:Work
         rdf:about="">
        <dc:format>image/svg+xml</dc:format>
        <dc:type
           rdf:resource="http://purl.org/dc/dcmitype/StillImage" />
        <dc:title />
      </cc:Work>
    </rdf:RDF>
  </metadata>
  <g
     inkscape:label="Layer 1"
     inkscape:groupmode="layer"
     id="layer1"
     transform="translate(3.9463184,-96.155243)">
    <path
       inkscape:connector-curvature="0"
       id="path4532-8-5-7"
       style="font-style:normal;font-variant:normal;font-weight:bold;font-stretch:normal;font-size:16.93333244px;line-height:125%;font-family:Consolas;-inkscape-font-specification:'Consolas Bold';letter-spacing:0px;word-spacing:0px;fill:#000000;fill-opacity:1;stroke:none;stroke-width:0.26458332px;stroke-linecap:butt;stroke-linejoin:miter;stroke-opacity:1"
       d="m -1.9288483,105.34951 v -2.86079 c 0,0 0.629363,0.0734 1.23197002,0 0.602607,-0.0734 2.33989008,-0.57879 2.33989008,-0.57879 0.2700999,-0.0441 0.5264165,-0.13226 0.76895,-0.26458 0.2480466,-0.12678 0.4630201,-0.29491 0.6449201,-0.50437 0.1874131,-0.20395 0.3334866,-0.44648 0.4382198,-0.7276 0.11024,-0.28112 0.1653601,-0.595317 0.1653601,-0.942577 0,-1.10243 -0.3693134,-1.93201 -1.1079401,-2.48874 -0.7386267,-0.55122 -1.80522978,-0.82682 -3.19980998,-0.82682 l -3.29903002,4e-5 v 10.806557 l 2.017328,-10e-4 m 1.42226202,-9.143137 c 0.325213,0 0.609087,0.0413 0.85162,0.12402 0.2480468,0.0827 0.4547533,0.19568 0.62012,0.339 0.16536668,0.14882 0.28939008,0.32246 0.37206998,0.5209 0.088193,0.19843 0.1322901,0.41065 0.1322901,0.63665 0,0.46853 -0.1763869,0.835087 -0.52915998,1.099667 -0.3472667,0.26458 -0.8819471,0.39688 -1.6040401,0.39688 H -1.9288683 v -3.117117 z"
       sodipodi:nodetypes="cczccccscscccscccscsccs" />
  </g>
</svg>
