<?xml version="1.0" encoding="UTF-8" standalone="no"?>
<!-- Created with Inkscape (http://www.inkscape.org/) -->

<svg
   xmlns:dc="http://purl.org/dc/elements/1.1/"
   xmlns:cc="http://creativecommons.org/ns#"
   xmlns:rdf="http://www.w3.org/1999/02/22-rdf-syntax-ns#"
   xmlns:svg="http://www.w3.org/2000/svg"
   xmlns="http://www.w3.org/2000/svg"
   xmlns:sodipodi="http://sodipodi.sourceforge.net/DTD/sodipodi-0.dtd"
   xmlns:inkscape="http://www.inkscape.org/namespaces/inkscape"
   width="7.6067705mm"
   height="10.807737mm"
   viewBox="0 0 7.6067705 10.807738"
   version="1.1"
   id="svg8"
   inkscape:version="0.92.4 (5da689c313, 2019-01-14)"
   sodipodi:docname="B3-1.svg">
  <defs
     id="defs2" />
  <sodipodi:namedview
     id="base"
     pagecolor="#ffffff"
     bordercolor="#666666"
     borderopacity="1.0"
     inkscape:pageopacity="0.0"
     inkscape:pageshadow="2"
     inkscape:zoom="11.313709"
     inkscape:cx="9.7633934"
     inkscape:cy="14.363565"
     inkscape:document-units="in"
     inkscape:current-layer="layer1"
     showgrid="false"
     fit-margin-top="0"
     fit-margin-left="0"
     fit-margin-right="0"
     fit-margin-bottom="0"
     inkscape:window-width="1858"
     inkscape:window-height="1057"
     inkscape:window-x="54"
     inkscape:window-y="1072"
     inkscape:window-maximized="1" />
  <metadata
     id="metadata5">
    <rdf:RDF>
      <cc:Work
         rdf:about="">
        <dc:format>image/svg+xml</dc:format>
        <dc:type
           rdf:resource="http://purl.org/dc/dcmitype/StillImage" />
        <dc:title />
      </cc:Work>
    </rdf:RDF>
  </metadata>
  <g
     inkscape:label="Layer 1"
     inkscape:groupmode="layer"
     id="layer1"
     transform="translate(3.4615853,-134.17199)">
    <path
       style="font-style:normal;font-variant:normal;font-weight:bold;font-stretch:normal;font-size:16.93333244px;line-height:125%;font-family:Consolas;-inkscape-font-specification:'Consolas Bold';letter-spacing:0px;word-spacing:0px;fill:#000000;fill-opacity:1;stroke:none;stroke-width:0.99999994px;stroke-linecap:butt;stroke-linejoin:miter;stroke-opacity:1"
       d="m 41.113281,197.54688 v 40.84374 h 7.632813 v -6.28124 h -0.0078 v -11.78126 h 0.0078 v -5.875 h -0.0078 v -10.8125 h 4.65625 c 1.229153,10e-6 2.270827,0.12505 3.125,0.375 0.875011,0.22917 1.583344,0.56249 2.125,1 0.562545,0.4375 0.968797,0.96875 1.21875,1.59376 0.249953,0.62498 0.375,1.3229 0.375,2.09374 0,0.79166 -0.125047,1.53126 -0.375,2.21876 -0.181678,0.54503 -0.472105,1.0427 -0.863281,1.49609 h 8.105469 c 0.330611,-0.64417 0.58353,-1.33017 0.757812,-2.05859 0.249953,-0.97915 0.375,-1.97915 0.375,-3 0,-3.29167 -1.166645,-5.75001 -3.5,-7.375 -2.312491,-1.625 -5.791679,-2.4375 -10.4375,-2.4375 z"
       id="path4532-7"
       transform="matrix(0.26458333,0,0,0.26458333,-14.339474,81.904382)"
       inkscape:connector-curvature="0" />
  </g>
</svg>
