<?xml version="1.0" encoding="UTF-8" standalone="no"?>
<!-- Created with Inkscape (http://www.inkscape.org/) -->

<svg
   xmlns:dc="http://purl.org/dc/elements/1.1/"
   xmlns:cc="http://creativecommons.org/ns#"
   xmlns:rdf="http://www.w3.org/1999/02/22-rdf-syntax-ns#"
   xmlns:svg="http://www.w3.org/2000/svg"
   xmlns="http://www.w3.org/2000/svg"
   xmlns:sodipodi="http://sodipodi.sourceforge.net/DTD/sodipodi-0.dtd"
   xmlns:inkscape="http://www.inkscape.org/namespaces/inkscape"
   width="7.606771mm"
   height="10.807734mm"
   viewBox="0 0 7.606771 10.807734"
   version="1.1"
   id="svg8"
   inkscape:version="0.92.4 (5da689c313, 2019-01-14)"
   sodipodi:docname="B3-2.svg">
  <defs
     id="defs2" />
  <sodipodi:namedview
     id="base"
     pagecolor="#ffffff"
     bordercolor="#666666"
     borderopacity="1.0"
     inkscape:pageopacity="0.0"
     inkscape:pageshadow="2"
     inkscape:zoom="4"
     inkscape:cx="-41.51927"
     inkscape:cy="-5.264991"
     inkscape:document-units="in"
     inkscape:current-layer="layer1"
     showgrid="false"
     fit-margin-top="0"
     fit-margin-left="0"
     fit-margin-right="0"
     fit-margin-bottom="0"
     inkscape:window-width="1858"
     inkscape:window-height="1057"
     inkscape:window-x="54"
     inkscape:window-y="1072"
     inkscape:window-maximized="1" />
  <metadata
     id="metadata5">
    <rdf:RDF>
      <cc:Work
         rdf:about="">
        <dc:format>image/svg+xml</dc:format>
        <dc:type
           rdf:resource="http://purl.org/dc/dcmitype/StillImage" />
        <dc:title />
      </cc:Work>
    </rdf:RDF>
  </metadata>
  <g
     inkscape:label="Layer 1"
     inkscape:groupmode="layer"
     id="layer1">
    <path
       style="font-style:normal;font-variant:normal;font-weight:bold;font-stretch:normal;font-size:16.93333244px;line-height:125%;font-family:Consolas;-inkscape-font-specification:'Consolas Bold';letter-spacing:0px;word-spacing:0px;fill:#000000;fill-opacity:1;stroke:none;stroke-width:0.26458332px;stroke-linecap:butt;stroke-linejoin:miter;stroke-opacity:1"
       d="M 0 10.8066 V 0 H 2.0174 V 1.6619 V 4.7791 H 3.2825 C 4.0046 4.7791 4.5393 4.6468 4.8865 4.3822 C 5.2392 4.1177 5.4156 3.7513 5.4157 3.283 H 5.4162 H 7.6052 C 7.6053 3.2942 7.6068 3.3044 7.6068 3.3156 C 7.6068 3.6629 7.5516 3.9771 7.4414 4.2582 C 7.3367 4.5393 7.1906 4.7819 7.0032 4.9858 C 6.8213 5.1953 6.6063 5.3634 6.3583 5.4902 C 6.1157 5.6225 5.8594 5.7107 5.5893 5.7548 C 5.8594 5.8485 6.0937 5.978 6.2921 6.1434 C 6.4906 6.3087 6.6559 6.4989 6.7882 6.7139 C 6.9205 6.9288 7.017 7.1631 7.0776 7.4167 C 7.1142 7.5599 7.1383 7.7052 7.1546 7.8518 L 5.0596 7.8468 C 5.0588 7.6403 5.0262 7.4471 4.9609 7.2675 C 4.9003 7.0856 4.7956 6.923 4.6467 6.7797 C 4.5034 6.6419 4.316 6.5316 4.0845 6.4489 C 3.8585 6.3717 3.5801 6.3332 3.2494 6.3332 H 2.0174 V 9.194 V 10.8063 Z"
       id="path4532"
       inkscape:connector-curvature="0" />
  </g>
</svg>
