<?xml version="1.0" encoding="UTF-8" standalone="no"?>
<!-- Created with Inkscape (http://www.inkscape.org/) -->

<svg
   xmlns:dc="http://purl.org/dc/elements/1.1/"
   xmlns:cc="http://creativecommons.org/ns#"
   xmlns:rdf="http://www.w3.org/1999/02/22-rdf-syntax-ns#"
   xmlns:svg="http://www.w3.org/2000/svg"
   xmlns="http://www.w3.org/2000/svg"
   xmlns:sodipodi="http://sodipodi.sourceforge.net/DTD/sodipodi-0.dtd"
   xmlns:inkscape="http://www.inkscape.org/namespaces/inkscape"
   width="7.606771mm"
   height="10.807734mm"
   viewBox="0 0 7.606771 10.807734"
   version="1.1"
   id="svg8"
   inkscape:version="0.92.4 (5da689c313, 2019-01-14)"
   sodipodi:docname="B3-2.svg">
  <defs
     id="defs2" />
  <sodipodi:namedview
     id="base"
     pagecolor="#ffffff"
     bordercolor="#666666"
     borderopacity="1.0"
     inkscape:pageopacity="0.0"
     inkscape:pageshadow="2"
     inkscape:zoom="4"
     inkscape:cx="1.10573"
     inkscape:cy="-5.264991"
     inkscape:document-units="in"
     inkscape:current-layer="layer1"
     showgrid="false"
     fit-margin-top="0"
     fit-margin-left="0"
     fit-margin-right="0"
     fit-margin-bottom="0"
     inkscape:window-width="1858"
     inkscape:window-height="1057"
     inkscape:window-x="54"
     inkscape:window-y="1072"
     inkscape:window-maximized="1" />
  <metadata
     id="metadata5">
    <rdf:RDF>
      <cc:Work
         rdf:about="">
        <dc:format>image/svg+xml</dc:format>
        <dc:type
           rdf:resource="http://purl.org/dc/dcmitype/StillImage" />
        <dc:title />
      </cc:Work>
    </rdf:RDF>
  </metadata>
  <g
     inkscape:label="Layer 1"
     inkscape:groupmode="layer"
     id="layer1"
     transform="translate(3.4848814,-146.03087)">
    <path
       style="font-style:normal;font-variant:normal;font-weight:bold;font-stretch:normal;font-size:16.93333244px;line-height:125%;font-family:Consolas;-inkscape-font-specification:'Consolas Bold';letter-spacing:0px;word-spacing:0px;fill:#000000;fill-opacity:1;stroke:none;stroke-width:0.26458332px;stroke-linecap:butt;stroke-linejoin:miter;stroke-opacity:1"
       d="m -3.4848813,146.03087 v 10.80657 h 2.0174481 v -1.66191 -3.11712 h 1.26503912 c 0.7220921,0 1.25677078,0.13229 1.60403638,0.39687 0.3526449,0.26449 0.5290339,0.63088 0.5291667,1.09916 h 5.167e-4 2.1890138 c 7.62e-5,-0.0112 0.00155,-0.0214 0.00155,-0.0326 0,-0.34726 -0.055121,-0.66146 -0.1653646,-0.94257 -0.1047308,-0.28112 -0.2508028,-0.52366 -0.4382161,-0.72761 -0.1819011,-0.20946 -0.396875,-0.37758 -0.6449219,-0.50436 -0.2425345,-0.13229 -0.4988496,-0.22048 -0.7689453,-0.26458 0.2700957,-0.0937 0.504362,-0.22325 0.7027995,-0.38861 0.1984375,-0.16536 0.3638021,-0.35553 0.4960937,-0.57051 0.1322922,-0.21497 0.2287548,-0.44924 0.289388,-0.7028 0.036568,-0.14322 0.060646,-0.28852 0.076998,-0.43511 l -2.0949626,0.005 c -8.318e-4,0.20644 -0.033399,0.39971 -0.098702,0.57929 -0.060633,0.1819 -0.1653646,0.34451 -0.3141927,0.48783 -0.1433158,0.1378 -0.33072918,0.24804 -0.56223958,0.33073 -0.2259981,0.0772 -0.504362,0.11575 -0.8350911,0.11575 H -1.4674334 v -2.86081 -1.6123 z"
       id="path4532"
       inkscape:connector-curvature="0" />
  </g>
</svg>
