<?xml version="1.0" encoding="UTF-8" standalone="no"?>
<!-- Created with Inkscape (http://www.inkscape.org/) -->

<svg
   xmlns:dc="http://purl.org/dc/elements/1.1/"
   xmlns:cc="http://creativecommons.org/ns#"
   xmlns:rdf="http://www.w3.org/1999/02/22-rdf-syntax-ns#"
   xmlns:svg="http://www.w3.org/2000/svg"
   xmlns="http://www.w3.org/2000/svg"
   xmlns:sodipodi="http://sodipodi.sourceforge.net/DTD/sodipodi-0.dtd"
   xmlns:inkscape="http://www.inkscape.org/namespaces/inkscape"
   width="7.6275887mm"
   height="10.807734mm"
   viewBox="0 0 7.6275887 10.807734"
   version="1.1"
   id="svg8"
   inkscape:version="0.92.4 (5da689c313, 2019-01-14)"
   sodipodi:docname="C1-1.svg">
  <defs
     id="defs2" />
  <sodipodi:namedview
     id="base"
     pagecolor="#ffffff"
     bordercolor="#666666"
     borderopacity="1.0"
     inkscape:pageopacity="0.0"
     inkscape:pageshadow="2"
     inkscape:zoom="8"
     inkscape:cx="-27.065893"
     inkscape:cy="-1.6956786"
     inkscape:document-units="in"
     inkscape:current-layer="layer1"
     showgrid="false"
     fit-margin-top="0"
     fit-margin-left="0"
     fit-margin-right="0"
     fit-margin-bottom="0"
     inkscape:window-width="1858"
     inkscape:window-height="1057"
     inkscape:window-x="54"
     inkscape:window-y="1072"
     inkscape:window-maximized="1" />
  <metadata
     id="metadata5">
    <rdf:RDF>
      <cc:Work
         rdf:about="">
        <dc:format>image/svg+xml</dc:format>
        <dc:type
           rdf:resource="http://purl.org/dc/dcmitype/StillImage" />
        <dc:title />
      </cc:Work>
    </rdf:RDF>
  </metadata>
  <g
     inkscape:label="Layer 1"
     inkscape:groupmode="layer"
     id="layer1"
    transform="translate(-12.41968575,-204.82008000000002)">
    <path
       style="font-style:normal;font-variant:normal;font-weight:bold;font-stretch:normal;font-size:16.93333244px;line-height:125%;font-family:Consolas;-inkscape-font-specification:'Consolas Bold';letter-spacing:0px;word-spacing:0px;fill:#000000;fill-opacity:1;stroke:none;stroke-width:0.26458332px;stroke-linecap:butt;stroke-linejoin:miter;stroke-opacity:1"
		d="m 24.8633705 231.839405 c -1.91547275 0.0 -3.6449112500000003 -0.3238375 -5.18831375 -0.9715174999999999 C 18.1454345 230.23399 16.84318825 229.303815 15.7683185 228.07736 14.69344875 226.8646875 13.866626 225.3695175 13.28784975 223.5918475 12.70907375 221.8279575 12.41968575 219.8091325 12.41968575 217.53537 c 0.0 -2.21864 0.26182774999999997 -4.1685675 0.78548175 -5.8497725 0.537435 -1.6674275 1.3160269999999998 -3.066135 2.33577475 -4.196127499999999 1.0335287499999999 -1.12999 2.2944335 -1.984375 3.7827147500000002 -2.5631500000000003 0.083895 -0.031549999999999995 0.17569749999999998 -0.0529 0.2609665 -0.082675 h 10.0110165 c 0.61793 0.18630000000000002 1.2449075 0.40503 1.8823175 0.6614575 v 4.7542325000000005 c -0.4547525 -0.2067 -0.9508475 -0.4134125 -1.488285 -0.6201175 -0.523655 -0.192925 -1.0610899999999999 -0.36518 -1.612305 -0.516765 -0.537435 -0.1378 -1.07487 -0.2549325 -1.612305 -0.3514 -0.523655 -0.082675 -1.0128575 -0.124025 -1.46761 -0.124025 -1.26779525 0.0 -2.3633355 0.2067 -3.2866210000000002 0.6201175 -0.92328525 0.4271925 -1.681206 1.04042 -2.273763 1.83968 -0.59255625 0.799265 -1.0335285 1.7707825 -1.3229165 2.9145525 -0.27560725 1.1575525 -0.4134115 2.4666875 -0.4134115 3.9274075 0.0 1.3780400000000002 0.13780499999999998 2.6389424999999997 0.4134115 3.7827149999999996 0.27560775 1.1575525 0.70279925 2.14974 1.2815755000000002 2.9765625 0.592556 0.8406025 1.3435869999999999 1.4882825 2.25309225 1.9430349999999998 0.90950525 0.4685325 2.00504625 0.7027975 3.2866202500000004 0.7027975 0.8681650000000001 0.0 1.8327925 -0.117125 2.89388 -0.3514 1.0610925 -0.234275 2.1773000000000002 -0.6270074999999999 3.3486375 -1.1782225 v 5.04362 c -0.5787775 0.192925 -1.1368825 0.3514075 -1.67432 0.475425 -0.537435 0.124025 -1.06798 0.220475 -1.5916350000000001 0.2893875 -0.523655 0.082675 -1.0610899999999999 0.1378 -1.612305 0.165375 -0.5374325 0.027575 -1.11621 0.04135 -1.736327 0.04135 z" 
       id="path4534"
       inkscape:connector-curvature="0" />
  </g>
</svg>
