<?xml version="1.0" encoding="UTF-8" standalone="no"?>
<!-- Created with Inkscape (http://www.inkscape.org/) -->

<svg
   xmlns:dc="http://purl.org/dc/elements/1.1/"
   xmlns:cc="http://creativecommons.org/ns#"
   xmlns:rdf="http://www.w3.org/1999/02/22-rdf-syntax-ns#"
   xmlns:svg="http://www.w3.org/2000/svg"
   xmlns="http://www.w3.org/2000/svg"
   xmlns:sodipodi="http://sodipodi.sourceforge.net/DTD/sodipodi-0.dtd"
   xmlns:inkscape="http://www.inkscape.org/namespaces/inkscape"
   width="8.1680374mm"
   height="10.807736mm"
   viewBox="0 0 8.1680374 10.807737"
   version="1.1"
   id="svg8"
   inkscape:version="0.92.4 (5da689c313, 2019-01-14)"
   sodipodi:docname="D2-1.svg">
  <defs
     id="defs2" />
  <sodipodi:namedview
     id="base"
     pagecolor="#ffffff"
     bordercolor="#666666"
     borderopacity="1.0"
     inkscape:pageopacity="0.0"
     inkscape:pageshadow="2"
     inkscape:zoom="2.8284271"
     inkscape:cx="-72.349536"
     inkscape:cy="-25.702854"
     inkscape:document-units="in"
     inkscape:current-layer="layer1"
     showgrid="false"
     fit-margin-top="0"
     fit-margin-left="0"
     fit-margin-right="0"
     fit-margin-bottom="0"
     inkscape:window-width="1858"
     inkscape:window-height="1057"
     inkscape:window-x="54"
     inkscape:window-y="1072"
     inkscape:window-maximized="1" />
  <metadata
     id="metadata5">
    <rdf:RDF>
      <cc:Work
         rdf:about="">
        <dc:format>image/svg+xml</dc:format>
        <dc:type
           rdf:resource="http://purl.org/dc/dcmitype/StillImage" />
        <dc:title />
      </cc:Work>
    </rdf:RDF>
  </metadata>
  <g
     inkscape:label="Layer 1"
     inkscape:groupmode="layer"
     id="layer1"
    transform="translate(-35.8626975,-335.254275)">
    <path
       style="font-style:normal;font-variant:normal;font-weight:bold;font-stretch:normal;font-size:16.93333244px;line-height:125%;font-family:Consolas;-inkscape-font-specification:'Consolas Bold';letter-spacing:0px;word-spacing:0px;fill:#000000;fill-opacity:1;stroke:none;stroke-width:0.26458332px;stroke-linecap:butt;stroke-linejoin:miter;stroke-opacity:1"
		d="m 35.8626975 362.27072499999997 v -27.01645 h 6.862629999999999 c 2.3840075 0.0 4.430395 0.32384999999999997 6.13916 0.971525 1.7087725 0.66145 3.1074775 1.59165 4.196127499999999 2.7905249999999997 0.146075 0.16075 0.285485 0.32667500000000005 0.4211625 0.4961 h -10.3016975 -2.2324225 v 10.1389 8.36125 h 2.5838224999999997 c 1.39182 0.0 2.5562575 -0.20675 3.4933275000000004 -0.6201 0.9370675 -0.413425 1.6812075000000002 -1.01975 2.23242 -1.819025 0.5650000000000001 -0.785475 0.9646325 -1.7501 1.198895 -2.8938750000000004 0.186 -0.908075 0.29499000000000003 -1.920375 0.33331500000000003 -3.02825 h 5.45832 c -0.0397 2.050325 -0.28833000000000003 3.847125 -0.7686875 5.364025 -0.5098699999999999 1.65365 -1.2815750000000001 3.0179 -2.3151025 4.0927750000000005 -1.03353 1.074875 -2.3288824999999997 1.8672250000000001 -3.8860675000000002 2.3771 -1.5434025 0.5236500000000001 -3.3486325 0.7855 -5.41569 0.7855 z" 
       id="path4536-1"
       inkscape:connector-curvature="0" />
  </g>
</svg>
