<?xml version="1.0" encoding="UTF-8" standalone="no"?>
<!-- Created with Inkscape (http://www.inkscape.org/) -->

<svg
   xmlns:dc="http://purl.org/dc/elements/1.1/"
   xmlns:cc="http://creativecommons.org/ns#"
   xmlns:rdf="http://www.w3.org/1999/02/22-rdf-syntax-ns#"
   xmlns:svg="http://www.w3.org/2000/svg"
   xmlns="http://www.w3.org/2000/svg"
   xmlns:sodipodi="http://sodipodi.sourceforge.net/DTD/sodipodi-0.dtd"
   xmlns:inkscape="http://www.inkscape.org/namespaces/inkscape"
   width="8.1680374mm"
   height="10.807736mm"
   viewBox="0 0 8.1680374 10.807737"
   version="1.1"
   id="svg8"
   inkscape:version="0.92.4 (5da689c313, 2019-01-14)"
   sodipodi:docname="D2-1.svg">
  <defs
     id="defs2" />
  <sodipodi:namedview
     id="base"
     pagecolor="#ffffff"
     bordercolor="#666666"
     borderopacity="1.0"
     inkscape:pageopacity="0.0"
     inkscape:pageshadow="2"
     inkscape:zoom="2.8284271"
     inkscape:cx="-72.349536"
     inkscape:cy="-25.702854"
     inkscape:document-units="in"
     inkscape:current-layer="layer1"
     showgrid="false"
     fit-margin-top="0"
     fit-margin-left="0"
     fit-margin-right="0"
     fit-margin-bottom="0"
     inkscape:window-width="1858"
     inkscape:window-height="1057"
     inkscape:window-x="54"
     inkscape:window-y="1072"
     inkscape:window-maximized="1" />
  <metadata
     id="metadata5">
    <rdf:RDF>
      <cc:Work
         rdf:about="">
        <dc:format>image/svg+xml</dc:format>
        <dc:type
           rdf:resource="http://purl.org/dc/dcmitype/StillImage" />
        <dc:title />
      </cc:Work>
    </rdf:RDF>
  </metadata>
  <g
     inkscape:label="Layer 1"
     inkscape:groupmode="layer"
     id="layer1"
     transform="translate(-14.345079,-134.10171)">
    <path
       style="font-style:normal;font-variant:normal;font-weight:bold;font-stretch:normal;font-size:16.93333244px;line-height:125%;font-family:Consolas;-inkscape-font-specification:'Consolas Bold';letter-spacing:0px;word-spacing:0px;fill:#000000;fill-opacity:1;stroke:none;stroke-width:0.26458332px;stroke-linecap:butt;stroke-linejoin:miter;stroke-opacity:1"
       d="m 14.345079,144.90829 v -10.80658 h 2.745052 c 0.953603,0 1.772158,0.12954 2.455664,0.38861 0.683509,0.26458 1.242991,0.63666 1.678451,1.11621 0.05843,0.0643 0.114194,0.13067 0.168465,0.19844 h -4.120679 -0.892969 v 4.05556 3.3445 h 1.033529 c 0.556728,0 1.022503,-0.0827 1.397331,-0.24804 0.374827,-0.16537 0.672483,-0.4079 0.892968,-0.72761 0.226,-0.31419 0.385853,-0.70004 0.479558,-1.15755 0.0744,-0.36323 0.117996,-0.76815 0.133326,-1.2113 h 2.183328 c -0.01588,0.82013 -0.115332,1.53885 -0.307475,2.14561 -0.203948,0.66146 -0.51263,1.20716 -0.926041,1.63711 -0.413412,0.42995 -0.931553,0.74689 -1.554427,0.95084 -0.617361,0.20946 -1.339453,0.3142 -2.166276,0.3142 z"
       id="path4536-1"
       inkscape:connector-curvature="0" />
  </g>
</svg>
