<?xml version="1.0" encoding="UTF-8" standalone="no"?>
<!-- Created with Inkscape (http://www.inkscape.org/) -->

<svg
   xmlns:dc="http://purl.org/dc/elements/1.1/"
   xmlns:cc="http://creativecommons.org/ns#"
   xmlns:rdf="http://www.w3.org/1999/02/22-rdf-syntax-ns#"
   xmlns:svg="http://www.w3.org/2000/svg"
   xmlns="http://www.w3.org/2000/svg"
   xmlns:sodipodi="http://sodipodi.sourceforge.net/DTD/sodipodi-0.dtd"
   xmlns:inkscape="http://www.inkscape.org/namespaces/inkscape"
   width="8.1841288mm"
   height="10.806585mm"
   viewBox="0 0 8.1841287 10.806586"
   version="1.1"
   id="svg8"
   inkscape:version="0.92.4 (5da689c313, 2019-01-14)"
   sodipodi:docname="G1-1.svg">
  <defs
     id="defs2" />
  <sodipodi:namedview
     id="base"
     pagecolor="#ffffff"
     bordercolor="#666666"
     borderopacity="1.0"
     inkscape:pageopacity="0.0"
     inkscape:pageshadow="2"
     inkscape:zoom="5.6568544"
     inkscape:cx="-45.993908"
     inkscape:cy="-3.916109"
     inkscape:document-units="in"
     inkscape:current-layer="layer1"
     showgrid="false"
     fit-margin-top="0"
     fit-margin-left="0"
     fit-margin-right="0"
     fit-margin-bottom="0"
     inkscape:window-width="1858"
     inkscape:window-height="1057"
     inkscape:window-x="54"
     inkscape:window-y="1072"
     inkscape:window-maximized="1" />
  <metadata
     id="metadata5">
    <rdf:RDF>
      <cc:Work
         rdf:about="">
        <dc:format>image/svg+xml</dc:format>
        <dc:type
           rdf:resource="http://purl.org/dc/dcmitype/StillImage" />
        <dc:title />
      </cc:Work>
    </rdf:RDF>
  </metadata>
  <g
     inkscape:label="Layer 1"
     inkscape:groupmode="layer"
     id="layer1"
     transform="translate(-41.963566,-81.900238)">
    <path
       style="font-style:normal;font-variant:normal;font-weight:bold;font-stretch:normal;font-size:16.93333244px;line-height:125%;font-family:Consolas;-inkscape-font-specification:'Consolas Bold';letter-spacing:0px;word-spacing:0px;fill:#000000;fill-opacity:1;stroke:none;stroke-width:0.26458332px;stroke-linecap:butt;stroke-linejoin:miter;stroke-opacity:1"
       d="m 47.251599,92.706823 c -0.837848,0 -1.584746,-0.129535 -2.24069,-0.388606 -0.650436,-0.259072 -1.20165,-0.636654 -1.653646,-1.132748 -0.446484,-0.490581 -0.788239,-1.091406 -1.02526,-1.802474 -0.231511,-0.711068 -0.347266,-1.515842 -0.347266,-2.414323 0,-0.892968 0.110241,-1.67845 0.330729,-2.356445 0.225997,-0.677995 0.548457,-1.245746 0.967383,-1.703255 0.403323,-0.440472 0.890455,-0.773598 1.457275,-1.00459 h 4.644678 c 0.259069,0.08544 0.51263,0.186035 0.760677,0.30179 v 5.762956 h -3.844727 v -1.67845 h 1.835547 v -2.761589 c -0.08268,-0.02756 -0.16261,-0.05237 -0.239778,-0.07441 -0.07166,-0.02205 -0.148828,-0.04134 -0.231511,-0.05788 -0.08268,-0.01653 -0.170878,-0.03031 -0.264583,-0.04134 -0.09371,-0.0055 -0.203951,-0.0083 -0.330729,-0.0083 -0.529167,0 -0.978408,0.08544 -1.347722,0.256315 -0.369316,0.170877 -0.672483,0.416168 -0.909505,0.735872 -0.23151,0.325218 -0.399632,0.71658 -0.504362,1.174089 -0.104732,0.463021 -0.157096,0.981163 -0.157096,1.554427 0,0.595312 0.06615,1.129991 0.198437,1.604036 0.137803,0.474046 0.336241,0.873677 0.595313,1.198894 0.264583,0.325217 0.589798,0.57602 0.975651,0.752409 0.391361,0.176388 0.840602,0.264583 1.347721,0.264583 0.501605,0 0.997699,-0.06339 1.488281,-0.190169 0.496094,-0.121268 0.94809,-0.278364 1.35599,-0.471289 v 2.009179 c -0.468535,0.143316 -0.939824,0.256315 -1.413867,0.338998 -0.468535,0.08819 -0.950849,0.132291 -1.44694,0.132291 z"
       id="path4542"
       inkscape:connector-curvature="0" />
  </g>
</svg>
