<?xml version="1.0" encoding="UTF-8" standalone="no"?>
<!-- Created with Inkscape (http://www.inkscape.org/) -->

<svg
   xmlns:dc="http://purl.org/dc/elements/1.1/"
   xmlns:cc="http://creativecommons.org/ns#"
   xmlns:rdf="http://www.w3.org/1999/02/22-rdf-syntax-ns#"
   xmlns:svg="http://www.w3.org/2000/svg"
   xmlns="http://www.w3.org/2000/svg"
   xmlns:sodipodi="http://sodipodi.sourceforge.net/DTD/sodipodi-0.dtd"
   xmlns:inkscape="http://www.inkscape.org/namespaces/inkscape"
   width="8.1841288mm"
   height="10.806585mm"
   viewBox="0 0 8.1841287 10.806586"
   version="1.1"
   id="svg8"
   inkscape:version="0.92.4 (5da689c313, 2019-01-14)"
   sodipodi:docname="G1-1.svg">
  <defs
     id="defs2" />
  <sodipodi:namedview
     id="base"
     pagecolor="#ffffff"
     bordercolor="#666666"
     borderopacity="1.0"
     inkscape:pageopacity="0.0"
     inkscape:pageshadow="2"
     inkscape:zoom="5.6568544"
     inkscape:cx="-15.853482"
     inkscape:cy="-3.916109"
     inkscape:document-units="in"
     inkscape:current-layer="layer1"
     showgrid="false"
     fit-margin-top="0"
     fit-margin-left="0"
     fit-margin-right="0"
     fit-margin-bottom="0"
     inkscape:window-width="1858"
     inkscape:window-height="1057"
     inkscape:window-x="54"
     inkscape:window-y="1072"
     inkscape:window-maximized="1" />
  <metadata
     id="metadata5">
    <rdf:RDF>
      <cc:Work
         rdf:about="">
        <dc:format>image/svg+xml</dc:format>
        <dc:type
           rdf:resource="http://purl.org/dc/dcmitype/StillImage" />
        <dc:title />
      </cc:Work>
    </rdf:RDF>
  </metadata>
  <g
     inkscape:label="Layer 1"
     inkscape:groupmode="layer"
     id="layer1"
     transform="translate(-41.963566,-81.900238)">
    <path
       style="font-style:normal;font-variant:normal;font-weight:bold;font-stretch:normal;font-size:16.93333244px;line-height:125%;font-family:Consolas;-inkscape-font-specification:'Consolas Bold';letter-spacing:0px;word-spacing:0px;fill:#000000;fill-opacity:1;stroke:none;stroke-width:0.99999994px;stroke-linecap:butt;stroke-linejoin:miter;stroke-opacity:1"
       d="m 232.78516,0 c -3.16667,0 -5.98959,0.48958276 -8.46875,1.46875 -2.45834,0.9791672 -4.54167,2.4062491 -6.25,4.28125 -1.6875,1.8541657 -2.97917,4.1250014 -3.875,6.8125 -0.875,2.687501 -1.3125,5.729168 -1.3125,9.125 0,3.375 0.41666,6.34375 1.25,8.90625 0.85416,2.5625 2.07291,4.708333 3.65625,6.4375 1.52437,1.664775 3.3655,2.923834 5.50781,3.796875 h 17.55469 c 0.97916,-0.322917 1.9375,-0.703125 2.875,-1.140625 V 17.90625 H 229.19141 V 24.25 h 6.9375 v 10.4375 c -0.3125,0.104164 -0.61459,0.197924 -0.90625,0.28125 -0.27084,0.08333 -0.5625,0.156237 -0.875,0.21875 -0.3125,0.06249 -0.64584,0.114574 -1,0.15625 -0.35417,0.02091 -0.77084,0.03125 -1.25,0.03125 -2,0 -3.69792,-0.322917 -5.09375,-0.96875 -1.39584,-0.645833 -2.54167,-1.572917 -3.4375,-2.78125 -0.875,-1.229168 -1.51042,-2.708333 -1.90625,-4.4375 -0.39584,-1.749999 -0.59375,-3.708333 -0.59375,-5.875 0,-2.249998 0.25,-4.270833 0.75,-6.0625 0.52083,-1.791667 1.27083,-3.302085 2.25,-4.53125 1,-1.2291679 2.22916,-2.1770842 3.6875,-2.84375 1.47916,-0.6666658 3.17708,-1 5.09375,-1 1.89583,0 3.77083,0.239584 5.625,0.71875 1.875,0.4583332 3.58333,1.0520834 5.125,1.78125 V 1.78125 C 241.82682,1.2395857 240.04557,0.81250142 238.25391,0.5 236.48307,0.16666583 234.66015,0 232.78516,0 Z"
       transform="matrix(0.26458333,0,0,0.26458333,-14.339474,81.904382)"
       id="path4542"
       inkscape:connector-curvature="0" />
  </g>
</svg>
