<?xml version="1.0" encoding="UTF-8" standalone="no"?>
<!-- Created with Inkscape (http://www.inkscape.org/) -->

<svg
   xmlns:dc="http://purl.org/dc/elements/1.1/"
   xmlns:cc="http://creativecommons.org/ns#"
   xmlns:rdf="http://www.w3.org/1999/02/22-rdf-syntax-ns#"
   xmlns:svg="http://www.w3.org/2000/svg"
   xmlns="http://www.w3.org/2000/svg"
   xmlns:sodipodi="http://sodipodi.sourceforge.net/DTD/sodipodi-0.dtd"
   xmlns:inkscape="http://www.inkscape.org/namespaces/inkscape"
   width="6.0647445mm"
   height="10.80916mm"
   viewBox="0 0 6.0647445 10.809161"
   version="1.1"
   id="svg8"
   inkscape:version="0.92.4 (5da689c313, 2019-01-14)"
   sodipodi:docname="J1-1.svg">
  <defs
     id="defs2" />
  <sodipodi:namedview
     id="base"
     pagecolor="#ffffff"
     bordercolor="#666666"
     borderopacity="1.0"
     inkscape:pageopacity="0.0"
     inkscape:pageshadow="2"
     inkscape:zoom="1.4142136"
     inkscape:cx="-137.91139"
     inkscape:cy="-92.071272"
     inkscape:document-units="in"
     inkscape:current-layer="layer1"
     showgrid="false"
     fit-margin-top="0"
     fit-margin-left="0"
     fit-margin-right="0"
     fit-margin-bottom="0"
     inkscape:window-width="1858"
     inkscape:window-height="1057"
     inkscape:window-x="54"
     inkscape:window-y="1072"
     inkscape:window-maximized="1" />
  <metadata
     id="metadata5">
    <rdf:RDF>
      <cc:Work
         rdf:about="">
        <dc:format>image/svg+xml</dc:format>
        <dc:type
           rdf:resource="http://purl.org/dc/dcmitype/StillImage" />
        <dc:title />
      </cc:Work>
    </rdf:RDF>
  </metadata>
  <g
     inkscape:label="Layer 1"
     inkscape:groupmode="layer"
     id="layer1"
     transform="translate(-70.99382,-82.086283)">
    <path
       style="font-style:normal;font-variant:normal;font-weight:bold;font-stretch:normal;font-size:16.93333244px;line-height:125%;font-family:Consolas;-inkscape-font-specification:'Consolas Bold';letter-spacing:0px;word-spacing:0px;fill:#000000;fill-opacity:1;stroke:none;stroke-width:1.01421702px;stroke-linecap:butt;stroke-linejoin:miter;stroke-opacity:1"
       d="m 322.84766,0.6875 v 6.5253906 h 14.78125 V 29.072266 c 0,1.435807 -0.1875,2.645085 -0.5625,3.630859 -0.375,0.964349 -0.85417,1.747621 -1.4375,2.347656 -0.58334,0.600036 -1.25,1.027995 -2,1.285157 -0.72917,0.257161 -1.4375,0.386718 -2.125,0.386718 -0.8125,0 -1.63542,-0.07654 -2.46875,-0.226562 -0.83334,-0.17144 -1.64584,-0.395239 -2.4375,-0.673828 -0.79167,-0.300019 -1.54167,-0.643559 -2.25,-1.029297 -0.6875,-0.385739 -1.29167,-0.803878 -1.8125,-1.253907 v 7.650391 c 0.22295,0.118763 0.45986,0.23086 0.69726,0.341797 h 16.18164 c 0.92213,-0.514854 1.75245,-1.11369 2.46485,-1.820312 1.16666,-1.157216 2.05208,-2.549061 2.65625,-4.177735 0.60416,-1.628674 0.90625,-3.42884 0.90625,-5.400391 V 0.6875 Z"
       transform="matrix(0.26458333,0,0,0.26458333,-14.339474,81.904382)"
       id="path4548"
       inkscape:connector-curvature="0" />
  </g>
</svg>
