<?xml version="1.0" encoding="UTF-8" standalone="no"?>
<!-- Created with Inkscape (http://www.inkscape.org/) -->

<svg
   xmlns:dc="http://purl.org/dc/elements/1.1/"
   xmlns:cc="http://creativecommons.org/ns#"
   xmlns:rdf="http://www.w3.org/1999/02/22-rdf-syntax-ns#"
   xmlns:svg="http://www.w3.org/2000/svg"
   xmlns="http://www.w3.org/2000/svg"
   xmlns:sodipodi="http://sodipodi.sourceforge.net/DTD/sodipodi-0.dtd"
   xmlns:inkscape="http://www.inkscape.org/namespaces/inkscape"
   width="8.7250366mm"
   height="10.807542mm"
   viewBox="0 0 8.7250366 10.807542"
   version="1.1"
   id="svg8"
   inkscape:version="0.92.4 (5da689c313, 2019-01-14)"
   sodipodi:docname="O1-1.svg">
  <defs
     id="defs2" />
  <sodipodi:namedview
     id="base"
     pagecolor="#ffffff"
     bordercolor="#666666"
     borderopacity="1.0"
     inkscape:pageopacity="0.0"
     inkscape:pageshadow="2"
     inkscape:zoom="2.8284271"
     inkscape:cx="-69.348313"
     inkscape:cy="-77.318114"
     inkscape:document-units="in"
     inkscape:current-layer="layer1"
     showgrid="false"
     fit-margin-top="0"
     fit-margin-left="0"
     fit-margin-right="0"
     fit-margin-bottom="0"
     inkscape:window-width="1858"
     inkscape:window-height="1057"
     inkscape:window-x="54"
     inkscape:window-y="1072"
     inkscape:window-maximized="1" />
  <metadata
     id="metadata5">
    <rdf:RDF>
      <cc:Work
         rdf:about="">
        <dc:format>image/svg+xml</dc:format>
        <dc:type
           rdf:resource="http://purl.org/dc/dcmitype/StillImage" />
        <dc:title />
      </cc:Work>
    </rdf:RDF>
  </metadata>
  <g
     inkscape:label="Layer 1"
     inkscape:groupmode="layer"
     id="layer1"
     transform="translate(-116.48769,-81.919952)">
    <path
       style="font-style:normal;font-variant:normal;font-weight:bold;font-stretch:normal;font-size:16.93333244px;line-height:125%;font-family:Consolas;-inkscape-font-specification:'Consolas Bold';letter-spacing:0px;word-spacing:0px;fill:#000000;fill-opacity:1;stroke:none;stroke-width:0.26458332px;stroke-linecap:butt;stroke-linejoin:miter;stroke-opacity:1"
       d="m 120.56805,92.727494 c -0.47801,-0.03528 -0.93417,-0.137804 -1.36632,-0.314193 -0.53468,-0.220486 -1.00321,-0.559483 -1.4056,-1.016992 -0.39688,-0.457509 -0.71107,-1.041797 -0.94258,-1.752865 -0.22599,-0.711068 -0.339,-1.557183 -0.339,-2.538346 0,-1.802474 0.35829,-3.177756 1.07487,-4.125846 0.35734,-0.470039 0.80253,-0.822691 1.33532,-1.058334 h 3.64422 c 0.5178,0.220775 0.97015,0.549775 1.35393,0.992188 0.40238,0.457509 0.71657,1.041797 0.94258,1.752865 0.2315,0.711067 0.34726,1.557183 0.34726,2.538346 0,1.807986 -0.35829,3.183268 -1.07487,4.125846 -0.64994,0.854919 -1.59324,1.317823 -2.8236,1.397331 z m 0.29559,-1.819011 c 0.78272,0 1.34497,-0.314192 1.68672,-0.942578 0.34175,-0.628385 0.51263,-1.581988 0.51263,-2.860807 0,-0.595313 -0.0413,-1.124479 -0.12402,-1.5875 -0.0827,-0.457509 -0.21222,-0.843359 -0.38861,-1.157552 -0.17639,-0.314193 -0.40514,-0.553971 -0.68626,-0.719336 -0.27561,-0.159853 -0.6091,-0.239779 -1.00046,-0.239779 -0.77721,0 -1.33945,0.314193 -1.68672,0.942579 -0.34175,0.628385 -0.51263,1.581987 -0.51263,2.860807 0,0.595313 0.0413,1.121723 0.12403,1.579232 0.0827,0.46302 0.21221,0.851627 0.3886,1.16582 0.1819,0.314193 0.41066,0.551215 0.68627,0.711068 0.2756,0.165364 0.60909,0.248046 1.00045,0.248046 z"
       id="path4558"
       inkscape:connector-curvature="0" />
  </g>
</svg>
