<?xml version="1.0" encoding="UTF-8" standalone="no"?>
<!-- Created with Inkscape (http://www.inkscape.org/) -->

<svg
   xmlns:dc="http://purl.org/dc/elements/1.1/"
   xmlns:cc="http://creativecommons.org/ns#"
   xmlns:rdf="http://www.w3.org/1999/02/22-rdf-syntax-ns#"
   xmlns:svg="http://www.w3.org/2000/svg"
   xmlns="http://www.w3.org/2000/svg"
   xmlns:sodipodi="http://sodipodi.sourceforge.net/DTD/sodipodi-0.dtd"
   xmlns:inkscape="http://www.inkscape.org/namespaces/inkscape"
   width="8.7229853mm"
   height="10.809154mm"
   viewBox="0 0 8.7229852 10.809154"
   version="1.1"
   id="svg8"
   inkscape:version="0.92.4 (5da689c313, 2019-01-14)"
   sodipodi:docname="O2-1.svg">
  <defs
     id="defs2" />
  <sodipodi:namedview
     id="base"
     pagecolor="#ffffff"
     bordercolor="#666666"
     borderopacity="1.0"
     inkscape:pageopacity="0.0"
     inkscape:pageshadow="2"
     inkscape:zoom="4"
     inkscape:cx="-94.319431"
     inkscape:cy="-14.262643"
     inkscape:document-units="in"
     inkscape:current-layer="layer1"
     showgrid="false"
     fit-margin-top="0"
     fit-margin-left="0"
     fit-margin-right="0"
     fit-margin-bottom="0"
     inkscape:window-width="1858"
     inkscape:window-height="1057"
     inkscape:window-x="54"
     inkscape:window-y="1072"
     inkscape:window-maximized="1" />
  <metadata
     id="metadata5">
    <rdf:RDF>
      <cc:Work
         rdf:about="">
        <dc:format>image/svg+xml</dc:format>
        <dc:type
           rdf:resource="http://purl.org/dc/dcmitype/StillImage" />
        <dc:title />
      </cc:Work>
    </rdf:RDF>
  </metadata>
  <g
     inkscape:label="Layer 1"
     inkscape:groupmode="layer"
     id="layer1"
     transform="translate(-116.42464,-133.87021)">
    <path
       style="font-style:normal;font-variant:normal;font-weight:bold;font-stretch:normal;font-size:16.93333244px;line-height:125%;font-family:Consolas;-inkscape-font-specification:'Consolas Bold';letter-spacing:0px;word-spacing:0px;fill:#000000;fill-opacity:1;stroke:none;stroke-width:0.26458332px;stroke-linecap:butt;stroke-linejoin:miter;stroke-opacity:1"
       d="m 120.5572,144.67936 c -0.47801,-0.0353 -0.93418,-0.1378 -1.36633,-0.31419 -0.53468,-0.22048 -1.00321,-0.55948 -1.40559,-1.01699 -0.39688,-0.45751 -0.71107,-1.0418 -0.94258,-1.75287 -0.22599,-0.71107 -0.339,-1.55718 -0.339,-2.53834 0,-1.80247 0.35829,-3.17776 1.07487,-4.12585 0.35734,-0.47004 0.80253,-0.82269 1.33532,-1.05833 h 3.64422 c 0.5178,0.22078 0.97014,0.54977 1.35392,0.99218 0.40238,0.45752 0.71658,1.04181 0.94258,1.75287 0.12378,0.38017 0.21163,0.80198 0.26924,1.25935 h -2.13682 c -0.0167,-0.14068 -0.0357,-0.2775 -0.0589,-0.40772 -0.0827,-0.45751 -0.21221,-0.84337 -0.3886,-1.15756 -0.17639,-0.31419 -0.40515,-0.55396 -0.68627,-0.71933 -0.2756,-0.15985 -0.60909,-0.23978 -1.00045,-0.23978 -0.77721,0 -1.33945,0.3142 -1.68672,0.94258 -0.34175,0.62839 -0.51263,1.58199 -0.51263,2.86081 0,0.5953 0.0413,1.12172 0.12402,1.57923 0.0827,0.46302 0.21222,0.85163 0.38861,1.16582 0.1819,0.3142 0.41065,0.55122 0.68626,0.71106 0.2756,0.16537 0.6091,0.24805 1.00046,0.24805 0.0457,0 0.0881,-0.005 0.13229,-0.007 v 1.82573 z"
       id="path4558-6"
       inkscape:connector-curvature="0" />
  </g>
</svg>
