<?xml version="1.0" encoding="UTF-8" standalone="no"?>
<!-- Created with Inkscape (http://www.inkscape.org/) -->

<svg
   xmlns:dc="http://purl.org/dc/elements/1.1/"
   xmlns:cc="http://creativecommons.org/ns#"
   xmlns:rdf="http://www.w3.org/1999/02/22-rdf-syntax-ns#"
   xmlns:svg="http://www.w3.org/2000/svg"
   xmlns="http://www.w3.org/2000/svg"
   xmlns:sodipodi="http://sodipodi.sourceforge.net/DTD/sodipodi-0.dtd"
   xmlns:inkscape="http://www.inkscape.org/namespaces/inkscape"
   width="8.7229853mm"
   height="10.809154mm"
   viewBox="0 0 8.7229852 10.809154"
   version="1.1"
   id="svg8"
   inkscape:version="0.92.4 (5da689c313, 2019-01-14)"
   sodipodi:docname="O2-1.svg">
  <defs
     id="defs2" />
  <sodipodi:namedview
     id="base"
     pagecolor="#ffffff"
     bordercolor="#666666"
     borderopacity="1.0"
     inkscape:pageopacity="0.0"
     inkscape:pageshadow="2"
     inkscape:zoom="4"
     inkscape:cx="-94.319431"
     inkscape:cy="-14.262643"
     inkscape:document-units="in"
     inkscape:current-layer="layer1"
     showgrid="false"
     fit-margin-top="0"
     fit-margin-left="0"
     fit-margin-right="0"
     fit-margin-bottom="0"
     inkscape:window-width="1858"
     inkscape:window-height="1057"
     inkscape:window-x="54"
     inkscape:window-y="1072"
     inkscape:window-maximized="1" />
  <metadata
     id="metadata5">
    <rdf:RDF>
      <cc:Work
         rdf:about="">
        <dc:format>image/svg+xml</dc:format>
        <dc:type
           rdf:resource="http://purl.org/dc/dcmitype/StillImage" />
        <dc:title />
      </cc:Work>
    </rdf:RDF>
  </metadata>
  <g
     inkscape:label="Layer 1"
     inkscape:groupmode="layer"
     id="layer1"
    transform="translate(-291.0616,-334.675525)">
    <path
       style="font-style:normal;font-variant:normal;font-weight:bold;font-stretch:normal;font-size:16.93333244px;line-height:125%;font-family:Consolas;-inkscape-font-specification:'Consolas Bold';letter-spacing:0px;word-spacing:0px;fill:#000000;fill-opacity:1;stroke:none;stroke-width:0.26458332px;stroke-linecap:butt;stroke-linejoin:miter;stroke-opacity:1"
		d="m 301.393 361.6984 c -1.195025 -0.08825 -2.33545 -0.34450000000000003 -3.415825 -0.785475 -1.3367 -0.5512 -2.508025 -1.3986999999999998 -3.513975 -2.542475 -0.9922 -1.143775 -1.777675 -2.6045000000000003 -2.3564499999999997 -4.382175 -0.564975 -1.777675 -0.8475 -3.89295 -0.8475 -6.3458499999999995 0.0 -4.506175 0.895725 -7.9444 2.687175 -10.314625 0.89335 -1.1751 2.006325 -2.056725 3.3383000000000003 -2.645825 h 9.11055 c 1.2945000000000002 0.55195 2.42535 1.374425 3.3848000000000003 2.48045 1.0059500000000001 1.1438 1.79145 2.6045249999999998 2.3564499999999997 4.382175 0.30945 0.9504250000000001 0.5290750000000001 2.00495 0.6730999999999999 3.1483749999999997 h -5.34205 c -0.041749999999999995 -0.3517 -0.08925000000000001 -0.6937500000000001 -0.14725 -1.0193 -0.20675 -1.143775 -0.530525 -2.108425 -0.9715 -2.8939 -0.440975 -0.785475 -1.012875 -1.3849 -1.715675 -1.7983250000000002 -0.6890000000000001 -0.399625 -1.522725 -0.59945 -2.501125 -0.59945 -1.943025 0.0 -3.348625 0.7855 -4.2168 2.3564499999999997 -0.854375 1.570975 -1.2815750000000001 3.954975 -1.2815750000000001 7.152025 0.0 1.48825 0.10325000000000001 2.8043 0.31005 3.948075 0.20675 1.15755 0.53055 2.129075 0.971525 2.91455 0.45475 0.7855 1.0266250000000001 1.37805 1.71565 1.77765 0.6890000000000001 0.413425 1.5227499999999998 0.620125 2.50115 0.620125 0.11424999999999999 0.0 0.22025 -0.0125 0.330725 -0.0175 v 4.564325 z" 
       id="path4558-6"
       inkscape:connector-curvature="0" />
  </g>
</svg>
