<?xml version="1.0" encoding="UTF-8" standalone="no"?>
<!-- Created with Inkscape (http://www.inkscape.org/) -->

<svg
   xmlns:dc="http://purl.org/dc/elements/1.1/"
   xmlns:cc="http://creativecommons.org/ns#"
   xmlns:rdf="http://www.w3.org/1999/02/22-rdf-syntax-ns#"
   xmlns:svg="http://www.w3.org/2000/svg"
   xmlns="http://www.w3.org/2000/svg"
   xmlns:sodipodi="http://sodipodi.sourceforge.net/DTD/sodipodi-0.dtd"
   xmlns:inkscape="http://www.inkscape.org/namespaces/inkscape"
   width="8.7229853mm"
   height="10.809496mm"
   viewBox="0 0 8.7229852 10.809496"
   version="1.1"
   id="svg8"
   inkscape:version="0.92.4 (5da689c313, 2019-01-14)"
   sodipodi:docname="O2-2.svg">
  <defs
     id="defs2" />
  <sodipodi:namedview
     id="base"
     pagecolor="#ffffff"
     bordercolor="#666666"
     borderopacity="1.0"
     inkscape:pageopacity="0.0"
     inkscape:pageshadow="2"
     inkscape:zoom="4"
     inkscape:cx="-55.196497"
     inkscape:cy="28.635499"
     inkscape:document-units="in"
     inkscape:current-layer="layer1"
     showgrid="false"
     fit-margin-top="0"
     fit-margin-left="0"
     fit-margin-right="0"
     fit-margin-bottom="0"
     inkscape:window-width="1858"
     inkscape:window-height="1057"
     inkscape:window-x="54"
     inkscape:window-y="1072"
     inkscape:window-maximized="1" />
  <metadata
     id="metadata5">
    <rdf:RDF>
      <cc:Work
         rdf:about="">
        <dc:format>image/svg+xml</dc:format>
        <dc:type
           rdf:resource="http://purl.org/dc/dcmitype/StillImage" />
        <dc:title />
      </cc:Work>
    </rdf:RDF>
  </metadata>
  <g
     inkscape:label="Layer 1"
     inkscape:groupmode="layer"
     id="layer1"
     transform="translate(-116.51736,-147.74922)">
    <path
       inkscape:connector-curvature="0"
       style="font-style:normal;font-variant:normal;font-weight:bold;font-stretch:normal;font-size:16.93333244px;line-height:125%;font-family:Consolas;-inkscape-font-specification:'Consolas Bold';letter-spacing:0px;word-spacing:0px;fill:#000000;fill-opacity:1;stroke:none;stroke-width:0.26458332px;stroke-linecap:butt;stroke-linejoin:miter;stroke-opacity:1"
       d="m 121.11462,147.74922 c 0.47801,0.0353 0.93417,0.1378 1.36632,0.31419 0.53468,0.22048 1.00321,0.55948 1.4056,1.017 0.39688,0.4575 0.71107,1.04179 0.94258,1.75286 0.22599,0.71107 0.339,1.55718 0.339,2.53835 0,1.80247 -0.35829,3.17775 -1.07487,4.12584 -0.35734,0.47004 -0.80253,0.8227 -1.33532,1.05834 h -3.64422 c -0.5178,-0.22079 -0.97015,-0.54978 -1.35393,-0.99219 -0.40238,-0.45751 -0.71658,-1.04181 -0.94258,-1.75287 -0.12377,-0.38017 -0.21163,-0.80198 -0.26923,-1.25935 h 2.13682 c 0.0167,0.14068 0.0356,0.27751 0.0589,0.40773 0.0827,0.45751 0.21222,0.84336 0.38861,1.15755 0.17639,0.31419 0.40514,0.55396 0.68626,0.71933 0.27561,0.15985 0.6091,0.23978 1.00046,0.23978 0.77721,0 1.33945,-0.31419 1.68672,-0.94258 0.34175,-0.62839 0.51263,-1.58198 0.51263,-2.8608 0,-0.59531 -0.0413,-1.12172 -0.12403,-1.57923 -0.0827,-0.46303 -0.21221,-0.85163 -0.3886,-1.16582 -0.1819,-0.31421 -0.41066,-0.55122 -0.68627,-0.71107 -0.2756,-0.16536 -0.60909,-0.24805 -1.00045,-0.24805 -0.0457,0 -0.0881,0.005 -0.13229,0.007 v -1.82573 z"
       id="path4558-6-2" />
  </g>
</svg>
