<?xml version="1.0" encoding="UTF-8" standalone="no"?>
<!-- Created with Inkscape (http://www.inkscape.org/) -->

<svg
   xmlns:dc="http://purl.org/dc/elements/1.1/"
   xmlns:cc="http://creativecommons.org/ns#"
   xmlns:rdf="http://www.w3.org/1999/02/22-rdf-syntax-ns#"
   xmlns:svg="http://www.w3.org/2000/svg"
   xmlns="http://www.w3.org/2000/svg"
   xmlns:sodipodi="http://sodipodi.sourceforge.net/DTD/sodipodi-0.dtd"
   xmlns:inkscape="http://www.inkscape.org/namespaces/inkscape"
   width="7.5069118mm"
   height="10.80658mm"
   viewBox="0 0 7.5069117 10.80658"
   version="1.1"
   id="svg8"
   inkscape:version="0.92.4 (5da689c313, 2019-01-14)"
   sodipodi:docname="P1-1.svg">
  <defs
     id="defs2" />
  <sodipodi:namedview
     id="base"
     pagecolor="#ffffff"
     bordercolor="#666666"
     borderopacity="1.0"
     inkscape:pageopacity="0.0"
     inkscape:pageshadow="2"
     inkscape:zoom="4"
     inkscape:cx="-73.517014"
     inkscape:cy="-35.790437"
     inkscape:document-units="in"
     inkscape:current-layer="layer1"
     showgrid="false"
     fit-margin-top="0"
     fit-margin-left="0"
     fit-margin-right="0"
     fit-margin-bottom="0"
     inkscape:window-width="1858"
     inkscape:window-height="1057"
     inkscape:window-x="54"
     inkscape:window-y="1072"
     inkscape:window-maximized="1" />
  <metadata
     id="metadata5">
    <rdf:RDF>
      <cc:Work
         rdf:about="">
        <dc:format>image/svg+xml</dc:format>
        <dc:type
           rdf:resource="http://purl.org/dc/dcmitype/StillImage" />
        <dc:title />
      </cc:Work>
    </rdf:RDF>
  </metadata>
  <g
     inkscape:label="Layer 1"
     inkscape:groupmode="layer"
     id="layer1">
    <path
       inkscape:connector-curvature="0"
       id="path4560"
       style="font-style:normal;font-variant:normal;font-weight:bold;font-stretch:normal;font-size:16.93333244px;line-height:125%;font-family:Consolas;-inkscape-font-specification:'Consolas Bold';letter-spacing:0px;word-spacing:0px;fill:#000000;fill-opacity:1;stroke:none;stroke-width:0.26458332px;stroke-linecap:butt;stroke-linejoin:miter;stroke-opacity:1"
		d="M 18.74825 18.4175 Q 18.74825 20.484499999999997 18.02475 22.07625 Q 17.322 23.6885 15.937 24.784000000000002 Q 14.572750000000001 25.8795 12.546999999999999 26.43775 Q 10.542 27.0165 7.91675 27.0165 H 0.0 V 0.0 H 5.12625 V 8.681750000000001 H 7.710249999999999 Q 10.43875 8.681750000000001 12.505749999999999 9.40525 Q 14.572750000000001 10.1285 15.957749999999999 11.43075 Q 17.34275 12.733 18.0455 14.510749999999998 Q 18.74825 16.309 18.74825 18.4175 Z M 13.41525 18.066 Q 13.41525 16.888 13.04325 15.937 Q 12.691749999999999 14.986250000000002 11.989 14.303999999999998 Q 11.306750000000001 13.622 10.294 13.24975 Q 9.281 12.898499999999999 7.95825 12.898499999999999 H 5.12625 V 22.79975 H 7.792750000000001 Q 9.23975 22.79975 10.294 22.469 Q 11.34825 22.13825 12.03025 21.518 Q 12.733 20.898 13.06375 20.00925 Q 13.41525 19.141 13.41525 18.066 Z" /> 
  </g>
</svg>
