<?xml version="1.0" encoding="UTF-8" standalone="no"?>
<!-- Created with Inkscape (http://www.inkscape.org/) -->

<svg
   xmlns:dc="http://purl.org/dc/elements/1.1/"
   xmlns:cc="http://creativecommons.org/ns#"
   xmlns:rdf="http://www.w3.org/1999/02/22-rdf-syntax-ns#"
   xmlns:svg="http://www.w3.org/2000/svg"
   xmlns="http://www.w3.org/2000/svg"
   xmlns:sodipodi="http://sodipodi.sourceforge.net/DTD/sodipodi-0.dtd"
   xmlns:inkscape="http://www.inkscape.org/namespaces/inkscape"
   width="7.5069094mm"
   height="10.806582mm"
   viewBox="0 0 7.5069093 10.806583"
   version="1.1"
   id="svg8"
   inkscape:version="0.92.4 (5da689c313, 2019-01-14)"
   sodipodi:docname="P2-1.svg">
  <defs
     id="defs2" />
  <sodipodi:namedview
     id="base"
     pagecolor="#ffffff"
     bordercolor="#666666"
     borderopacity="1.0"
     inkscape:pageopacity="0.0"
     inkscape:pageshadow="2"
     inkscape:zoom="5.6568543"
     inkscape:cx="-71.12233"
     inkscape:cy="-0.28095251"
     inkscape:document-units="in"
     inkscape:current-layer="layer1"
     showgrid="false"
     fit-margin-top="0"
     fit-margin-left="0"
     fit-margin-right="0"
     fit-margin-bottom="0"
     inkscape:window-width="1858"
     inkscape:window-height="1057"
     inkscape:window-x="54"
     inkscape:window-y="1072"
     inkscape:window-maximized="1" />
  <metadata
     id="metadata5">
    <rdf:RDF>
      <cc:Work
         rdf:about="">
        <dc:format>image/svg+xml</dc:format>
        <dc:type
           rdf:resource="http://purl.org/dc/dcmitype/StillImage" />
        <dc:title />
      </cc:Work>
    </rdf:RDF>
  </metadata>
  <g
     inkscape:label="Layer 1"
     inkscape:groupmode="layer"
     id="layer1"
     transform="translate(-126.66897,-134.10171)">
    <path
       style="font-style:normal;font-variant:normal;font-weight:bold;font-stretch:normal;font-size:16.93333244px;line-height:125%;font-family:Consolas;-inkscape-font-specification:'Consolas Bold';letter-spacing:0px;word-spacing:0px;fill:#000000;fill-opacity:1;stroke:none;stroke-width:0.26458332px;stroke-linecap:butt;stroke-linejoin:miter;stroke-opacity:1"
       d="m 126.66897,144.90829 v -10.80658 h 2.05052 v 2.41432 1.05834 1.68672 1.84743 2.11305 h 1.0666 c 0.38586,0 0.71935,-0.0441 1.00046,-0.13229 0.28112,-0.0882 0.51262,-0.21497 0.69453,-0.38034 0.18742,-0.16536 0.32522,-0.36656 0.41341,-0.60358 0.0937,-0.23151 0.14056,-0.49058 0.14056,-0.77722 0,-0.075 -0.003,-0.14806 -0.009,-0.21962 h 2.12648 c 0.009,0.1184 0.0155,0.23787 0.0155,0.36018 0,0.55122 -0.0965,1.03905 -0.28939,1.46348 -0.18741,0.42995 -0.46578,0.791 -0.83509,1.08314 -0.3638,0.29215 -0.8158,0.51263 -1.35599,0.66146 -0.53468,0.15434 -1.15204,0.23151 -1.85208,0.23151 z"
       id="path4560-1"
       inkscape:connector-curvature="0" />
  </g>
</svg>
