<?xml version="1.0" encoding="UTF-8" standalone="no"?>
<!-- Created with Inkscape (http://www.inkscape.org/) -->

<svg
   xmlns:dc="http://purl.org/dc/elements/1.1/"
   xmlns:cc="http://creativecommons.org/ns#"
   xmlns:rdf="http://www.w3.org/1999/02/22-rdf-syntax-ns#"
   xmlns:svg="http://www.w3.org/2000/svg"
   xmlns="http://www.w3.org/2000/svg"
   xmlns:sodipodi="http://sodipodi.sourceforge.net/DTD/sodipodi-0.dtd"
   xmlns:inkscape="http://www.inkscape.org/namespaces/inkscape"
   width="7.5069094mm"
   height="10.806582mm"
   viewBox="0 0 7.5069093 10.806583"
   version="1.1"
   id="svg8"
   inkscape:version="0.92.4 (5da689c313, 2019-01-14)"
   sodipodi:docname="P2-1.svg">
  <defs
     id="defs2" />
  <sodipodi:namedview
     id="base"
     pagecolor="#ffffff"
     bordercolor="#666666"
     borderopacity="1.0"
     inkscape:pageopacity="0.0"
     inkscape:pageshadow="2"
     inkscape:zoom="5.6568543"
     inkscape:cx="-40.981904"
     inkscape:cy="-0.28095251"
     inkscape:document-units="in"
     inkscape:current-layer="layer1"
     showgrid="false"
     fit-margin-top="0"
     fit-margin-left="0"
     fit-margin-right="0"
     fit-margin-bottom="0"
     inkscape:window-width="1858"
     inkscape:window-height="1057"
     inkscape:window-x="54"
     inkscape:window-y="1072"
     inkscape:window-maximized="1" />
  <metadata
     id="metadata5">
    <rdf:RDF>
      <cc:Work
         rdf:about="">
        <dc:format>image/svg+xml</dc:format>
        <dc:type
           rdf:resource="http://purl.org/dc/dcmitype/StillImage" />
        <dc:title />
      </cc:Work>
    </rdf:RDF>
  </metadata>
  <g
     inkscape:label="Layer 1"
     inkscape:groupmode="layer"
     id="layer1"
     transform="translate(-126.66897,-134.10171)">
    <path
       style="font-style:normal;font-variant:normal;font-weight:bold;font-stretch:normal;font-size:16.93333244px;line-height:125%;font-family:Consolas;-inkscape-font-specification:'Consolas Bold';letter-spacing:0px;word-spacing:0px;fill:#000000;fill-opacity:1;stroke:none;stroke-width:0.99999994px;stroke-linecap:butt;stroke-linejoin:miter;stroke-opacity:1"
       d="M 532.94531,197.28125 V 238.125 h 7.75 V 229 v -4 -6.375 -6.98242 -7.98633 h 4.03125 c 1.45835,0 2.71878,0.16667 3.78125,0.5 1.0625,0.33333 1.93748,0.81249 2.625,1.4375 0.70834,0.62498 1.22917,1.3854 1.5625,2.28125 0.35417,0.87499 0.53125,1.85416 0.53125,2.9375 0,0.28353 -0.0118,0.55961 -0.0332,0.83008 h 8.03711 c 0.0335,-0.4475 0.0586,-0.89904 0.0586,-1.36133 0,-2.08333 -0.36458,-3.92709 -1.09375,-5.53125 -0.70833,-1.62502 -1.76042,-2.9896 -3.15625,-4.09375 -1.37499,-1.10418 -3.08332,-1.93751 -5.125,-2.5 -2.02084,-0.58333 -4.35418,-0.875 -7,-0.875 z"
       transform="matrix(0.26458333,0,0,0.26458333,-14.339474,81.904382)"
       id="path4560-1"
       inkscape:connector-curvature="0" />
  </g>
</svg>
