<?xml version="1.0" encoding="UTF-8" standalone="no"?>
<!-- Created with Inkscape (http://www.inkscape.org/) -->

<svg
   xmlns:dc="http://purl.org/dc/elements/1.1/"
   xmlns:cc="http://creativecommons.org/ns#"
   xmlns:rdf="http://www.w3.org/1999/02/22-rdf-syntax-ns#"
   xmlns:svg="http://www.w3.org/2000/svg"
   xmlns="http://www.w3.org/2000/svg"
   xmlns:sodipodi="http://sodipodi.sourceforge.net/DTD/sodipodi-0.dtd"
   xmlns:inkscape="http://www.inkscape.org/namespaces/inkscape"
   width="9.0199957mm"
   height="10.814327mm"
   viewBox="0 0 9.0199957 10.814328"
   version="1.1"
   id="svg8"
   inkscape:version="0.92.4 (5da689c313, 2019-01-14)"
   sodipodi:docname="Q1-1.svg">
  <defs
     id="defs2" />
  <sodipodi:namedview
     id="base"
     pagecolor="#ffffff"
     bordercolor="#666666"
     borderopacity="1.0"
     inkscape:pageopacity="0.0"
     inkscape:pageshadow="2"
     inkscape:zoom="4"
     inkscape:cx="-73.512285"
     inkscape:cy="-45.911849"
     inkscape:document-units="in"
     inkscape:current-layer="layer1"
     showgrid="false"
     fit-margin-top="0"
     fit-margin-left="0"
     fit-margin-right="0"
     fit-margin-bottom="0"
     inkscape:window-width="1858"
     inkscape:window-height="1057"
     inkscape:window-x="54"
     inkscape:window-y="1072"
     inkscape:window-maximized="1" />
  <metadata
     id="metadata5">
    <rdf:RDF>
      <cc:Work
         rdf:about="">
        <dc:format>image/svg+xml</dc:format>
        <dc:type
           rdf:resource="http://purl.org/dc/dcmitype/StillImage" />
        <dc:title />
      </cc:Work>
    </rdf:RDF>
  </metadata>
  <g
     inkscape:label="Layer 1"
     inkscape:groupmode="layer"
     id="layer1"
    transform="translate(-337.89279999999997,-205.15240500000002)">
    <path
       style="font-style:normal;font-variant:normal;font-weight:bold;font-stretch:normal;font-size:16.93333244px;line-height:125%;font-family:Consolas;-inkscape-font-specification:'Consolas Bold';letter-spacing:0px;word-spacing:0px;fill:#000000;fill-opacity:1;stroke:none;stroke-width:0.26458332px;stroke-linecap:butt;stroke-linejoin:miter;stroke-opacity:1"
		d="m 348.029675 232.1882175 c -1.19505 -0.0882 -2.3354 -0.34451000000000004 -3.4158 -0.7854825 -1.3367 -0.551215 -2.508025 -1.39871 -3.514 -2.54248 -0.992175 -1.1437725 -1.777675 -2.604495 -2.3564499999999997 -4.3821625 -0.5650000000000001 -1.77767 -0.847475 -3.8929599999999995 -0.847475 -6.345865000000001 0.0 -4.506184999999999 0.895725 -7.9443874999999995 2.687175 -10.314615 0.89335 -1.175095 2.0063 -2.0567275 3.338275 -2.6458350000000004 h 9.110574999999999 c 0.526675 0.22457499999999997 1.02015 0.50534 1.4921499999999999 0.820365 l 0.717 -0.8177800000000001 5.20125 -0.022000000000000002 -3.15745 3.6561075 c 0.600425 0.9252725 1.09815 1.9983675 1.4883 3.2258999999999998 0.57875 1.77767 0.86815 3.8929625000000003 0.86815 6.3458675 0.0 4.519965 -0.895725 7.95817 -2.687175 10.314615 -1.624825 2.1372975 -3.9831 3.2945575 -7.058999999999999 3.4933275000000004 z m 0.738975 -4.547525 c 1.9567999999999999 0.0 3.362425 -0.785485 4.2168 -2.3564475 0.8544 -1.5709624999999998 1.2815750000000001 -3.95497 1.2815750000000001 -7.1520174999999995 0.0 -1.4882825 -0.10325000000000001 -2.8112 -0.31005 -3.96875 -0.07575 -0.4192 -0.173 -0.80586 -0.28035 -1.17693 l -1.032225 1.19631 h -1.3746 -3.9273999999999996 l 4.054 -4.623749999999999 c -0.04325 -0.027625000000000004 -0.08224999999999999 -0.061725 -0.1265 -0.08785 -0.689025 -0.3996325 -1.5227750000000002 -0.599445 -2.50115 -0.599445 -1.943025 0.0 -3.348625 0.7854825 -4.216775 2.356445 -0.8544 1.570965 -1.2815750000000001 3.95497 -1.2815750000000001 7.1520174999999995 0.0 1.4882825 0.10325000000000001 2.8043075 0.31005 3.94808 0.20675 1.1575525 0.530525 2.1290675 0.971525 2.91455 0.45475 0.7854800000000001 1.0266250000000001 1.3780400000000002 1.71565 1.77767 0.689025 0.4134125 1.522725 0.6201175 2.501125 0.6201175 z" 
       id="path4558-0"
       inkscape:connector-curvature="0" />
  </g>
</svg>
