<?xml version="1.0" encoding="UTF-8" standalone="no"?>
<!-- Created with Inkscape (http://www.inkscape.org/) -->

<svg
   xmlns:dc="http://purl.org/dc/elements/1.1/"
   xmlns:cc="http://creativecommons.org/ns#"
   xmlns:rdf="http://www.w3.org/1999/02/22-rdf-syntax-ns#"
   xmlns:svg="http://www.w3.org/2000/svg"
   xmlns="http://www.w3.org/2000/svg"
   xmlns:sodipodi="http://sodipodi.sourceforge.net/DTD/sodipodi-0.dtd"
   xmlns:inkscape="http://www.inkscape.org/namespaces/inkscape"
   width="9.0199957mm"
   height="10.814327mm"
   viewBox="0 0 9.0199957 10.814328"
   version="1.1"
   id="svg8"
   inkscape:version="0.92.4 (5da689c313, 2019-01-14)"
   sodipodi:docname="Q1-1.svg">
  <defs
     id="defs2" />
  <sodipodi:namedview
     id="base"
     pagecolor="#ffffff"
     bordercolor="#666666"
     borderopacity="1.0"
     inkscape:pageopacity="0.0"
     inkscape:pageshadow="2"
     inkscape:zoom="4"
     inkscape:cx="-30.887285"
     inkscape:cy="-45.911849"
     inkscape:document-units="in"
     inkscape:current-layer="layer1"
     showgrid="false"
     fit-margin-top="0"
     fit-margin-left="0"
     fit-margin-right="0"
     fit-margin-bottom="0"
     inkscape:window-width="1858"
     inkscape:window-height="1057"
     inkscape:window-x="54"
     inkscape:window-y="1072"
     inkscape:window-maximized="1" />
  <metadata
     id="metadata5">
    <rdf:RDF>
      <cc:Work
         rdf:about="">
        <dc:format>image/svg+xml</dc:format>
        <dc:type
           rdf:resource="http://purl.org/dc/dcmitype/StillImage" />
        <dc:title />
      </cc:Work>
    </rdf:RDF>
  </metadata>
  <g
     inkscape:label="Layer 1"
     inkscape:groupmode="layer"
     id="layer1"
     transform="translate(-135.15712,-82.060962)">
    <path
       style="font-style:normal;font-variant:normal;font-weight:bold;font-stretch:normal;font-size:16.93333244px;line-height:125%;font-family:Consolas;-inkscape-font-specification:'Consolas Bold';letter-spacing:0px;word-spacing:0px;fill:#000000;fill-opacity:1;stroke:none;stroke-width:0.99999994px;stroke-linecap:butt;stroke-linejoin:miter;stroke-opacity:1"
       d="m 580.35156,0.59179688 c -1.80669,0.13334172 -3.5307,0.52083292 -5.16406,1.18750002 -2.02084,0.8333329 -3.79166,2.1145859 -5.3125,3.84375 -1.49998,1.7291678 -2.6875,3.9375026 -3.5625,6.6250001 -0.85417,2.687501 -1.28125,5.885421 -1.28125,9.59375 0,6.8125 1.35417,12.010414 4.0625,15.59375 1.35058,1.776521 3.03315,3.109381 5.04687,4 h 13.77344 c 0.79625,-0.339504 1.5423,-0.763978 2.25586,-1.240235 l 1.08399,1.236329 7.86328,0.0332 -4.77344,-5.527344 c 0.90772,-1.398836 1.66017,-3.021155 2.25,-4.876953 0.87496,-2.687501 1.3125,-5.885421 1.3125,-9.59375 0,-6.833333 -1.35417,-12.0312507 -4.0625,-15.5937501 -2.45643,-3.2311899 -6.02171,-4.98074736 -10.67187,-5.28125002 z m 1.11719,6.87500002 c 2.95831,0 5.08335,1.1875014 6.375,3.5625001 1.29169,2.374998 1.9375,5.979168 1.9375,10.8125 0,2.250002 -0.15607,4.250003 -0.46875,6 -0.11456,0.633751 -0.26173,1.218307 -0.42383,1.779297 L 587.32812,27.8125 H 585.25 579.3125 l 6.12891,6.990234 c -0.0656,0.04175 -0.12426,0.09331 -0.19141,0.132813 -1.04168,0.604169 -2.30213,0.90625 -3.78125,0.90625 -2.93752,0 -5.06252,-1.187502 -6.375,-3.5625 -1.29169,-2.375002 -1.9375,-5.979168 -1.9375,-10.8125 0,-2.250002 0.15611,-4.239582 0.46875,-5.96875 0.31257,-1.750001 0.80204,-3.218749 1.46875,-4.40625 0.6875,-1.1874975 1.55207,-2.0833351 2.59375,-2.6875001 1.04168,-0.6250016 2.30206,-0.9375 3.78125,-0.9375 z"
       transform="matrix(0.26458333,0,0,0.26458333,-14.339474,81.904382)"
       id="path4558-0"
       inkscape:connector-curvature="0" />
  </g>
</svg>
