<?xml version="1.0" encoding="UTF-8" standalone="no"?>
<!-- Created with Inkscape (http://www.inkscape.org/) -->

<svg
   xmlns:dc="http://purl.org/dc/elements/1.1/"
   xmlns:cc="http://creativecommons.org/ns#"
   xmlns:rdf="http://www.w3.org/1999/02/22-rdf-syntax-ns#"
   xmlns:svg="http://www.w3.org/2000/svg"
   xmlns="http://www.w3.org/2000/svg"
   xmlns:sodipodi="http://sodipodi.sourceforge.net/DTD/sodipodi-0.dtd"
   xmlns:inkscape="http://www.inkscape.org/namespaces/inkscape"
   width="9.0199957mm"
   height="10.813876mm"
   viewBox="0 0 9.0199957 10.813876"
   version="1.1"
   id="svg8"
   inkscape:version="0.92.4 (5da689c313, 2019-01-14)"
   sodipodi:docname="Q2-1.svg">
  <defs
     id="defs2" />
  <sodipodi:namedview
     id="base"
     pagecolor="#ffffff"
     bordercolor="#666666"
     borderopacity="1.0"
     inkscape:pageopacity="0.0"
     inkscape:pageshadow="2"
     inkscape:zoom="5.6568543"
     inkscape:cx="-90.901528"
     inkscape:cy="-15.126981"
     inkscape:document-units="in"
     inkscape:current-layer="layer1"
     showgrid="false"
     fit-margin-top="0"
     fit-margin-left="0"
     fit-margin-right="0"
     fit-margin-bottom="0"
     inkscape:window-width="1858"
     inkscape:window-height="1057"
     inkscape:window-x="54"
     inkscape:window-y="1072"
     inkscape:window-maximized="1" />
  <metadata
     id="metadata5">
    <rdf:RDF>
      <cc:Work
         rdf:about="">
        <dc:format>image/svg+xml</dc:format>
        <dc:type
           rdf:resource="http://purl.org/dc/dcmitype/StillImage" />
        <dc:title />
      </cc:Work>
    </rdf:RDF>
  </metadata>
  <g
     inkscape:label="Layer 1"
     inkscape:groupmode="layer"
     id="layer1"
     transform="translate(-135.31697,-134.09448)">
    <path
       inkscape:connector-curvature="0"
       style="font-style:normal;font-variant:normal;font-weight:bold;font-stretch:normal;font-size:16.93333244px;line-height:125%;font-family:Consolas;-inkscape-font-specification:'Consolas Bold';letter-spacing:0px;word-spacing:0px;fill:#000000;fill-opacity:1;stroke:none;stroke-width:0.26458332px;stroke-linecap:butt;stroke-linejoin:miter;stroke-opacity:1"
       d="m 139.37173,144.90105 c -0.47802,-0.0353 -0.93417,-0.1378 -1.36633,-0.31419 -0.53468,-0.22049 -1.00321,-0.55948 -1.4056,-1.01699 -0.39687,-0.45751 -0.71106,-1.0418 -0.94258,-1.75287 -0.22599,-0.71106 -0.33899,-1.55718 -0.33899,-2.53834 0,-1.80248 0.35828,-3.17776 1.07487,-4.12585 0.35733,-0.47004 0.80252,-0.82269 1.33531,-1.05833 h 3.64423 c 0.51779,0.22077 0.97014,0.54977 1.35392,0.99218 0.40239,0.45751 0.71658,1.0418 0.94258,1.75287 0.2315,0.71107 0.34726,1.55718 0.34726,2.53835 0,1.80798 -0.35829,3.18326 -1.07487,4.12584 -0.64993,0.85492 -1.59324,1.31783 -2.8236,1.39733 z m 0.29559,-1.81901 c 0.78271,0 1.34496,-0.31419 1.68671,-0.94258 0.34176,-0.62838 0.51263,-1.58198 0.51263,-2.8608 0,-0.59532 -0.0413,-1.12448 -0.12402,-1.5875 -0.0827,-0.45751 -0.21221,-0.84336 -0.38861,-1.15756 -0.17638,-0.31419 -0.40514,-0.55397 -0.68626,-0.71933 -0.27561,-0.15985 -0.6091,-0.23978 -1.00045,-0.23978 -0.77722,0 -1.33946,0.31419 -1.68672,0.94258 -0.34176,0.62838 -0.51263,1.58199 -0.51263,2.86081 0,0.59531 0.0413,1.12172 0.12402,1.57923 0.0827,0.46302 0.21221,0.85162 0.38861,1.16582 0.18189,0.31419 0.41065,0.55121 0.68626,0.71107 0.27561,0.16536 0.60909,0.24804 1.00046,0.24804 z"
       id="path4558-4" />
  </g>
</svg>
