<?xml version="1.0" encoding="UTF-8" standalone="no"?>
<!-- Created with Inkscape (http://www.inkscape.org/) -->

<svg
   xmlns:dc="http://purl.org/dc/elements/1.1/"
   xmlns:cc="http://creativecommons.org/ns#"
   xmlns:rdf="http://www.w3.org/1999/02/22-rdf-syntax-ns#"
   xmlns:svg="http://www.w3.org/2000/svg"
   xmlns="http://www.w3.org/2000/svg"
   xmlns:sodipodi="http://sodipodi.sourceforge.net/DTD/sodipodi-0.dtd"
   xmlns:inkscape="http://www.inkscape.org/namespaces/inkscape"
   width="9.0199957mm"
   height="10.813876mm"
   viewBox="0 0 9.0199957 10.813876"
   version="1.1"
   id="svg8"
   inkscape:version="0.92.4 (5da689c313, 2019-01-14)"
   sodipodi:docname="Q2-1.svg">
  <defs
     id="defs2" />
  <sodipodi:namedview
     id="base"
     pagecolor="#ffffff"
     bordercolor="#666666"
     borderopacity="1.0"
     inkscape:pageopacity="0.0"
     inkscape:pageshadow="2"
     inkscape:zoom="5.6568543"
     inkscape:cx="-90.901528"
     inkscape:cy="-15.126981"
     inkscape:document-units="in"
     inkscape:current-layer="layer1"
     showgrid="false"
     fit-margin-top="0"
     fit-margin-left="0"
     fit-margin-right="0"
     fit-margin-bottom="0"
     inkscape:window-width="1858"
     inkscape:window-height="1057"
     inkscape:window-x="54"
     inkscape:window-y="1072"
     inkscape:window-maximized="1" />
  <metadata
     id="metadata5">
    <rdf:RDF>
      <cc:Work
         rdf:about="">
        <dc:format>image/svg+xml</dc:format>
        <dc:type
           rdf:resource="http://purl.org/dc/dcmitype/StillImage" />
        <dc:title />
      </cc:Work>
    </rdf:RDF>
  </metadata>
  <g
     inkscape:label="Layer 1"
     inkscape:groupmode="layer"
     id="layer1"
    transform="translate(-338.292425,-335.2362)">
    <path
       inkscape:connector-curvature="0"
       style="font-style:normal;font-variant:normal;font-weight:bold;font-stretch:normal;font-size:16.93333244px;line-height:125%;font-family:Consolas;-inkscape-font-specification:'Consolas Bold';letter-spacing:0px;word-spacing:0px;fill:#000000;fill-opacity:1;stroke:none;stroke-width:0.26458332px;stroke-linecap:butt;stroke-linejoin:miter;stroke-opacity:1"
		d="m 348.42932500000006 362.25262499999997 c -1.19505 -0.08825 -2.335425 -0.34450000000000003 -3.415825 -0.785475 -1.3367 -0.551225 -2.508025 -1.3986999999999998 -3.514 -2.542475 -0.992175 -1.143775 -1.77765 -2.6045000000000003 -2.3564499999999997 -4.382175 -0.564975 -1.77765 -0.847475 -3.89295 -0.847475 -6.3458499999999995 0.0 -4.5062 0.8956999999999999 -7.9444 2.687175 -10.314625 0.8933249999999999 -1.1751 2.0063 -2.056725 3.338275 -2.645825 h 9.110574999999999 c 1.2944749999999998 0.551925 2.42535 1.374425 3.3848000000000003 2.48045 1.005975 1.143775 1.79145 2.6045000000000003 2.3564499999999997 4.382175 0.57875 1.777675 0.86815 3.89295 0.86815 6.3458749999999995 0.0 4.51995 -0.895725 7.958150000000001 -2.687175 10.3146 -1.624825 2.1373 -3.9831 3.294575 -7.058999999999999 3.493325 z m 0.738975 -4.547525 c 1.956775 0.0 3.3624 -0.785475 4.216775 -2.3564499999999997 0.8544 -1.57095 1.2815750000000001 -3.9549499999999997 1.2815750000000001 -7.151999999999999 0.0 -1.4883 -0.10325000000000001 -2.8112 -0.31005 -3.96875 -0.20675 -1.143775 -0.530525 -2.1084 -0.971525 -2.8939 -0.44095 -0.785475 -1.01285 -1.384925 -1.71565 -1.7983250000000002 -0.689025 -0.399625 -1.5227499999999998 -0.59945 -2.501125 -0.59945 -1.94305 0.0 -3.34865 0.785475 -4.2168 2.3564499999999997 -0.8544 1.57095 -1.2815750000000001 3.954975 -1.2815750000000001 7.152025 0.0 1.488275 0.10325000000000001 2.8043 0.31005 3.948075 0.20675 1.15755 0.530525 2.1290500000000003 0.971525 2.91455 0.454725 0.785475 1.0266250000000001 1.378025 1.71565 1.777675 0.689025 0.4134 1.522725 0.6201 2.50115 0.6201 z" 
       id="path4558-4" />
  </g>
</svg>
