<?xml version="1.0" encoding="UTF-8" standalone="no"?>
<svg
   xmlns:dc="http://purl.org/dc/elements/1.1/"
   xmlns:cc="http://creativecommons.org/ns#"
   xmlns:rdf="http://www.w3.org/1999/02/22-rdf-syntax-ns#"
   xmlns:svg="http://www.w3.org/2000/svg"
   xmlns="http://www.w3.org/2000/svg"
   xmlns:sodipodi="http://sodipodi.sourceforge.net/DTD/sodipodi-0.dtd"
   xmlns:inkscape="http://www.inkscape.org/namespaces/inkscape"
   id="svg8"
   version="1.1"
   viewBox="0 0 7.8383021 10.806579"
   height="10.806579mm"
   width="7.8383021mm"
   sodipodi:docname="R1-1.svg"
   inkscape:version="0.92.4 (5da689c313, 2019-01-14)">
  <sodipodi:namedview
     pagecolor="#ffffff"
     bordercolor="#666666"
     borderopacity="1"
     objecttolerance="10"
     gridtolerance="10"
     guidetolerance="10"
     inkscape:pageopacity="0"
     inkscape:pageshadow="2"
     inkscape:window-width="1858"
     inkscape:window-height="1057"
     id="namedview7"
     showgrid="false"
     inkscape:zoom="5.12"
     inkscape:cx="-62.277973"
     inkscape:cy="21.068083"
     inkscape:window-x="54"
     inkscape:window-y="1072"
     inkscape:window-maximized="1"
     inkscape:current-layer="svg8" />
  <defs
     id="defs2" />
  <metadata
     id="metadata5">
    <rdf:RDF>
      <cc:Work
         rdf:about="">
        <dc:format>image/svg+xml</dc:format>
        <dc:type
           rdf:resource="http://purl.org/dc/dcmitype/StillImage" />
        <dc:title />
      </cc:Work>
    </rdf:RDF>
  </metadata>
  <path
     style="font-style:normal;font-variant:normal;font-weight:bold;font-stretch:normal;font-size:16.93333244px;line-height:125%;font-family:Consolas;-inkscape-font-specification:'Consolas Bold';letter-spacing:0px;word-spacing:0px;fill:#000000;fill-opacity:1;stroke:none;stroke-width:0.99999994px;stroke-linecap:butt;stroke-linejoin:miter;stroke-opacity:1"
     d="M 0 0 L 5.085 0 L 5.085 11.1829 L 6.0565 11.1829 C 6.9248 11.1829 7.6759 10.9694 8.3097 10.5421 C 8.9574 10.1286 9.4604 9.5088 9.8187 8.6817 L 13.6221 0 L 19.5959 0 C 14.7245 10.2114 14.1733 11.0934 13.6221 11.6997 C 13.0708 12.3199 12.4748 12.7056 11.8031 12.8366 C 11.8031 12.8366 13.443 13.2156 14.1595 13.5601 C 14.89 13.9046 15.5171 14.3524 16.0406 14.9037 C 16.5643 15.4687 16.9706 16.137 17.2602 16.9088 C 17.5494 17.6805 17.6942 18.5626 17.6942 19.5546 C 17.6942 20.9329 17.4599 22.097 16.9914 23.048 C 16.5367 23.9988 15.8822 24.7706 15.0277 25.3631 C 14.1734 25.9556 13.1396 26.376 11.9271 26.624 C 10.7143 26.8858 9.3639 27.0168 7.8756 27.0168 L 0 27.0168 L 0 0 Z M 5.085 15.1517 L 5.085 22.7901 L 7.3175 22.7901 C 8.9985 22.7791 10.2597 22.4898 11.1002 21.9111 C 11.941 21.3323 12.3612 20.3815 12.3612 19.0585 C 12.3612 18.4248 12.2371 17.8598 11.9891 17.3635 C 11.7411 16.8812 11.3896 16.4747 10.9349 16.1439 C 10.4801 15.8132 9.929 15.5653 9.2812 15.3998 C 8.6474 15.2345 7.9376 15.1517 7.1521 15.1517 L 5.085 15.1517 Z"
     id="path4564" />
</svg>
