<?xml version="1.0" encoding="UTF-8" standalone="no"?>
<svg
   xmlns:dc="http://purl.org/dc/elements/1.1/"
   xmlns:cc="http://creativecommons.org/ns#"
   xmlns:rdf="http://www.w3.org/1999/02/22-rdf-syntax-ns#"
   xmlns:svg="http://www.w3.org/2000/svg"
   xmlns="http://www.w3.org/2000/svg"
   xmlns:sodipodi="http://sodipodi.sourceforge.net/DTD/sodipodi-0.dtd"
   xmlns:inkscape="http://www.inkscape.org/namespaces/inkscape"
   id="svg8"
   version="1.1"
   viewBox="0 0 7.8383021 10.806579"
   height="10.806579mm"
   width="7.8383021mm"
   sodipodi:docname="R2-1.svg"
   inkscape:version="0.92.4 (5da689c313, 2019-01-14)">
  <sodipodi:namedview
     pagecolor="#ffffff"
     bordercolor="#666666"
     borderopacity="1"
     objecttolerance="10"
     gridtolerance="10"
     guidetolerance="10"
     inkscape:pageopacity="0"
     inkscape:pageshadow="2"
     inkscape:window-width="1858"
     inkscape:window-height="1057"
     id="namedview7"
     showgrid="false"
     inkscape:zoom="7.2407734"
     inkscape:cx="8.0981126"
     inkscape:cy="12.481442"
     inkscape:window-x="54"
     inkscape:window-y="1072"
     inkscape:window-maximized="1"
     inkscape:current-layer="svg8" />
  <defs
     id="defs2" />
  <metadata
     id="metadata5">
    <rdf:RDF>
      <cc:Work
         rdf:about="">
        <dc:format>image/svg+xml</dc:format>
        <dc:type
           rdf:resource="http://purl.org/dc/dcmitype/StillImage" />
        <dc:title />
      </cc:Work>
    </rdf:RDF>
  </metadata>
  <path
     d="M 2.034 0 V 4.731 C 2.9323 4.7387 3.8066 4.9325 4.7212 5.1346 C 4.7212 5.1346 5.3771 5.2862 5.6637 5.424 C 5.9559 5.5618 6.2067 5.7409 6.4161 5.9614 C 6.6256 6.1874 6.7882 6.4547 6.904 6.7634 C 7.0197 7.0721 7.0776 7.4249 7.0776 7.8217 C 7.0776 8.373 6.9839 8.8387 6.7965 9.2191 C 6.6146 9.5994 6.3528 9.9081 6.011 10.1451 C 5.6693 10.3821 5.2558 10.5503 4.7708 10.6495 C 4.2857 10.7542 3.7455 10.8066 3.1502 10.8066 H 0 V 0 Z M 2.927 9.116 C 3.5994 9.1116 4.1038 8.9958 4.44 8.7643 C 4.7763 8.5328 4.9444 8.1525 4.9444 7.6233 C 4.9444 7.3698 4.8948 7.1438 4.7956 6.9453 C 4.6964 6.7524 4.5558 6.5898 4.3739 6.4575 C 4.192 6.3252 3.9715 6.226 3.7124 6.1598 C 3.4589 6.0937 3.175 6.0606 2.8608 6.0606 H 2.034 V 9.116 Z"
     style="font-style:normal;font-variant:normal;font-weight:bold;font-stretch:normal;font-size:16.93333244px;line-height:125%;font-family:Consolas;-inkscape-font-specification:'Consolas Bold';letter-spacing:0px;word-spacing:0px;fill:#000000;fill-opacity:1;stroke:none;stroke-width:0.26458332px;stroke-linecap:butt;stroke-linejoin:miter;stroke-opacity:1"
     id="path4564"
     inkscape:connector-curvature="0" />
</svg>
