<?xml version="1.0" encoding="UTF-8" standalone="no"?>
<svg
   xmlns:dc="http://purl.org/dc/elements/1.1/"
   xmlns:cc="http://creativecommons.org/ns#"
   xmlns:rdf="http://www.w3.org/1999/02/22-rdf-syntax-ns#"
   xmlns:svg="http://www.w3.org/2000/svg"
   xmlns="http://www.w3.org/2000/svg"
   xmlns:sodipodi="http://sodipodi.sourceforge.net/DTD/sodipodi-0.dtd"
   xmlns:inkscape="http://www.inkscape.org/namespaces/inkscape"
   id="svg8"
   version="1.1"
   viewBox="0 0 7.8383021 10.806579"
   height="10.806579mm"
   width="7.8383021mm"
   sodipodi:docname="R2-1.svg"
   inkscape:version="0.92.4 (5da689c313, 2019-01-14)">
  <sodipodi:namedview
     pagecolor="#ffffff"
     bordercolor="#666666"
     borderopacity="1"
     objecttolerance="10"
     gridtolerance="10"
     guidetolerance="10"
     inkscape:pageopacity="0"
     inkscape:pageshadow="2"
     inkscape:window-width="1858"
     inkscape:window-height="1057"
     id="namedview7"
     showgrid="false"
     inkscape:zoom="7.2407734"
     inkscape:cx="8.0981126"
     inkscape:cy="12.481442"
     inkscape:window-x="54"
     inkscape:window-y="1072"
     inkscape:window-maximized="1"
     inkscape:current-layer="svg8" />
  <defs
     id="defs2" />
  <metadata
     id="metadata5">
    <rdf:RDF>
      <cc:Work
         rdf:about="">
        <dc:format>image/svg+xml</dc:format>
        <dc:type
           rdf:resource="http://purl.org/dc/dcmitype/StillImage" />
        <dc:title />
      </cc:Work>
    </rdf:RDF>
  </metadata>
  <path
		d="M 5.084999999999999 0.0 V 11.8275 C 7.33075 11.84675 9.5165 12.33125 11.802999999999999 12.8365 C 11.802999999999999 12.8365 13.44275 13.2155 14.15925 13.56 C 14.88975 13.904499999999999 15.516749999999998 14.35225 16.04025 14.903500000000001 C 16.564 15.4685 16.9705 16.13675 17.259999999999998 16.9085 C 17.54925 17.68025 17.694000000000003 18.56225 17.694000000000003 19.55425 C 17.694000000000003 20.932499999999997 17.45975 22.09675 16.99125 23.047749999999997 C 16.5365 23.9985 15.882000000000001 24.770249999999997 15.0275 25.36275 C 14.17325 25.95525 13.1395 26.37575 11.927000000000001 26.62375 C 10.71425 26.8855 9.36375 27.0165 7.8755 27.0165 H 0.0 V 0.0 Z M 7.3175 22.79 C 8.9985 22.778999999999996 10.2595 22.4895 11.100000000000001 21.91075 C 11.94075 21.332 12.361 20.38125 12.361 19.05825 C 12.361 18.4245 12.237 17.8595 11.989 17.36325 C 11.741 16.881 11.389499999999998 16.4745 10.93475 16.143749999999997 C 10.48 15.812999999999999 9.928749999999999 15.565 9.281 15.3995 C 8.64725 15.23425 7.9375 15.1515 7.151999999999999 15.1515 H 5.084999999999999 V 22.79 Z" 
     style="font-style:normal;font-variant:normal;font-weight:bold;font-stretch:normal;font-size:16.93333244px;line-height:125%;font-family:Consolas;-inkscape-font-specification:'Consolas Bold';letter-spacing:0px;word-spacing:0px;fill:#000000;fill-opacity:1;stroke:none;stroke-width:0.26458332px;stroke-linecap:butt;stroke-linejoin:miter;stroke-opacity:1"
     id="path4564"
     inkscape:connector-curvature="0" />
</svg>
