<?xml version="1.0" encoding="UTF-8" standalone="no"?>
<!-- Created with Inkscape (http://www.inkscape.org/) -->

<svg
   xmlns:dc="http://purl.org/dc/elements/1.1/"
   xmlns:cc="http://creativecommons.org/ns#"
   xmlns:rdf="http://www.w3.org/1999/02/22-rdf-syntax-ns#"
   xmlns:svg="http://www.w3.org/2000/svg"
   xmlns="http://www.w3.org/2000/svg"
   xmlns:sodipodi="http://sodipodi.sourceforge.net/DTD/sodipodi-0.dtd"
   xmlns:inkscape="http://www.inkscape.org/namespaces/inkscape"
   width="7.8382978mm"
   height="10.806579mm"
   viewBox="0 0 7.8382978 10.806579"
   version="1.1"
   id="svg8"
   inkscape:version="0.92.4 (5da689c313, 2019-01-14)"
   sodipodi:docname="R3-2.svg">
  <defs
     id="defs2" />
  <sodipodi:namedview
     id="base"
     pagecolor="#ffffff"
     bordercolor="#666666"
     borderopacity="1.0"
     inkscape:pageopacity="0.0"
     inkscape:pageshadow="2"
     inkscape:zoom="2"
     inkscape:cx="-232.71629"
     inkscape:cy="-94.083159"
     inkscape:document-units="in"
     inkscape:current-layer="layer1"
     showgrid="false"
     fit-margin-top="0"
     fit-margin-left="0"
     fit-margin-right="0"
     fit-margin-bottom="0"
     inkscape:window-width="1858"
     inkscape:window-height="1057"
     inkscape:window-x="54"
     inkscape:window-y="1072"
     inkscape:window-maximized="1" />
  <metadata
     id="metadata5">
    <rdf:RDF>
      <cc:Work
         rdf:about="">
        <dc:format>image/svg+xml</dc:format>
        <dc:type
           rdf:resource="http://purl.org/dc/dcmitype/StillImage" />
        <dc:title />
      </cc:Work>
    </rdf:RDF>
  </metadata>
  <g
     inkscape:label="Layer 1"
     inkscape:groupmode="layer"
     id="layer1"
     transform="translate(-145.40323,-147.44818)">
    <path
       style="font-style:normal;font-variant:normal;font-weight:bold;font-stretch:normal;font-size:16.93333244px;line-height:125%;font-family:Consolas;-inkscape-font-specification:'Consolas Bold';letter-spacing:0px;word-spacing:0px;fill:#000000;fill-opacity:1;stroke:none;stroke-width:0.99999994px;stroke-linecap:butt;stroke-linejoin:miter;stroke-opacity:1"
       d="m 603.75195,247.72461 v 40.84375 h 7.6875 v -16.90625 c 3.39511,-1.00365 6.69984,-1.73638 10.15625,-2.5 0,0 2.47918,-0.57289 3.5625,-1.09375 1.10419,-0.52082 2.05209,-1.1979 2.84375,-2.03125 0.79166,-0.85417 1.40624,-1.86459 1.84375,-3.03125 0.43741,-1.16667 0.65625,-2.50002 0.65625,-4 0,-0.17541 -0.0165,-0.33503 -0.0215,-0.50586 h -8.14063 c 0.0638,0.39171 0.0996,0.80765 0.0996,1.25586 0,0.9583 -0.18757,1.81249 -0.5625,2.5625 -0.375,0.72915 -0.90625,1.34372 -1.59375,1.84375 -0.68749,0.49999 -1.52083,0.87517 -2.5,1.125 -0.95833,0.24983 -2.03126,0.375 -3.21875,0.375 h -3.125 v -11.53125 h 0.002 v -6.40625 z"
       transform="matrix(0.26458333,0,0,0.26458333,-14.339474,81.904382)"
       id="path4564-0"
       inkscape:connector-curvature="0" />
  </g>
</svg>
