<?xml version="1.0" encoding="UTF-8" standalone="no"?>
<!-- Created with Inkscape (http://www.inkscape.org/) -->

<svg
   xmlns:dc="http://purl.org/dc/elements/1.1/"
   xmlns:cc="http://creativecommons.org/ns#"
   xmlns:rdf="http://www.w3.org/1999/02/22-rdf-syntax-ns#"
   xmlns:svg="http://www.w3.org/2000/svg"
   xmlns="http://www.w3.org/2000/svg"
   xmlns:sodipodi="http://sodipodi.sourceforge.net/DTD/sodipodi-0.dtd"
   xmlns:inkscape="http://www.inkscape.org/namespaces/inkscape"
   width="7.8382978mm"
   height="10.806579mm"
   viewBox="0 0 7.8382978 10.806579"
   version="1.1"
   id="svg8"
   inkscape:version="0.92.4 (5da689c313, 2019-01-14)"
   sodipodi:docname="R3-2.svg">
  <defs
     id="defs2" />
  <sodipodi:namedview
     id="base"
     pagecolor="#ffffff"
     bordercolor="#666666"
     borderopacity="1.0"
     inkscape:pageopacity="0.0"
     inkscape:pageshadow="2"
     inkscape:zoom="2"
     inkscape:cx="-317.96629"
     inkscape:cy="-94.083159"
     inkscape:document-units="in"
     inkscape:current-layer="layer1"
     showgrid="false"
     fit-margin-top="0"
     fit-margin-left="0"
     fit-margin-right="0"
     fit-margin-bottom="0"
     inkscape:window-width="1858"
     inkscape:window-height="1057"
     inkscape:window-x="54"
     inkscape:window-y="1072"
     inkscape:window-maximized="1" />
  <metadata
     id="metadata5">
    <rdf:RDF>
      <cc:Work
         rdf:about="">
        <dc:format>image/svg+xml</dc:format>
        <dc:type
           rdf:resource="http://purl.org/dc/dcmitype/StillImage" />
        <dc:title />
      </cc:Work>
    </rdf:RDF>
  </metadata>
  <g
     inkscape:label="Layer 1"
     inkscape:groupmode="layer"
     id="layer1"
     transform="translate(-145.40323,-147.44818)">
    <path
       style="font-style:normal;font-variant:normal;font-weight:bold;font-stretch:normal;font-size:16.93333244px;line-height:125%;font-family:Consolas;-inkscape-font-specification:'Consolas Bold';letter-spacing:0px;word-spacing:0px;fill:#000000;fill-opacity:1;stroke:none;stroke-width:0.26458332px;stroke-linecap:butt;stroke-linejoin:miter;stroke-opacity:1"
       d="M 145.4032 158.2548 V 147.4482 H 147.4372 V 151.9213 C 148.3355 152.1868 149.2099 152.3807 150.1244 152.5828 C 150.1244 152.5828 150.7803 152.7343 151.067 152.8721 C 151.3591 153.0099 151.6099 153.1891 151.8194 153.4096 C 152.0288 153.6356 152.1914 153.9029 152.3072 154.2116 C 152.4229 154.5203 152.4808 154.8731 152.4808 155.2699 C 152.4808 155.3163 152.4768 155.3585 152.4748 155.4038 H 150.321 C 150.3379 155.3001 150.3474 155.1901 150.3474 155.0715 C 150.3474 154.8179 150.2978 154.5919 150.1985 154.3935 C 150.0993 154.2006 149.9588 154.038 149.7768 153.9057 C 149.5949 153.7734 149.3745 153.6741 149.1154 153.608 C 148.8618 153.5419 148.578 153.5088 148.2638 153.5088 H 147.4369 V 156.5598 H 147.4375 V 158.2548 Z"
       id="path4564-0"
       inkscape:connector-curvature="0" />
  </g>
</svg>
