<?xml version="1.0" encoding="UTF-8" standalone="no"?>
<!-- Created with Inkscape (http://www.inkscape.org/) -->

<svg
   xmlns:dc="http://purl.org/dc/elements/1.1/"
   xmlns:cc="http://creativecommons.org/ns#"
   xmlns:rdf="http://www.w3.org/1999/02/22-rdf-syntax-ns#"
   xmlns:svg="http://www.w3.org/2000/svg"
   xmlns="http://www.w3.org/2000/svg"
   xmlns:sodipodi="http://sodipodi.sourceforge.net/DTD/sodipodi-0.dtd"
   xmlns:inkscape="http://www.inkscape.org/namespaces/inkscape"
   width="7.8382978mm"
   height="10.806579mm"
   viewBox="0 0 7.8382978 10.806579"
   version="1.1"
   id="svg8"
   inkscape:version="0.92.4 (5da689c313, 2019-01-14)"
   sodipodi:docname="R3-2.svg">
  <defs
     id="defs2" />
  <sodipodi:namedview
     id="base"
     pagecolor="#ffffff"
     bordercolor="#666666"
     borderopacity="1.0"
     inkscape:pageopacity="0.0"
     inkscape:pageshadow="2"
     inkscape:zoom="2"
     inkscape:cx="-317.96629"
     inkscape:cy="-94.083159"
     inkscape:document-units="in"
     inkscape:current-layer="layer1"
     showgrid="false"
     fit-margin-top="0"
     fit-margin-left="0"
     fit-margin-right="0"
     fit-margin-bottom="0"
     inkscape:window-width="1858"
     inkscape:window-height="1057"
     inkscape:window-x="54"
     inkscape:window-y="1072"
     inkscape:window-maximized="1" />
  <metadata
     id="metadata5">
    <rdf:RDF>
      <cc:Work
         rdf:about="">
        <dc:format>image/svg+xml</dc:format>
        <dc:type
           rdf:resource="http://purl.org/dc/dcmitype/StillImage" />
        <dc:title />
      </cc:Work>
    </rdf:RDF>
  </metadata>
  <g
     inkscape:label="Layer 1"
     inkscape:groupmode="layer"
     id="layer1"
    transform="translate(-363.508075,-368.62045)">
    <path
       style="font-style:normal;font-variant:normal;font-weight:bold;font-stretch:normal;font-size:16.93333244px;line-height:125%;font-family:Consolas;-inkscape-font-specification:'Consolas Bold';letter-spacing:0px;word-spacing:0px;fill:#000000;fill-opacity:1;stroke:none;stroke-width:0.26458332px;stroke-linecap:butt;stroke-linejoin:miter;stroke-opacity:1"
		d="M 363.508 395.63699999999994 V 368.62050000000005 H 368.59299999999996 V 379.80325 C 370.83875 380.467 373.02475000000004 380.95174999999995 375.31100000000004 381.457 C 375.31100000000004 381.457 376.95075 381.83574999999996 377.6675 382.18025 C 378.39775000000003 382.52475 379.02475000000004 382.97275 379.5485 383.524 C 380.072 384.08900000000006 380.47849999999994 384.75725 380.768 385.529 C 381.05725 386.30075 381.202 387.18275 381.202 388.17475 C 381.202 388.29075 381.192 388.39625 381.18699999999995 388.5095 H 375.8025 C 375.84475 388.25024999999994 375.8685 387.97525 375.8685 387.67875 C 375.8685 387.04475 375.7445 386.47975 375.49625 385.98375 C 375.24825 385.5015 374.897 385.095 374.442 384.76425 C 373.98725 384.43350000000004 373.43625000000003 384.18525 372.7885 384.02 C 372.1545 383.85474999999997 371.445 383.77200000000005 370.6595 383.77200000000005 H 368.59225000000004 V 391.3995 H 368.59375 V 395.63699999999994 Z" 
       id="path4564-0"
       inkscape:connector-curvature="0" />
  </g>
</svg>
