<?xml version="1.0" encoding="UTF-8" standalone="no"?>
<!-- Created with Inkscape (http://www.inkscape.org/) -->

<svg
   xmlns:dc="http://purl.org/dc/elements/1.1/"
   xmlns:cc="http://creativecommons.org/ns#"
   xmlns:rdf="http://www.w3.org/1999/02/22-rdf-syntax-ns#"
   xmlns:svg="http://www.w3.org/2000/svg"
   xmlns="http://www.w3.org/2000/svg"
   xmlns:sodipodi="http://sodipodi.sourceforge.net/DTD/sodipodi-0.dtd"
   xmlns:inkscape="http://www.inkscape.org/namespaces/inkscape"
   width="7.8384333mm"
   height="10.806522mm"
   viewBox="0 0 7.8384332 10.806523"
   version="1.1"
   id="svg8"
   inkscape:version="0.92.4 (5da689c313, 2019-01-14)"
   sodipodi:docname="S1-1.svg">
  <defs
     id="defs2" />
  <sodipodi:namedview
     id="base"
     pagecolor="#ffffff"
     bordercolor="#666666"
     borderopacity="1.0"
     inkscape:pageopacity="0.0"
     inkscape:pageshadow="2"
     inkscape:zoom="2"
     inkscape:cx="-50.215239"
     inkscape:cy="-156.94475"
     inkscape:document-units="in"
     inkscape:current-layer="layer1"
     showgrid="false"
     fit-margin-top="0"
     fit-margin-left="0"
     fit-margin-right="0"
     fit-margin-bottom="0"
     inkscape:window-width="1858"
     inkscape:window-height="1057"
     inkscape:window-x="54"
     inkscape:window-y="1072"
     inkscape:window-maximized="1" />
  <metadata
     id="metadata5">
    <rdf:RDF>
      <cc:Work
         rdf:about="">
        <dc:format>image/svg+xml</dc:format>
        <dc:type
           rdf:resource="http://purl.org/dc/dcmitype/StillImage" />
        <dc:title />
      </cc:Work>
    </rdf:RDF>
  </metadata>
  <g
     inkscape:label="Layer 1"
     inkscape:groupmode="layer"
     id="layer1"
     transform="translate(-154.32517,-81.846565)">
    <path
       style="font-style:normal;font-variant:normal;font-weight:bold;font-stretch:normal;font-size:16.93333244px;line-height:125%;font-family:Consolas;-inkscape-font-specification:'Consolas Bold';letter-spacing:0px;word-spacing:0px;fill:#000000;fill-opacity:1;stroke:none;stroke-width:0.99999994px;stroke-linecap:butt;stroke-linejoin:miter;stroke-opacity:1"
       d="m 653.41016,0 c -2.77083,0 -5.1354,0.32291441 -7.09375,0.96875 -1.95833,0.6249978 -3.56249,1.4791665 -4.8125,2.5625 -1.24999,1.0625008 -2.16667,2.3124995 -2.75,3.75 -0.58334,1.4375005 -0.875,2.958335 -0.875,4.5625 0,1.749999 0.28125,3.249999 0.84375,4.5 0.58333,1.229168 1.34375,2.291669 2.28125,3.1875 0.9375,0.895834 1.99999,1.645832 3.1875,2.25 1.20834,0.604165 2.42709,1.145831 3.65625,1.625 1.25001,0.479166 2.46874,0.927082 3.65625,1.34375 1.20831,0.416665 2.28122,0.885416 3.21875,1.40625 0.9375,0.520834 1.6875,1.125001 2.25,1.8125 0.58333,0.666666 0.875,1.5 0.875,2.5 0,0.729167 -0.14583,1.395832 -0.4375,2 -0.29166,0.604168 -0.76041,1.125 -1.40625,1.5625 -0.64582,0.437495 -1.47915,0.781247 -2.5,1.03125 -1.02083,0.250003 -2.26044,0.375 -3.71875,0.375 -0.97918,0 -1.98959,-0.0625 -3.03125,-0.1875 -1.04167,-0.125004 -2.09375,-0.291672 -3.15625,-0.5 -1.04169,-0.229168 -2.08334,-0.489584 -3.125,-0.78125 -1.04167,-0.291666 -2.04167,-0.604166 -3,-0.9375 V 40.625 h 21.33984 c 1.01472,-0.427275 1.94982,-0.93123 2.78516,-1.53125 1.47915,-1.083334 2.625,-2.447917 3.4375,-4.09375 0.83333,-1.645833 1.25,-3.583332 1.25,-5.8125 0,-1.666666 -0.29167,-3.104165 -0.875,-4.3125 -0.5625,-1.229165 -1.32292,-2.291666 -2.28125,-3.1875 -0.9375,-0.895834 -2.01041,-1.65625 -3.21875,-2.28125 -1.18751,-0.624998 -2.41668,-1.177081 -3.6875,-1.65625 -1.24999,-0.499999 -2.47916,-0.958332 -3.6875,-1.375 -1.18751,-0.4375 -2.26042,-0.895834 -3.21875,-1.375 -0.9375,-0.499999 -1.69792,-1.052082 -2.28125,-1.65625 -0.5625,-0.625 -0.84375,-1.364584 -0.84375,-2.21875 0,-0.687501 0.13541,-1.3125005 0.40625,-1.875 0.27081,-0.5624995 0.70833,-1.0312503 1.3125,-1.40625 0.60417,-0.39584 1.375,-0.6979224 2.3125,-0.90625 0.9375,-0.2291654 2.08332,-0.34375 3.4375,-0.34375 0.77082,0 1.58332,0.041674 2.4375,0.125 0.85414,0.083326 1.69791,0.2083228 2.53125,0.375 0.85417,0.1458394 1.67709,0.3229224 2.46875,0.53125 0.79168,0.2083301 1.52084,0.4374969 2.1875,0.6875 V 1.28125 C 662.6185,1.114588 661.8789,0.95833937 661.06641,0.8125 660.27472,0.64583039 659.44139,0.51041378 658.56641,0.40625 657.71223,0.28127362 656.83723,0.18751339 655.94141,0.125 655.0664,0.04167402 654.22265,0 653.41016,0 Z"
       transform="matrix(0.26458333,0,0,0.26458333,-14.339474,81.904382)"
       id="path4566"
       inkscape:connector-curvature="0" />
  </g>
</svg>
