<?xml version="1.0" encoding="UTF-8" standalone="no"?>
<!-- Created with Inkscape (http://www.inkscape.org/) -->

<svg
   xmlns:dc="http://purl.org/dc/elements/1.1/"
   xmlns:cc="http://creativecommons.org/ns#"
   xmlns:rdf="http://www.w3.org/1999/02/22-rdf-syntax-ns#"
   xmlns:svg="http://www.w3.org/2000/svg"
   xmlns="http://www.w3.org/2000/svg"
   xmlns:sodipodi="http://sodipodi.sourceforge.net/DTD/sodipodi-0.dtd"
   xmlns:inkscape="http://www.inkscape.org/namespaces/inkscape"
   width="7.8384333mm"
   height="10.806522mm"
   viewBox="0 0 7.8384332 10.806523"
   version="1.1"
   id="svg8"
   inkscape:version="0.92.4 (5da689c313, 2019-01-14)"
   sodipodi:docname="S1-1.svg">
  <defs
     id="defs2" />
  <sodipodi:namedview
     id="base"
     pagecolor="#ffffff"
     bordercolor="#666666"
     borderopacity="1.0"
     inkscape:pageopacity="0.0"
     inkscape:pageshadow="2"
     inkscape:zoom="2"
     inkscape:cx="-135.46524"
     inkscape:cy="-156.94475"
     inkscape:document-units="in"
     inkscape:current-layer="layer1"
     showgrid="false"
     fit-margin-top="0"
     fit-margin-left="0"
     fit-margin-right="0"
     fit-margin-bottom="0"
     inkscape:window-width="1858"
     inkscape:window-height="1057"
     inkscape:window-x="54"
     inkscape:window-y="1072"
     inkscape:window-maximized="1" />
  <metadata
     id="metadata5">
    <rdf:RDF>
      <cc:Work
         rdf:about="">
        <dc:format>image/svg+xml</dc:format>
        <dc:type
           rdf:resource="http://purl.org/dc/dcmitype/StillImage" />
        <dc:title />
      </cc:Work>
    </rdf:RDF>
  </metadata>
  <g
     inkscape:label="Layer 1"
     inkscape:groupmode="layer"
     id="layer1"
    transform="translate(-385.81292500000006,-204.6164125)">
    <path
       style="font-style:normal;font-variant:normal;font-weight:bold;font-stretch:normal;font-size:16.93333244px;line-height:125%;font-family:Consolas;-inkscape-font-specification:'Consolas Bold';letter-spacing:0px;word-spacing:0px;fill:#000000;fill-opacity:1;stroke:none;stroke-width:0.26458332px;stroke-linecap:butt;stroke-linejoin:miter;stroke-opacity:1"
		d="m 396.3549 231.6327 c -1.832775 0.0 -3.39685 -0.2136 -4.692225 -0.6407875000000001 -1.29535 -0.41341000000000006 -2.356425 -0.9784075000000001 -3.18325 -1.6949875 -0.826825 -0.7028 -1.4331749999999999 -1.5296224999999999 -1.819025 -2.48047 -0.38585 -0.950845 -0.578775 -1.9568150000000002 -0.578775 -3.0179025 0.0 -1.1575525 0.186 -2.14974 0.5581 -2.9765625 0.38585 -0.8130424999999999 0.88885 -1.5158425 1.508975 -2.1083974999999997 0.6201 -0.5925575000000001 1.3229 -1.0886500000000001 2.108375 -1.4882825 0.799275 -0.39963 1.605425 -0.7579199999999999 2.418475 -1.07487 0.826825 -0.3169475 1.63295 -0.613225 2.41845 -0.888835 0.79925 -0.275605 1.508925 -0.585665 2.129075 -0.930175 0.6201 -0.34451000000000004 1.1162 -0.7441399999999999 1.488275 -1.1988925 0.38585 -0.4409725 0.578775 -0.9921875 0.578775 -1.6536475 0.0 -0.48231250000000003 -0.0965 -0.9232825 -0.289375 -1.322915 -0.193 -0.3996325 -0.503 -0.7441399999999999 -0.930175 -1.03353 -0.4272 -0.289385 -0.9783999999999999 -0.5167625 -1.65365 -0.6821275 -0.67525 -0.165375 -1.4951999999999999 -0.24805 -2.4598 -0.24805 -0.6476999999999999 0.0 -1.3160250000000002 0.04135 -2.0050499999999998 0.124025 -0.689025 0.082675 -1.384925 0.192925 -2.087725 0.33072999999999997 -0.6890499999999999 0.15157500000000002 -1.37805 0.32384 -2.06705 0.516765 -0.689025 0.192925 -1.3505 0.39963 -1.984375 0.6201175 v -5.022950000000001 h 14.115400000000001 c 0.6712 0.282625 1.2897249999999998 0.61597 1.8422749999999999 1.0128575 0.9783999999999999 0.71658 1.736325 1.619195 2.2737499999999997 2.707845 0.551225 1.0886500000000001 0.826825 2.370225 0.826825 3.8447275 0.0 1.10243 -0.193 2.053275 -0.578775 2.8525374999999995 -0.372075 0.8130424999999999 -0.87505 1.5158425 -1.50895 2.1084 -0.620125 0.5925575000000001 -1.3297999999999999 1.09554 -2.129075 1.5089525000000001 -0.785475 0.41341000000000006 -1.598525 0.77859 -2.439125 1.09554 -0.8268 0.33072749999999995 -1.63985 0.633895 -2.439125 0.909505 -0.785475 0.2893875 -1.495175 0.592555 -2.129075 0.909505 -0.6201 0.33072749999999995 -1.1231 0.6959075000000001 -1.50895 1.09554 -0.37205 0.4134125 -0.5581 0.902615 -0.5581 1.46761 0.0 0.454755 0.0895 0.8681650000000001 0.268725 1.240235 0.17925 0.37206999999999996 0.46852499999999997 0.6821299999999999 0.86815 0.930175 0.39965 0.2618325 0.909525 0.4616475 1.529625 0.5994475 0.620125 0.15157500000000002 1.378025 0.227375 2.273775 0.227375 0.50985 0.0 1.0473000000000001 -0.027575 1.6123 -0.082675 0.564975 -0.055125 1.1231 -0.1378 1.674325 -0.24805 0.5650000000000001 -0.096475 1.1093250000000001 -0.2136 1.632975 -0.3514 0.5236500000000001 -0.1378 1.005975 -0.289385 1.446925 -0.4547525 v 4.6508775 c -0.44095 0.11025 -0.930175 0.2136 -1.4676 0.31006 -0.523675 0.11025 -1.0749 0.199825 -1.65365 0.2687175 -0.5650000000000001 0.082675 -1.143775 0.144675 -1.736325 0.186025 -0.578775 0.055125 -1.1369 0.082675 -1.674325 0.082675 z" 
       id="path4566"
       inkscape:connector-curvature="0" />
  </g>
</svg>
