<?xml version="1.0" encoding="UTF-8" standalone="no"?>
<!-- Created with Inkscape (http://www.inkscape.org/) -->

<svg
   xmlns:dc="http://purl.org/dc/elements/1.1/"
   xmlns:cc="http://creativecommons.org/ns#"
   xmlns:rdf="http://www.w3.org/1999/02/22-rdf-syntax-ns#"
   xmlns:svg="http://www.w3.org/2000/svg"
   xmlns="http://www.w3.org/2000/svg"
   xmlns:sodipodi="http://sodipodi.sourceforge.net/DTD/sodipodi-0.dtd"
   xmlns:inkscape="http://www.inkscape.org/namespaces/inkscape"
   width="7.8714433mm"
   height="10.806576mm"
   viewBox="0 0 7.8714432 10.806576"
   version="1.1"
   id="svg8"
   inkscape:version="0.92.4 (5da689c313, 2019-01-14)"
   sodipodi:docname="U1-1.svg">
  <defs
     id="defs2" />
  <sodipodi:namedview
     id="base"
     pagecolor="#ffffff"
     bordercolor="#666666"
     borderopacity="1.0"
     inkscape:pageopacity="0.0"
     inkscape:pageshadow="2"
     inkscape:zoom="2.8284271"
     inkscape:cx="-158.44119"
     inkscape:cy="-97.990054"
     inkscape:document-units="in"
     inkscape:current-layer="layer1"
     showgrid="false"
     fit-margin-top="0"
     fit-margin-left="0"
     fit-margin-right="0"
     fit-margin-bottom="0"
     inkscape:window-width="1858"
     inkscape:window-height="1057"
     inkscape:window-x="54"
     inkscape:window-y="1072"
     inkscape:window-maximized="1" />
  <metadata
     id="metadata5">
    <rdf:RDF>
      <cc:Work
         rdf:about="">
        <dc:format>image/svg+xml</dc:format>
        <dc:type
           rdf:resource="http://purl.org/dc/dcmitype/StillImage" />
        <dc:title />
      </cc:Work>
    </rdf:RDF>
  </metadata>
  <g
     inkscape:label="Layer 1"
     inkscape:groupmode="layer"
     id="layer1"
     transform="translate(-172.88734,-82.086283)">
    <path
       style="font-style:normal;font-variant:normal;font-weight:bold;font-stretch:normal;font-size:16.93333244px;line-height:125%;font-family:Consolas;-inkscape-font-specification:'Consolas Bold';letter-spacing:0px;word-spacing:0px;fill:#000000;fill-opacity:1;stroke:none;stroke-width:0.26458332px;stroke-linecap:butt;stroke-linejoin:miter;stroke-opacity:1"
       d="m 172.88734,92.892858 v -7.168554 c 0,-0.5898 0.0689,-1.121723 0.20671,-1.595768 0.1378,-0.474046 0.36104,-0.876433 0.66972,-1.207162 0.30868,-0.330729 0.71107,-0.584288 1.20716,-0.760677 0.0797,-0.02835 0.16629,-0.05062 0.25115,-0.07441 h 2.95848 c 0.0829,0.02379 0.16676,0.04607 0.24649,0.07441 0.49609,0.176389 0.91502,0.438217 1.25677,0.785482 0.34727,0.347266 0.61185,0.77997 0.79375,1.298112 0.18742,0.523654 0.28112,1.129991 0.28112,1.81901 v 6.829557 h -2.03398 V 85.93101 c 0,-0.424437 -0.0386,-0.785482 -0.11576,-1.083138 -0.0772,-0.297656 -0.19292,-0.542947 -0.34726,-0.735873 -0.15434,-0.187413 -0.34727,-0.325217 -0.57878,-0.413411 -0.23151,-0.08268 -0.51539,-0.124024 -0.85163,-0.124024 -0.35829,0 -0.65595,0.04961 -0.89296,0.148828 -0.23703,0.09922 -0.43546,0.245291 -0.59532,0.438217 -0.15435,0.198437 -0.26459,0.438215 -0.33073,0.719335 -0.0606,0.281121 -0.0909,0.603581 -0.0909,0.967383 v 7.044531 z"
       id="path4570"
       inkscape:connector-curvature="0" />
  </g>
</svg>
