<?xml version="1.0" encoding="UTF-8" standalone="no"?>
<!-- Created with Inkscape (http://www.inkscape.org/) -->

<svg
   xmlns:dc="http://purl.org/dc/elements/1.1/"
   xmlns:cc="http://creativecommons.org/ns#"
   xmlns:rdf="http://www.w3.org/1999/02/22-rdf-syntax-ns#"
   xmlns:svg="http://www.w3.org/2000/svg"
   xmlns="http://www.w3.org/2000/svg"
   xmlns:sodipodi="http://sodipodi.sourceforge.net/DTD/sodipodi-0.dtd"
   xmlns:inkscape="http://www.inkscape.org/namespaces/inkscape"
   width="7.8714433mm"
   height="10.806576mm"
   viewBox="0 0 7.8714432 10.806576"
   version="1.1"
   id="svg8"
   inkscape:version="0.92.4 (5da689c313, 2019-01-14)"
   sodipodi:docname="U1-1.svg">
  <defs
     id="defs2" />
  <sodipodi:namedview
     id="base"
     pagecolor="#ffffff"
     bordercolor="#666666"
     borderopacity="1.0"
     inkscape:pageopacity="0.0"
     inkscape:pageshadow="2"
     inkscape:zoom="2.8284271"
     inkscape:cx="-158.44119"
     inkscape:cy="-97.990054"
     inkscape:document-units="in"
     inkscape:current-layer="layer1"
     showgrid="false"
     fit-margin-top="0"
     fit-margin-left="0"
     fit-margin-right="0"
     fit-margin-bottom="0"
     inkscape:window-width="1858"
     inkscape:window-height="1057"
     inkscape:window-x="54"
     inkscape:window-y="1072"
     inkscape:window-maximized="1" />
  <metadata
     id="metadata5">
    <rdf:RDF>
      <cc:Work
         rdf:about="">
        <dc:format>image/svg+xml</dc:format>
        <dc:type
           rdf:resource="http://purl.org/dc/dcmitype/StillImage" />
        <dc:title />
      </cc:Work>
    </rdf:RDF>
  </metadata>
  <g
     inkscape:label="Layer 1"
     inkscape:groupmode="layer"
     id="layer1"
    transform="translate(-432.21835,-205.21570749999998)">
    <path
       style="font-style:normal;font-variant:normal;font-weight:bold;font-stretch:normal;font-size:16.93333244px;line-height:125%;font-family:Consolas;-inkscape-font-specification:'Consolas Bold';letter-spacing:0px;word-spacing:0px;fill:#000000;fill-opacity:1;stroke:none;stroke-width:0.26458332px;stroke-linecap:butt;stroke-linejoin:miter;stroke-opacity:1"
		d="m 432.21835 232.232145 v -17.921385 c 0.0 -1.4745 0.17225000000000001 -2.8043075 0.516775 -3.98942 0.34450000000000003 -1.1851150000000001 0.9026000000000001 -2.1910825000000003 1.6743 -3.0179050000000003 0.7717 -0.8268225 1.777675 -1.46072 3.0179 -1.9016925000000002 0.19924999999999998 -0.070875 0.415725 -0.12655 0.627875 -0.186025 h 7.3962 c 0.20725 0.059475 0.4169 0.115175 0.616225 0.186025 1.240225 0.4409725 2.28755 1.0955425 3.1419249999999996 1.963705 0.868175 0.8681650000000001 1.529625 1.9499250000000001 1.984375 3.2452799999999997 0.46855 1.309135 0.7028 2.8249775 0.7028 4.547525 v 17.0738925 h -5.08495 V 214.827525 c 0.0 -1.0610925 -0.0965 -1.963705 -0.2894 -2.707845 -0.193 -0.7441399999999999 -0.4823 -1.3573674999999998 -0.86815 -1.8396824999999999 -0.38585 -0.4685325 -0.868175 -0.8130424999999999 -1.44695 -1.0335275 -0.578775 -0.2067 -1.288475 -0.31006 -2.129075 -0.31006 -0.895725 0.0 -1.639875 0.124025 -2.2324 0.37206999999999996 -0.592575 0.24805 -1.0886500000000001 0.6132275 -1.4883 1.0955425 -0.38587499999999997 0.4960925 -0.661475 1.0955375 -0.826825 1.7983375 -0.1515 0.7028025 -0.22724999999999998 1.5089525000000001 -0.22724999999999998 2.4184575 v 17.6113275 z" 
       id="path4570"
       inkscape:connector-curvature="0" />
  </g>
</svg>
