<?xml version="1.0" encoding="UTF-8" standalone="no"?>
<!-- Created with Inkscape (http://www.inkscape.org/) -->

<svg
   xmlns:dc="http://purl.org/dc/elements/1.1/"
   xmlns:cc="http://creativecommons.org/ns#"
   xmlns:rdf="http://www.w3.org/1999/02/22-rdf-syntax-ns#"
   xmlns:svg="http://www.w3.org/2000/svg"
   xmlns="http://www.w3.org/2000/svg"
   xmlns:sodipodi="http://sodipodi.sourceforge.net/DTD/sodipodi-0.dtd"
   xmlns:inkscape="http://www.inkscape.org/namespaces/inkscape"
   width="7.8714433mm"
   height="10.806576mm"
   viewBox="0 0 7.8714432 10.806576"
   version="1.1"
   id="svg8"
   inkscape:version="0.92.4 (5da689c313, 2019-01-14)"
   sodipodi:docname="U1-1.svg">
  <defs
     id="defs2" />
  <sodipodi:namedview
     id="base"
     pagecolor="#ffffff"
     bordercolor="#666666"
     borderopacity="1.0"
     inkscape:pageopacity="0.0"
     inkscape:pageshadow="2"
     inkscape:zoom="2.8284271"
     inkscape:cx="-98.160341"
     inkscape:cy="-97.990054"
     inkscape:document-units="in"
     inkscape:current-layer="layer1"
     showgrid="false"
     fit-margin-top="0"
     fit-margin-left="0"
     fit-margin-right="0"
     fit-margin-bottom="0"
     inkscape:window-width="1858"
     inkscape:window-height="1057"
     inkscape:window-x="54"
     inkscape:window-y="1072"
     inkscape:window-maximized="1" />
  <metadata
     id="metadata5">
    <rdf:RDF>
      <cc:Work
         rdf:about="">
        <dc:format>image/svg+xml</dc:format>
        <dc:type
           rdf:resource="http://purl.org/dc/dcmitype/StillImage" />
        <dc:title />
      </cc:Work>
    </rdf:RDF>
  </metadata>
  <g
     inkscape:label="Layer 1"
     inkscape:groupmode="layer"
     id="layer1"
     transform="translate(-172.88734,-82.086283)">
    <path
       style="font-style:normal;font-variant:normal;font-weight:bold;font-stretch:normal;font-size:16.93333244px;line-height:125%;font-family:Consolas;-inkscape-font-specification:'Consolas Bold';letter-spacing:0px;word-spacing:0px;fill:#000000;fill-opacity:1;stroke:none;stroke-width:0.99999994px;stroke-linecap:butt;stroke-linejoin:miter;stroke-opacity:1"
       d="m 707.62891,0.6875 v 27.09375 c 0,2.229165 0.2604,4.239583 0.78125,6.03125 0.52084,1.791667 1.36458,3.312502 2.53125,4.5625 1.16666,1.250001 2.6875,2.208334 4.5625,2.875 0.30134,0.107143 0.6285,0.191326 0.94921,0.28125 h 11.18165 c 0.31317,-0.08992 0.6303,-0.174107 0.93164,-0.28125 1.87499,-0.666666 3.45833,-1.656251 4.75,-2.96875 1.3125,-1.312501 2.3125,-2.947918 3,-4.90625 0.70833,-1.979167 1.0625,-4.270832 1.0625,-6.875 V 0.6875 h -7.6875 V 27 c 0,1.604168 -0.14585,2.968751 -0.4375,4.09375 -0.29168,1.124999 -0.72917,2.052083 -1.3125,2.78125 -0.58334,0.708334 -1.31252,1.229166 -2.1875,1.5625 -0.87501,0.312499 -1.94793,0.46875 -3.21875,0.46875 -1.35418,0 -2.47918,-0.1875 -3.375,-0.5625 -0.89583,-0.375 -1.64583,-0.927083 -2.25,-1.65625 -0.58339,-0.749999 -1.00005,-1.656249 -1.25,-2.71875 -0.22904,-1.062501 -0.34375,-2.28125 -0.34375,-3.65625 V 0.6875 Z"
       transform="matrix(0.26458333,0,0,0.26458333,-14.339474,81.904382)"
       id="path4570"
       inkscape:connector-curvature="0" />
  </g>
</svg>
