<?xml version="1.0" encoding="UTF-8" standalone="no"?>
<!-- Created with Inkscape (http://www.inkscape.org/) -->

<svg
   xmlns:dc="http://purl.org/dc/elements/1.1/"
   xmlns:cc="http://creativecommons.org/ns#"
   xmlns:rdf="http://www.w3.org/1999/02/22-rdf-syntax-ns#"
   xmlns:svg="http://www.w3.org/2000/svg"
   xmlns="http://www.w3.org/2000/svg"
   xmlns:sodipodi="http://sodipodi.sourceforge.net/DTD/sodipodi-0.dtd"
   xmlns:inkscape="http://www.inkscape.org/namespaces/inkscape"
   width="7.8713164mm"
   height="10.806576mm"
   viewBox="0 0 7.8713164 10.806576"
   version="1.1"
   id="svg8"
   inkscape:version="0.92.4 (5da689c313, 2019-01-14)"
   sodipodi:docname="U2-1.svg">
  <defs
     id="defs2" />
  <sodipodi:namedview
     id="base"
     pagecolor="#ffffff"
     bordercolor="#666666"
     borderopacity="1.0"
     inkscape:pageopacity="0.0"
     inkscape:pageshadow="2"
     inkscape:zoom="2"
     inkscape:cx="-287.01245"
     inkscape:cy="-121.1092"
     inkscape:document-units="in"
     inkscape:current-layer="layer1"
     showgrid="false"
     fit-margin-top="0"
     fit-margin-left="0"
     fit-margin-right="0"
     fit-margin-bottom="0"
     inkscape:window-width="1858"
     inkscape:window-height="1057"
     inkscape:window-x="54"
     inkscape:window-y="1072"
     inkscape:window-maximized="1" />
  <metadata
     id="metadata5">
    <rdf:RDF>
      <cc:Work
         rdf:about="">
        <dc:format>image/svg+xml</dc:format>
        <dc:type
           rdf:resource="http://purl.org/dc/dcmitype/StillImage" />
        <dc:title />
      </cc:Work>
    </rdf:RDF>
  </metadata>
  <g
     inkscape:label="Layer 1"
     inkscape:groupmode="layer"
     id="layer1"
    transform="translate(-432.262275,-335.254275)">
    <path
       style="font-style:normal;font-variant:normal;font-weight:bold;font-stretch:normal;font-size:16.93333244px;line-height:125%;font-family:Consolas;-inkscape-font-specification:'Consolas Bold';letter-spacing:0px;word-spacing:0px;fill:#000000;fill-opacity:1;stroke:none;stroke-width:0.26458332px;stroke-linecap:butt;stroke-linejoin:miter;stroke-opacity:1"
		d="m 432.262275 362.27072499999997 v -17.921400000000002 c 0.0 -1.4745 0.17225000000000001 -2.8043 0.51675 -3.9894249999999998 0.34452499999999997 -1.1851 0.902625 -2.191075 1.674325 -3.0179 0.7717 -0.826825 1.777675 -1.460725 3.0179 -1.901675 0.19924999999999998 -0.07075 0.415725 -0.1265 0.627875 -0.186 h 7.396175 c 0.20725 0.059500000000000004 0.416925 0.11525 0.61625 0.186 1.240225 0.44095 2.28755 1.0955249999999999 3.1419249999999996 1.9636999999999998 0.868175 0.86815 1.529625 1.9499250000000001 1.984375 3.2452750000000004 0.245 0.6844250000000001 0.42185 1.428575 0.538725 2.22595 h -5.065575 c -0.040499999999999994 -0.251675 -0.08675000000000001 -0.493825 -0.14475 -0.717 -0.193 -0.744125 -0.4823 -1.3573750000000002 -0.86815 -1.8396750000000002 -0.38585 -0.46852499999999997 -0.868175 -0.81305 -1.44695 -1.033525 -0.578775 -0.20675 -1.288475 -0.310075 -2.129075 -0.310075 -0.895725 0.0 -1.63985 0.124 -2.232425 0.372075 -0.592525 0.248 -1.088625 0.613225 -1.488275 1.09555 -0.38587499999999997 0.4961 -0.661475 1.0955249999999999 -0.826825 1.7983250000000002 -0.1515 0.7028 -0.22749999999999998 1.508975 -0.22749999999999998 2.418475 v 17.611325 z" 
       id="path4570-38"
       inkscape:connector-curvature="0" />
  </g>
</svg>
