<?xml version="1.0" encoding="UTF-8" standalone="no"?>
<!-- Created with Inkscape (http://www.inkscape.org/) -->

<svg
   xmlns:dc="http://purl.org/dc/elements/1.1/"
   xmlns:cc="http://creativecommons.org/ns#"
   xmlns:rdf="http://www.w3.org/1999/02/22-rdf-syntax-ns#"
   xmlns:svg="http://www.w3.org/2000/svg"
   xmlns="http://www.w3.org/2000/svg"
   xmlns:sodipodi="http://sodipodi.sourceforge.net/DTD/sodipodi-0.dtd"
   xmlns:inkscape="http://www.inkscape.org/namespaces/inkscape"
   width="7.8713164mm"
   height="10.806576mm"
   viewBox="0 0 7.8713164 10.806576"
   version="1.1"
   id="svg8"
   inkscape:version="0.92.4 (5da689c313, 2019-01-14)"
   sodipodi:docname="U2-1.svg">
  <defs
     id="defs2" />
  <sodipodi:namedview
     id="base"
     pagecolor="#ffffff"
     bordercolor="#666666"
     borderopacity="1.0"
     inkscape:pageopacity="0.0"
     inkscape:pageshadow="2"
     inkscape:zoom="2"
     inkscape:cx="-201.76245"
     inkscape:cy="-121.1092"
     inkscape:document-units="in"
     inkscape:current-layer="layer1"
     showgrid="false"
     fit-margin-top="0"
     fit-margin-left="0"
     fit-margin-right="0"
     fit-margin-bottom="0"
     inkscape:window-width="1858"
     inkscape:window-height="1057"
     inkscape:window-x="54"
     inkscape:window-y="1072"
     inkscape:window-maximized="1" />
  <metadata
     id="metadata5">
    <rdf:RDF>
      <cc:Work
         rdf:about="">
        <dc:format>image/svg+xml</dc:format>
        <dc:type
           rdf:resource="http://purl.org/dc/dcmitype/StillImage" />
        <dc:title />
      </cc:Work>
    </rdf:RDF>
  </metadata>
  <g
     inkscape:label="Layer 1"
     inkscape:groupmode="layer"
     id="layer1"
     transform="translate(-172.90491,-134.10171)">
    <path
       style="font-style:normal;font-variant:normal;font-weight:bold;font-stretch:normal;font-size:16.93333244px;line-height:125%;font-family:Consolas;-inkscape-font-specification:'Consolas Bold';letter-spacing:0px;word-spacing:0px;fill:#000000;fill-opacity:1;stroke:none;stroke-width:0.99999994px;stroke-linecap:butt;stroke-linejoin:miter;stroke-opacity:1"
       d="M 707.69531,197.28125 V 224.375 c 0,2.22917 0.26041,4.23958 0.78125,6.03125 0.52085,1.79167 1.36459,3.31251 2.53125,4.5625 1.16667,1.25002 2.6875,2.20834 4.5625,2.875 0.30134,0.10714 0.62851,0.19133 0.94922,0.28125 h 11.18164 c 0.31318,-0.0899 0.6303,-0.17411 0.93164,-0.28125 1.875,-0.66666 3.45834,-1.65625 4.75,-2.96875 1.31251,-1.3125 2.31251,-2.94793 3,-4.90625 0.37031,-1.03471 0.63774,-2.15972 0.81446,-3.36523 h -7.65821 c -0.0612,0.38048 -0.13128,0.74659 -0.21875,1.08398 -0.29168,1.12499 -0.72917,2.05208 -1.3125,2.78125 -0.58333,0.70833 -1.31251,1.22917 -2.1875,1.5625 -0.87501,0.31249 -1.94792,0.46875 -3.21875,0.46875 -1.35418,0 -2.47917,-0.1875 -3.375,-0.5625 -0.89582,-0.37498 -1.64583,-0.92708 -2.25,-1.65625 -0.58338,-0.75001 -1.00004,-1.65625 -1.25,-2.71875 -0.22904,-1.0625 -0.34375,-2.28126 -0.34375,-3.65625 v -26.625 z"
       transform="matrix(0.26458333,0,0,0.26458333,-14.339474,81.904382)"
       id="path4570-38"
       inkscape:connector-curvature="0" />
  </g>
</svg>
