<?xml version="1.0" encoding="UTF-8" standalone="no"?>
<!-- Created with Inkscape (http://www.inkscape.org/) -->

<svg
   xmlns:dc="http://purl.org/dc/elements/1.1/"
   xmlns:cc="http://creativecommons.org/ns#"
   xmlns:rdf="http://www.w3.org/1999/02/22-rdf-syntax-ns#"
   xmlns:svg="http://www.w3.org/2000/svg"
   xmlns="http://www.w3.org/2000/svg"
   xmlns:sodipodi="http://sodipodi.sourceforge.net/DTD/sodipodi-0.dtd"
   xmlns:inkscape="http://www.inkscape.org/namespaces/inkscape"
   width="7.8713164mm"
   height="10.806656mm"
   viewBox="0 0 7.8713164 10.806656"
   version="1.1"
   id="svg8"
   inkscape:version="0.92.4 (5da689c313, 2019-01-14)"
   sodipodi:docname="U2-2.svg">
  <defs
     id="defs2" />
  <sodipodi:namedview
     id="base"
     pagecolor="#ffffff"
     bordercolor="#666666"
     borderopacity="1.0"
     inkscape:pageopacity="0.0"
     inkscape:pageshadow="2"
     inkscape:zoom="2.8284271"
     inkscape:cx="-133.72245"
     inkscape:cy="-65.605063"
     inkscape:document-units="in"
     inkscape:current-layer="layer1"
     showgrid="false"
     fit-margin-top="0"
     fit-margin-left="0"
     fit-margin-right="0"
     fit-margin-bottom="0"
     inkscape:window-width="1858"
     inkscape:window-height="1057"
     inkscape:window-x="54"
     inkscape:window-y="1072"
     inkscape:window-maximized="1" />
  <metadata
     id="metadata5">
    <rdf:RDF>
      <cc:Work
         rdf:about="">
        <dc:format>image/svg+xml</dc:format>
        <dc:type
           rdf:resource="http://purl.org/dc/dcmitype/StillImage" />
        <dc:title />
      </cc:Work>
    </rdf:RDF>
  </metadata>
  <g
     inkscape:label="Layer 1"
     inkscape:groupmode="layer"
     id="layer1"
    transform="translate(-431.08220000000006,-370.01315)">
    <path
       style="font-style:normal;font-variant:normal;font-weight:bold;font-stretch:normal;font-size:16.93333244px;line-height:125%;font-family:Consolas;-inkscape-font-specification:'Consolas Bold';letter-spacing:0px;word-spacing:0px;fill:#000000;fill-opacity:1;stroke:none;stroke-width:0.26458332px;stroke-linecap:butt;stroke-linejoin:miter;stroke-opacity:1"
		d="m 445.6749 397.02957499999997 v -17.611325 c 0.0 -0.9095 -0.0745 -1.71565 -0.22599999999999998 -2.41845 -0.16525 -0.7028 -0.440925 -1.3022500000000001 -0.826825 -1.79835 -0.399625 -0.482325 -0.895725 -0.847525 -1.488275 -1.0955249999999999 -0.59255 -0.248 -1.336675 -0.372075 -2.232425 -0.372075 -0.8406 0.0 -1.5503 0.10325000000000001 -2.129075 0.31005 -0.578775 0.2205 -1.061075 0.5650000000000001 -1.446925 1.033525 -0.38585 0.482325 -0.675175 1.095575 -0.868175 1.8397 -0.057999999999999996 0.22325 -0.10425000000000001 0.465325 -0.14475 0.717 h -5.066875 c 0.117 -0.7974000000000001 0.293725 -1.54155 0.53875 -2.225975 0.454725 -1.295325 1.1162 -2.3771 1.984375 -3.2452750000000004 0.854375 -0.868175 1.9017 -1.522725 3.1419249999999996 -1.9636999999999998 0.19924999999999998 -0.07075 0.40907499999999997 -0.1265 0.616225 -0.186 h 7.3962 c 0.212 0.059500000000000004 0.42855 0.11525 0.627875 0.186 1.24025 0.440975 2.2474749999999997 1.07485 3.019175 1.9017 0.7717 0.8268 1.3285 1.832775 1.6730500000000001 3.0179 0.34450000000000003 1.1851 0.51675 2.514925 0.51675 3.9894249999999998 v 17.921374999999998 z" 
       id="path4570-38-7"
       inkscape:connector-curvature="0" />
  </g>
</svg>
