<?xml version="1.0" encoding="UTF-8" standalone="no"?>
<!-- Created with Inkscape (http://www.inkscape.org/) -->

<svg
   xmlns:dc="http://purl.org/dc/elements/1.1/"
   xmlns:cc="http://creativecommons.org/ns#"
   xmlns:rdf="http://www.w3.org/1999/02/22-rdf-syntax-ns#"
   xmlns:svg="http://www.w3.org/2000/svg"
   xmlns="http://www.w3.org/2000/svg"
   xmlns:sodipodi="http://sodipodi.sourceforge.net/DTD/sodipodi-0.dtd"
   xmlns:inkscape="http://www.inkscape.org/namespaces/inkscape"
   width="7.8713164mm"
   height="10.806656mm"
   viewBox="0 0 7.8713164 10.806656"
   version="1.1"
   id="svg8"
   inkscape:version="0.92.4 (5da689c313, 2019-01-14)"
   sodipodi:docname="U2-2.svg">
  <defs
     id="defs2" />
  <sodipodi:namedview
     id="base"
     pagecolor="#ffffff"
     bordercolor="#666666"
     borderopacity="1.0"
     inkscape:pageopacity="0.0"
     inkscape:pageshadow="2"
     inkscape:zoom="2.8284271"
     inkscape:cx="-73.441595"
     inkscape:cy="-65.605063"
     inkscape:document-units="in"
     inkscape:current-layer="layer1"
     showgrid="false"
     fit-margin-top="0"
     fit-margin-left="0"
     fit-margin-right="0"
     fit-margin-bottom="0"
     inkscape:window-width="1858"
     inkscape:window-height="1057"
     inkscape:window-x="54"
     inkscape:window-y="1072"
     inkscape:window-maximized="1" />
  <metadata
     id="metadata5">
    <rdf:RDF>
      <cc:Work
         rdf:about="">
        <dc:format>image/svg+xml</dc:format>
        <dc:type
           rdf:resource="http://purl.org/dc/dcmitype/StillImage" />
        <dc:title />
      </cc:Work>
    </rdf:RDF>
  </metadata>
  <g
     inkscape:label="Layer 1"
     inkscape:groupmode="layer"
     id="layer1"
     transform="translate(-172.43288,-148.00526)">
    <path
       style="font-style:normal;font-variant:normal;font-weight:bold;font-stretch:normal;font-size:16.93333244px;line-height:125%;font-family:Consolas;-inkscape-font-specification:'Consolas Bold';letter-spacing:0px;word-spacing:0px;fill:#000000;fill-opacity:1;stroke:none;stroke-width:0.99999994px;stroke-linecap:butt;stroke-linejoin:miter;stroke-opacity:1"
       d="m 727.97266,249.83008 v 26.625 c 0,1.37499 -0.11276,2.59375 -0.3418,3.65625 -0.24994,1.0625 -0.66659,1.96874 -1.25,2.71875 -0.60416,0.72918 -1.35418,1.28132 -2.25,1.65625 -0.89582,0.375 -2.0208,0.5625 -3.375,0.5625 -1.27083,0 -2.34375,-0.15618 -3.21875,-0.46875 -0.875,-0.33332 -1.60417,-0.85418 -2.1875,-1.5625 -0.58333,-0.72919 -1.02072,-1.65628 -1.3125,-2.78125 -0.0877,-0.3374 -0.15752,-0.7035 -0.21875,-1.08399 h -7.66016 c 0.17673,1.20552 0.44406,2.33052 0.81446,3.36524 0.68749,1.95832 1.68748,3.59373 3,4.90625 1.29165,1.31251 2.87501,2.30208 4.75,2.96875 0.30134,0.10714 0.61846,0.19132 0.93164,0.28125 h 11.18164 c 0.32071,-0.0899 0.64788,-0.17411 0.94922,-0.28125 1.87502,-0.66667 3.39775,-1.62496 4.56445,-2.875 1.16663,-1.24997 2.00844,-2.77082 2.5293,-4.5625 0.52085,-1.79165 0.78125,-3.80209 0.78125,-6.03125 v -27.09375 z"
       transform="matrix(0.26458333,0,0,0.26458333,-14.339474,81.904382)"
       id="path4570-38-7"
       inkscape:connector-curvature="0" />
  </g>
</svg>
