<?xml version="1.0" encoding="UTF-8" standalone="no"?>
<!-- Created with Inkscape (http://www.inkscape.org/) -->

<svg
   xmlns:dc="http://purl.org/dc/elements/1.1/"
   xmlns:cc="http://creativecommons.org/ns#"
   xmlns:rdf="http://www.w3.org/1999/02/22-rdf-syntax-ns#"
   xmlns:svg="http://www.w3.org/2000/svg"
   xmlns="http://www.w3.org/2000/svg"
   xmlns:sodipodi="http://sodipodi.sourceforge.net/DTD/sodipodi-0.dtd"
   xmlns:inkscape="http://www.inkscape.org/namespaces/inkscape"
   width="7.8713164mm"
   height="10.806656mm"
   viewBox="0 0 7.8713164 10.806656"
   version="1.1"
   id="svg8"
   inkscape:version="0.92.4 (5da689c313, 2019-01-14)"
   sodipodi:docname="U2-2.svg">
  <defs
     id="defs2" />
  <sodipodi:namedview
     id="base"
     pagecolor="#ffffff"
     bordercolor="#666666"
     borderopacity="1.0"
     inkscape:pageopacity="0.0"
     inkscape:pageshadow="2"
     inkscape:zoom="2.8284271"
     inkscape:cx="-133.72245"
     inkscape:cy="-65.605063"
     inkscape:document-units="in"
     inkscape:current-layer="layer1"
     showgrid="false"
     fit-margin-top="0"
     fit-margin-left="0"
     fit-margin-right="0"
     fit-margin-bottom="0"
     inkscape:window-width="1858"
     inkscape:window-height="1057"
     inkscape:window-x="54"
     inkscape:window-y="1072"
     inkscape:window-maximized="1" />
  <metadata
     id="metadata5">
    <rdf:RDF>
      <cc:Work
         rdf:about="">
        <dc:format>image/svg+xml</dc:format>
        <dc:type
           rdf:resource="http://purl.org/dc/dcmitype/StillImage" />
        <dc:title />
      </cc:Work>
    </rdf:RDF>
  </metadata>
  <g
     inkscape:label="Layer 1"
     inkscape:groupmode="layer"
     id="layer1"
     transform="translate(-172.43288,-148.00526)">
    <path
       style="font-style:normal;font-variant:normal;font-weight:bold;font-stretch:normal;font-size:16.93333244px;line-height:125%;font-family:Consolas;-inkscape-font-specification:'Consolas Bold';letter-spacing:0px;word-spacing:0px;fill:#000000;fill-opacity:1;stroke:none;stroke-width:0.26458332px;stroke-linecap:butt;stroke-linejoin:miter;stroke-opacity:1"
       d="m 178.26996,158.81183 v -7.04453 c 0,-0.3638 -0.0298,-0.68626 -0.0904,-0.96738 -0.0661,-0.28112 -0.17637,-0.5209 -0.33073,-0.71934 -0.15985,-0.19293 -0.35829,-0.33901 -0.59531,-0.43821 -0.23702,-0.0992 -0.53467,-0.14883 -0.89297,-0.14883 -0.33624,0 -0.62012,0.0413 -0.85163,0.12402 -0.23151,0.0882 -0.42443,0.226 -0.57877,0.41341 -0.15434,0.19293 -0.27007,0.43823 -0.34727,0.73588 -0.0232,0.0893 -0.0417,0.18613 -0.0579,0.2868 h -2.02675 c 0.0468,-0.31896 0.11749,-0.61662 0.2155,-0.89039 0.18189,-0.51813 0.44648,-0.95084 0.79375,-1.29811 0.34175,-0.34727 0.76068,-0.60909 1.25677,-0.78548 0.0797,-0.0283 0.16363,-0.0506 0.24649,-0.0744 h 2.95848 c 0.0848,0.0238 0.17142,0.0461 0.25115,0.0744 0.4961,0.17639 0.89899,0.42994 1.20767,0.76068 0.30868,0.33072 0.5314,0.73311 0.66922,1.20716 0.1378,0.47404 0.2067,1.00597 0.2067,1.59577 v 7.16855 z"
       id="path4570-38-7"
       inkscape:connector-curvature="0" />
  </g>
</svg>
