<?xml version="1.0" encoding="UTF-8" standalone="no"?>
<!-- Created with Inkscape (http://www.inkscape.org/) -->

<svg
   xmlns:dc="http://purl.org/dc/elements/1.1/"
   xmlns:cc="http://creativecommons.org/ns#"
   xmlns:rdf="http://www.w3.org/1999/02/22-rdf-syntax-ns#"
   xmlns:svg="http://www.w3.org/2000/svg"
   xmlns="http://www.w3.org/2000/svg"
   xmlns:sodipodi="http://sodipodi.sourceforge.net/DTD/sodipodi-0.dtd"
   xmlns:inkscape="http://www.inkscape.org/namespaces/inkscape"
   width="7.6067801mm"
   height="10.807772mm"
   viewBox="0 0 7.60678 10.807772"
   version="1.1"
   id="svg8"
   inkscape:version="0.92.4 (5da689c313, 2019-01-14)"
   sodipodi:docname="B2-2.svg">
  <defs
     id="defs2" />
  <sodipodi:namedview
     id="base"
     pagecolor="#ffffff"
     bordercolor="#666666"
     borderopacity="1.0"
     inkscape:pageopacity="0.0"
     inkscape:pageshadow="2"
     inkscape:zoom="8"
     inkscape:cx="-10.373256"
     inkscape:cy="37.925586"
     inkscape:document-units="in"
     inkscape:current-layer="layer1"
     showgrid="false"
     fit-margin-top="0"
     fit-margin-left="0"
     fit-margin-right="0"
     fit-margin-bottom="0"
     inkscape:window-width="1858"
     inkscape:window-height="1057"
     inkscape:window-x="54"
     inkscape:window-y="1072"
     inkscape:window-maximized="1" />
  <metadata
     id="metadata5">
    <rdf:RDF>
      <cc:Work
         rdf:about="">
        <dc:format>image/svg+xml</dc:format>
        <dc:type
           rdf:resource="http://purl.org/dc/dcmitype/StillImage" />
        <dc:title />
      </cc:Work>
    </rdf:RDF>
  </metadata>
  <g
     inkscape:label="Layer 1"
     inkscape:groupmode="layer"
     id="layer1">
    <path
       inkscape:connector-curvature="0"
       id="path4532-8-5-7"
       style="font-style:normal;font-variant:normal;font-weight:bold;font-stretch:normal;font-size:16.93333244px;line-height:125%;font-family:Consolas;-inkscape-font-specification:'Consolas Bold';letter-spacing:0px;word-spacing:0px;fill:#000000;fill-opacity:1;stroke:none;stroke-width:0.26458332px;stroke-linecap:butt;stroke-linejoin:miter;stroke-opacity:1"
       d="M 2.0173 1.6124 V 4.4732 C 2.0173 4.4732 2.6467 4.3998 3.2493 4.4732 C 3.8519 4.5466 5.5892 5.052 5.5892 5.052 C 5.8593 5.0961 6.1156 5.1843 6.3582 5.3166 C 6.6062 5.4434 6.8212 5.6115 7.0031 5.821 C 7.1905 6.0249 7.3366 6.2675 7.4413 6.5486 C 7.5515 6.8297 7.6067 7.1439 7.6067 7.4912 C 7.6067 8.5936 7.2374 9.4232 6.4988 9.9799 C 5.7602 10.5311 4.6936 10.8067 3.299 10.8067 L 0 10.8067 V -0 L 2.0173 0.001 Z M 3.4394 9.1442 C 3.7646 9.1442 4.0485 9.1029 4.291 9.0202 C 4.539 8.9375 4.7458 8.8245 4.9111 8.6812 C 5.0765 8.5324 5.2005 8.3587 5.2832 8.1603 C 5.3714 7.9619 5.4155 7.7496 5.4155 7.5236 C 5.4155 7.0551 5.2391 6.6885 4.8863 6.4239 C 4.539 6.1593 4.0044 6.027 3.2823 6.027 H 2.0172 V 9.1441 Z"
       sodipodi:nodetypes="cczccccscscccscccscsccs" />
  </g>
</svg>
