<?xml version="1.0" encoding="UTF-8" standalone="no"?>
<!-- Created with Inkscape (http://www.inkscape.org/) -->

<svg
   xmlns:dc="http://purl.org/dc/elements/1.1/"
   xmlns:cc="http://creativecommons.org/ns#"
   xmlns:rdf="http://www.w3.org/1999/02/22-rdf-syntax-ns#"
   xmlns:svg="http://www.w3.org/2000/svg"
   xmlns="http://www.w3.org/2000/svg"
   xmlns:sodipodi="http://sodipodi.sourceforge.net/DTD/sodipodi-0.dtd"
   xmlns:inkscape="http://www.inkscape.org/namespaces/inkscape"
   width="7.6067705mm"
   height="10.807737mm"
   viewBox="0 0 7.6067705 10.807738"
   version="1.1"
   id="svg8"
   inkscape:version="0.92.4 (5da689c313, 2019-01-14)"
   sodipodi:docname="B3-1.svg">
  <defs
     id="defs2" />
  <sodipodi:namedview
     id="base"
     pagecolor="#ffffff"
     bordercolor="#666666"
     borderopacity="1.0"
     inkscape:pageopacity="0.0"
     inkscape:pageshadow="2"
     inkscape:zoom="11.313709"
     inkscape:cx="-5.3068192"
     inkscape:cy="14.363565"
     inkscape:document-units="in"
     inkscape:current-layer="layer1"
     showgrid="false"
     fit-margin-top="0"
     fit-margin-left="0"
     fit-margin-right="0"
     fit-margin-bottom="0"
     inkscape:window-width="1858"
     inkscape:window-height="1057"
     inkscape:window-x="54"
     inkscape:window-y="1072"
     inkscape:window-maximized="1" />
  <metadata
     id="metadata5">
    <rdf:RDF>
      <cc:Work
         rdf:about="">
        <dc:format>image/svg+xml</dc:format>
        <dc:type
           rdf:resource="http://purl.org/dc/dcmitype/StillImage" />
        <dc:title />
      </cc:Work>
    </rdf:RDF>
  </metadata>
  <g
     inkscape:label="Layer 1"
     inkscape:groupmode="layer"
     id="layer1"
     transform="translate(3.4615853,-134.17199)">
    <path
       style="font-style:normal;font-variant:normal;font-weight:bold;font-stretch:normal;font-size:16.93333244px;line-height:125%;font-family:Consolas;-inkscape-font-specification:'Consolas Bold';letter-spacing:0px;word-spacing:0px;fill:#000000;fill-opacity:1;stroke:none;stroke-width:0.26458332px;stroke-linecap:butt;stroke-linejoin:miter;stroke-opacity:1"
       d="m -3.4615852,144.97857 v -10.80658 h 2.0195151 v 1.66191 h -0.00206 v 3.11713 h 0.00206 v 1.55443 h -0.00206 v 2.8608 h 1.23196616 c 0.32521339,0 0.60082296,-0.0331 0.8268229,-0.0992 0.23151333,-0.0606 0.41892644,-0.14883 0.56223954,-0.26459 0.1488401,-0.11575 0.2563276,-0.25631 0.322461,-0.42168 0.066133,-0.16536 0.099219,-0.35002 0.099219,-0.55397 0,-0.20946 -0.033085,-0.40514 -0.099219,-0.58705 -0.048069,-0.1442 -0.1249111,-0.27588 -0.2284098,-0.39584 h 2.144572 c 0.087474,0.17044 0.1543923,0.35194 0.2005044,0.54467 0.066133,0.25907 0.099219,0.52365 0.099219,0.79375 0,0.87092 -0.3086749,1.52136 -0.9260417,1.9513 -0.6118466,0.42995 -1.5323817,0.64493 -2.7615885,0.64493 z"
       id="path4532-7"
       inkscape:connector-curvature="0" />
  </g>
</svg>
