<?xml version="1.0" encoding="UTF-8" standalone="no"?>
<!-- Created with Inkscape (http://www.inkscape.org/) -->

<svg
   xmlns:dc="http://purl.org/dc/elements/1.1/"
   xmlns:cc="http://creativecommons.org/ns#"
   xmlns:rdf="http://www.w3.org/1999/02/22-rdf-syntax-ns#"
   xmlns:svg="http://www.w3.org/2000/svg"
   xmlns="http://www.w3.org/2000/svg"
   xmlns:sodipodi="http://sodipodi.sourceforge.net/DTD/sodipodi-0.dtd"
   xmlns:inkscape="http://www.inkscape.org/namespaces/inkscape"
   width="8.1680374mm"
   height="10.807734mm"
   viewBox="0 0 8.1680374 10.807734"
   version="1.1"
   id="svg8"
   inkscape:version="0.92.4 (5da689c313, 2019-01-14)"
   sodipodi:docname="D1-1.svg">
  <defs
     id="defs2" />
  <sodipodi:namedview
     id="base"
     pagecolor="#ffffff"
     bordercolor="#666666"
     borderopacity="1.0"
     inkscape:pageopacity="0.0"
     inkscape:pageshadow="2"
     inkscape:zoom="5.6568543"
     inkscape:cx="-42.703161"
     inkscape:cy="-23.821489"
     inkscape:document-units="in"
     inkscape:current-layer="layer1"
     showgrid="false"
     fit-margin-top="0"
     fit-margin-left="0"
     fit-margin-right="0"
     fit-margin-bottom="0"
     inkscape:window-width="1858"
     inkscape:window-height="1057"
     inkscape:window-x="54"
     inkscape:window-y="1072"
     inkscape:window-maximized="1" />
  <metadata
     id="metadata5">
    <rdf:RDF>
      <cc:Work
         rdf:about="">
        <dc:format>image/svg+xml</dc:format>
        <dc:type
           rdf:resource="http://purl.org/dc/dcmitype/StillImage" />
        <dc:title />
      </cc:Work>
    </rdf:RDF>
  </metadata>
  <g
     inkscape:label="Layer 1"
     inkscape:groupmode="layer"
     id="layer1">
    <path
       inkscape:connector-curvature="0"
       id="path4536"
       style="font-style:normal;font-variant:normal;font-weight:bold;font-stretch:normal;font-size:16.93333244px;line-height:125%;font-family:Consolas;-inkscape-font-specification:'Consolas Bold';letter-spacing:0px;word-spacing:0px;fill:#000000;fill-opacity:1;stroke:none;stroke-width:0.26458332px;stroke-linecap:butt;stroke-linejoin:miter;stroke-opacity:1"
       d="M 7.8465 7.9044 Q 7.5406 8.8966 6.9205 9.5415 Q 6.3003 10.1864 5.366 10.4924 Q 4.44 10.8066 3.1998 10.8066 H 0 V 0 H 2.745 Q 4.1754 0 5.2007 0.3886 Q 6.2259 0.7855 6.8791 1.5048 Q 7.5406 2.2324 7.8465 3.2577 Q 8.1607 4.2829 8.1607 5.5397 Q 8.1607 6.9122 7.8465 7.9044 Z M 5.9779 5.4074 Q 5.9779 3.4892 5.2007 2.5962 Q 4.4235 1.7032 2.9269 1.7032 H 2.0339 V 9.1033 H 2.9269 Q 3.9026 9.1033 4.4648 8.8553 Q 5.027 8.6072 5.3578 8.1277 Q 5.6968 7.6564 5.8373 6.9701 Q 5.9779 6.2838 5.9779 5.4074 Z" />
  </g>
</svg>
