<?xml version="1.0" encoding="UTF-8" standalone="no"?>
<!-- Created with Inkscape (http://www.inkscape.org/) -->

<svg
   xmlns:dc="http://purl.org/dc/elements/1.1/"
   xmlns:cc="http://creativecommons.org/ns#"
   xmlns:rdf="http://www.w3.org/1999/02/22-rdf-syntax-ns#"
   xmlns:svg="http://www.w3.org/2000/svg"
   xmlns="http://www.w3.org/2000/svg"
   xmlns:sodipodi="http://sodipodi.sourceforge.net/DTD/sodipodi-0.dtd"
   xmlns:inkscape="http://www.inkscape.org/namespaces/inkscape"
   width="6.0647445mm"
   height="10.80916mm"
   viewBox="0 0 6.0647445 10.809161"
   version="1.1"
   id="svg8"
   inkscape:version="0.92.4 (5da689c313, 2019-01-14)"
   sodipodi:docname="J1-1.svg">
  <defs
     id="defs2" />
  <sodipodi:namedview
     id="base"
     pagecolor="#ffffff"
     bordercolor="#666666"
     borderopacity="1.0"
     inkscape:pageopacity="0.0"
     inkscape:pageshadow="2"
     inkscape:zoom="1.4142136"
     inkscape:cx="-258.47309"
     inkscape:cy="-92.071272"
     inkscape:document-units="in"
     inkscape:current-layer="layer1"
     showgrid="false"
     fit-margin-top="0"
     fit-margin-left="0"
     fit-margin-right="0"
     fit-margin-bottom="0"
     inkscape:window-width="1858"
     inkscape:window-height="1057"
     inkscape:window-x="54"
     inkscape:window-y="1072"
     inkscape:window-maximized="1" />
  <metadata
     id="metadata5">
    <rdf:RDF>
      <cc:Work
         rdf:about="">
        <dc:format>image/svg+xml</dc:format>
        <dc:type
           rdf:resource="http://purl.org/dc/dcmitype/StillImage" />
        <dc:title />
      </cc:Work>
    </rdf:RDF>
  </metadata>
  <g
     inkscape:label="Layer 1"
     inkscape:groupmode="layer"
     id="layer1"
     transform="translate(-70.99382,-82.086283)">
    <path
       style="font-style:normal;font-variant:normal;font-weight:bold;font-stretch:normal;font-size:16.93333244px;line-height:125%;font-family:Consolas;-inkscape-font-specification:'Consolas Bold';letter-spacing:0px;word-spacing:0px;fill:#000000;fill-opacity:1;stroke:none;stroke-width:0.26834491px;stroke-linecap:butt;stroke-linejoin:miter;stroke-opacity:1"
       d="m 71.080635,92.892858 v -1.726509 h 3.910872 v -5.783626 c 0,-0.379891 -0.04961,-0.699846 -0.148828,-0.960665 -0.09922,-0.255151 -0.225999,-0.462392 -0.380338,-0.621151 -0.154342,-0.158759 -0.33073,-0.27199 -0.529167,-0.340031 -0.192926,-0.06804 -0.380339,-0.102319 -0.56224,-0.102319 -0.214974,0 -0.432704,0.02025 -0.65319,0.05994 -0.220488,0.04536 -0.435462,0.104574 -0.644922,0.178284 -0.209462,0.07938 -0.4079,0.170275 -0.595312,0.272335 -0.181901,0.10206 -0.341754,0.212693 -0.479557,0.331763 v -2.024166 c 0.05899,-0.03142 0.121671,-0.06108 0.184483,-0.09043 h 4.281392 c 0.24398,0.136222 0.463669,0.294664 0.652158,0.481624 0.308679,0.30618 0.542947,0.674439 0.7028,1.105359 0.159851,0.43092 0.239779,0.907214 0.239779,1.428854 v 7.790738 z"
       id="path4548"
       inkscape:connector-curvature="0" />
  </g>
</svg>
