<?xml version="1.0" encoding="UTF-8" standalone="no"?>
<!-- Created with Inkscape (http://www.inkscape.org/) -->

<svg
   xmlns:dc="http://purl.org/dc/elements/1.1/"
   xmlns:cc="http://creativecommons.org/ns#"
   xmlns:rdf="http://www.w3.org/1999/02/22-rdf-syntax-ns#"
   xmlns:svg="http://www.w3.org/2000/svg"
   xmlns="http://www.w3.org/2000/svg"
   xmlns:sodipodi="http://sodipodi.sourceforge.net/DTD/sodipodi-0.dtd"
   xmlns:inkscape="http://www.inkscape.org/namespaces/inkscape"
   width="9.0200262mm"
   height="10.814843mm"
   viewBox="0 0 9.0200262 10.814843"
   version="1.1"
   id="svg8"
   inkscape:version="0.92.4 (5da689c313, 2019-01-14)"
   sodipodi:docname="Q2-2.svg">
  <defs
     id="defs2" />
  <sodipodi:namedview
     id="base"
     pagecolor="#ffffff"
     bordercolor="#666666"
     borderopacity="1.0"
     inkscape:pageopacity="0.0"
     inkscape:pageshadow="2"
     inkscape:zoom="5.6568543"
     inkscape:cx="-61.058684"
     inkscape:cy="31.76074"
     inkscape:document-units="in"
     inkscape:current-layer="layer1"
     showgrid="false"
     fit-margin-top="0"
     fit-margin-left="0"
     fit-margin-right="0"
     fit-margin-bottom="0"
     inkscape:window-width="1858"
     inkscape:window-height="1057"
     inkscape:window-x="54"
     inkscape:window-y="1072"
     inkscape:window-maximized="1" />
  <metadata
     id="metadata5">
    <rdf:RDF>
      <cc:Work
         rdf:about="">
        <dc:format>image/svg+xml</dc:format>
        <dc:type
           rdf:resource="http://purl.org/dc/dcmitype/StillImage" />
        <dc:title />
      </cc:Work>
    </rdf:RDF>
  </metadata>
  <g
     inkscape:label="Layer 1"
     inkscape:groupmode="layer"
     id="layer1"
     transform="translate(-134.93936,-147.82956)">
    <path
       style="font-style:normal;font-variant:normal;font-weight:bold;font-stretch:normal;font-size:16.93333244px;line-height:125%;font-family:Consolas;-inkscape-font-specification:'Consolas Bold';letter-spacing:0px;word-spacing:0px;fill:#000000;fill-opacity:1;stroke:none;stroke-width:0.26458332px;stroke-linecap:butt;stroke-linejoin:miter;stroke-opacity:1"
       d="m 139.29817,158.64441 -0.008,-1.81901 c 0.78272,0 1.34497,-0.3142 1.68672,-0.94258 0.34175,-0.62839 0.51263,-1.58198 0.51263,-2.8608 0,-0.59531 -0.0413,-1.12448 -0.12403,-1.5875 -0.0303,-0.16768 -0.0693,-0.32236 -0.11213,-0.47077 l -0.4129,0.47852 h -0.54984 -1.57096 l 1.62161,-1.8495 1.25109,-1.42679 0.2868,-0.32711 2.08049,-0.009 -1.26297,1.46244 c 0.24016,0.3701 0.43925,0.79934 0.59531,1.29036 0.2315,0.71106 0.34727,1.55719 0.34727,2.53835 0,1.80799 -0.3583,3.18326 -1.07487,4.12584 -0.64994,0.85492 -1.59325,1.31783 -2.8236,1.39733 z"
       id="path4558-0-5"
       inkscape:connector-curvature="0" />
  </g>
</svg>
