<?xml version="1.0" encoding="UTF-8" standalone="no"?>
<!-- Created with Inkscape (http://www.inkscape.org/) -->

<svg
   xmlns:dc="http://purl.org/dc/elements/1.1/"
   xmlns:cc="http://creativecommons.org/ns#"
   xmlns:rdf="http://www.w3.org/1999/02/22-rdf-syntax-ns#"
   xmlns:svg="http://www.w3.org/2000/svg"
   xmlns="http://www.w3.org/2000/svg"
   xmlns:sodipodi="http://sodipodi.sourceforge.net/DTD/sodipodi-0.dtd"
   xmlns:inkscape="http://www.inkscape.org/namespaces/inkscape"
   width="7.8384333mm"
   height="10.806522mm"
   viewBox="0 0 7.8384332 10.806523"
   version="1.1"
   id="svg8"
   inkscape:version="0.92.4 (5da689c313, 2019-01-14)"
   sodipodi:docname="S1-1.svg">
  <defs
     id="defs2" />
  <sodipodi:namedview
     id="base"
     pagecolor="#ffffff"
     bordercolor="#666666"
     borderopacity="1.0"
     inkscape:pageopacity="0.0"
     inkscape:pageshadow="2"
     inkscape:zoom="2"
     inkscape:cx="-135.46524"
     inkscape:cy="-156.94475"
     inkscape:document-units="in"
     inkscape:current-layer="layer1"
     showgrid="false"
     fit-margin-top="0"
     fit-margin-left="0"
     fit-margin-right="0"
     fit-margin-bottom="0"
     inkscape:window-width="1858"
     inkscape:window-height="1057"
     inkscape:window-x="54"
     inkscape:window-y="1072"
     inkscape:window-maximized="1" />
  <metadata
     id="metadata5">
    <rdf:RDF>
      <cc:Work
         rdf:about="">
        <dc:format>image/svg+xml</dc:format>
        <dc:type
           rdf:resource="http://purl.org/dc/dcmitype/StillImage" />
        <dc:title />
      </cc:Work>
    </rdf:RDF>
  </metadata>
  <g
     inkscape:label="Layer 1"
     inkscape:groupmode="layer"
     id="layer1"
     transform="translate(-154.32517,-81.846565)">
    <path
       style="font-style:normal;font-variant:normal;font-weight:bold;font-stretch:normal;font-size:16.93333244px;line-height:125%;font-family:Consolas;-inkscape-font-specification:'Consolas Bold';letter-spacing:0px;word-spacing:0px;fill:#000000;fill-opacity:1;stroke:none;stroke-width:0.26458332px;stroke-linecap:butt;stroke-linejoin:miter;stroke-opacity:1"
       d="m 158.54196,92.65308 c -0.73311,0 -1.35874,-0.08544 -1.87689,-0.256315 -0.51814,-0.165364 -0.94257,-0.391363 -1.2733,-0.677995 -0.33073,-0.28112 -0.57327,-0.611849 -0.72761,-0.992188 -0.15434,-0.380338 -0.23151,-0.782726 -0.23151,-1.207161 0,-0.463021 0.0744,-0.859896 0.22324,-1.190625 0.15434,-0.325217 0.35554,-0.606337 0.60359,-0.843359 0.24804,-0.237023 0.52916,-0.43546 0.84335,-0.595313 0.31971,-0.159852 0.64217,-0.303168 0.96739,-0.429948 0.33073,-0.126779 0.65318,-0.24529 0.96738,-0.355534 0.3197,-0.110242 0.60357,-0.234266 0.85163,-0.37207 0.24804,-0.137804 0.44648,-0.297656 0.59531,-0.479557 0.15434,-0.176389 0.23151,-0.396875 0.23151,-0.661459 0,-0.192925 -0.0386,-0.369313 -0.11575,-0.529166 -0.0772,-0.159853 -0.2012,-0.297656 -0.37207,-0.413412 -0.17088,-0.115754 -0.39136,-0.206705 -0.66146,-0.272851 -0.2701,-0.06615 -0.59808,-0.09922 -0.98392,-0.09922 -0.25908,0 -0.52641,0.01654 -0.80202,0.04961 -0.27561,0.03307 -0.55397,0.07717 -0.83509,0.132292 -0.27562,0.06063 -0.55122,0.129536 -0.82682,0.206706 -0.27561,0.07717 -0.5402,0.159852 -0.79375,0.248047 v -2.00918 h 5.64616 c 0.26848,0.11305 0.51589,0.246388 0.73691,0.405143 0.39136,0.286632 0.69453,0.647678 0.9095,1.083138 0.22049,0.43546 0.33073,0.94809 0.33073,1.537891 0,0.440972 -0.0772,0.82131 -0.23151,1.141015 -0.14883,0.325217 -0.35002,0.606337 -0.60358,0.84336 -0.24805,0.237023 -0.53192,0.438216 -0.85163,0.603581 -0.31419,0.165364 -0.63941,0.311436 -0.97565,0.438216 -0.33072,0.132291 -0.65594,0.253558 -0.97565,0.363802 -0.31419,0.115755 -0.59807,0.237022 -0.85163,0.363802 -0.24804,0.132291 -0.44924,0.278363 -0.60358,0.438216 -0.14882,0.165365 -0.22324,0.361046 -0.22324,0.587044 0,0.181902 0.0358,0.347266 0.10749,0.496094 0.0717,0.148828 0.18741,0.272852 0.34726,0.37207 0.15986,0.104733 0.36381,0.184659 0.61185,0.239779 0.24805,0.06063 0.55121,0.09095 0.90951,0.09095 0.20394,0 0.41892,-0.01103 0.64492,-0.03307 0.22599,-0.02205 0.44924,-0.05512 0.66973,-0.09922 0.226,-0.03859 0.44373,-0.08544 0.65319,-0.14056 0.20946,-0.05512 0.40239,-0.115754 0.57877,-0.181901 v 1.860351 c -0.17638,0.0441 -0.37207,0.08544 -0.58704,0.124024 -0.20947,0.0441 -0.42996,0.07993 -0.66146,0.107487 -0.226,0.03307 -0.45751,0.05787 -0.69453,0.07441 -0.23151,0.02205 -0.45476,0.03307 -0.66973,0.03307 z"
       id="path4566"
       inkscape:connector-curvature="0" />
  </g>
</svg>
